<svg width="44" height="44" viewBox="0 0 44 44" fill="none" xmlns="http://www.w3.org/2000/svg">
<circle cx="22" cy="22" r="22" fill="#FFDFF6"/>
<g clip-path="url(#clip0_504_1608)">
<path d="M32.8333 15.6117L20.4725 27.9833L15.8791 23.39L17.4066 21.8625L20.4725 24.9283L31.3058 14.095L32.8333 15.6117ZM22 31.6667C17.2225 31.6667 13.3333 27.7775 13.3333 23C13.3333 18.2225 17.2225 14.3333 22 14.3333C23.7008 14.3333 25.2933 14.8317 26.6366 15.6875L28.2075 14.1167C26.4416 12.8925 24.3075 12.1667 22 12.1667C16.02 12.1667 11.1666 17.02 11.1666 23C11.1666 28.98 16.02 33.8333 22 33.8333C23.8741 33.8333 25.64 33.3567 27.1783 32.5117L25.5533 30.8867C24.47 31.385 23.2675 31.6667 22 31.6667ZM29.5833 26.25H26.3333V28.4167H29.5833V31.6667H31.75V28.4167H35V26.25H31.75V23H29.5833V26.25Z" fill="#DC02FF"/>
</g>
<defs>
<clipPath id="clip0_504_1608">
<rect width="26" height="26" fill="white" transform="translate(9 10)"/>
</clipPath>
</defs>
</svg>
