<svg width="26" height="26" viewBox="0 0 26 26" fill="none" xmlns="http://www.w3.org/2000/svg">
<g clip-path="url(#clip0_185_593)">
<path d="M23.8334 5.61163L11.4726 17.9833L6.87925 13.39L8.40675 11.8625L11.4726 14.9283L22.3059 4.09496L23.8334 5.61163ZM13.0001 21.6666C8.22258 21.6666 4.33341 17.7775 4.33341 13C4.33341 8.22246 8.22258 4.33329 13.0001 4.33329C14.7009 4.33329 16.2934 4.83163 17.6367 5.68746L19.2076 4.11663C17.4417 2.89246 15.3076 2.16663 13.0001 2.16663C7.02008 2.16663 2.16675 7.01996 2.16675 13C2.16675 18.98 7.02008 23.8333 13.0001 23.8333C14.8742 23.8333 16.6401 23.3566 18.1784 22.5116L16.5534 20.8866C15.4701 21.385 14.2676 21.6666 13.0001 21.6666ZM20.5834 16.25H17.3334V18.4166H20.5834V21.6666H22.7501V18.4166H26.0001V16.25H22.7501V13H20.5834V16.25Z" fill="#DC02FF"/>
</g>
<defs>
<clipPath id="clip0_185_593">
<rect width="26" height="26" fill="white"/>
</clipPath>
</defs>
</svg>
