<svg width="44" height="44" viewBox="0 0 44 44" fill="none" xmlns="http://www.w3.org/2000/svg">
<circle cx="22" cy="22" r="22" fill="#FFF2E6"/>
<path d="M28.7834 30.9583H19.2167C17.1417 30.9583 15.4584 29.275 15.4584 27.2V21.5917C15.4584 19.5167 17.1417 17.8333 19.2167 17.8333H28.7834C30.8584 17.8333 32.5417 19.5167 32.5417 21.5917V22.7917C32.5417 23.1333 32.2584 23.4167 31.9167 23.4167H30.2334C29.9417 23.4167 29.675 23.525 29.4834 23.725L29.475 23.7333C29.2417 23.9584 29.1334 24.2666 29.1584 24.5833C29.2084 25.1333 29.7334 25.575 30.3334 25.575H31.9167C32.2584 25.575 32.5417 25.8583 32.5417 26.2V27.1917C32.5417 29.275 30.8584 30.9583 28.7834 30.9583ZM19.2167 19.0833C17.8334 19.0833 16.7084 20.2083 16.7084 21.5917V27.2C16.7084 28.5833 17.8334 29.7083 19.2167 29.7083H28.7834C30.1667 29.7083 31.2917 28.5833 31.2917 27.2V26.8333H30.3334C29.075 26.8333 28.0084 25.9 27.9084 24.7C27.8417 24.0167 28.0917 23.3417 28.5917 22.85C29.025 22.4084 29.6084 22.1667 30.2334 22.1667H31.2917V21.5917C31.2917 20.2083 30.1667 19.0833 28.7834 19.0833H19.2167Z" fill="#F49A40"/>
<path d="M16.0834 22.9667C15.7417 22.9667 15.4584 22.6833 15.4584 22.3417V18.5334C15.4584 17.2917 16.2417 16.1667 17.4 15.725L24.0167 13.225C24.7 12.9667 25.4584 13.0584 26.05 13.475C26.65 13.8917 27 14.5667 27 15.2917V18.4584C27 18.8 26.7167 19.0834 26.375 19.0834C26.0334 19.0834 25.75 18.8 25.75 18.4584V15.2917C25.75 14.975 25.6 14.6834 25.3334 14.5C25.0667 14.3167 24.75 14.275 24.45 14.3917L17.8334 16.8917C17.1584 17.15 16.7 17.8084 16.7 18.5334V22.3417C16.7084 22.6917 16.425 22.9667 16.0834 22.9667Z" fill="#F49A40"/>
<path d="M30.3333 26.8333C29.075 26.8333 28.0083 25.8999 27.9083 24.6999C27.8416 24.0083 28.0916 23.3333 28.5916 22.8416C29.0166 22.4083 29.6 22.1666 30.225 22.1666H31.9583C32.7833 22.1916 33.4166 22.8416 33.4166 23.6416V25.3583C33.4166 26.1583 32.7833 26.8083 31.9833 26.8333H30.3333ZM31.9416 23.4166H30.2333C29.9416 23.4166 29.675 23.525 29.4833 23.725C29.2416 23.9583 29.125 24.2749 29.1583 24.5916C29.2083 25.1416 29.7333 25.5833 30.3333 25.5833H31.9666C32.075 25.5833 32.175 25.4833 32.175 25.3583V23.6416C32.175 23.5166 32.075 23.425 31.9416 23.4166Z" fill="#F49A40"/>
<path d="M25.6667 22.625H19.8334C19.4917 22.625 19.2084 22.3417 19.2084 22C19.2084 21.6583 19.4917 21.375 19.8334 21.375H25.6667C26.0084 21.375 26.2917 21.6583 26.2917 22C26.2917 22.3417 26.0084 22.625 25.6667 22.625Z" fill="#F49A40"/>
</svg>
