<svg width="20" height="21" viewBox="0 0 20 21" fill="none" xmlns="http://www.w3.org/2000/svg">
<path d="M6.8915 19.4584H3.52484C1.84984 19.4584 1.0415 18.6834 1.0415 17.0834V3.91675C1.0415 2.31675 1.85817 1.54175 3.52484 1.54175H6.8915C8.5665 1.54175 9.37484 2.31675 9.37484 3.91675V17.0834C9.37484 18.6834 8.55817 19.4584 6.8915 19.4584ZM3.52484 2.79175C2.4665 2.79175 2.2915 3.07508 2.2915 3.91675V17.0834C2.2915 17.9251 2.4665 18.2084 3.52484 18.2084H6.8915C7.94984 18.2084 8.12484 17.9251 8.12484 17.0834V3.91675C8.12484 3.07508 7.94984 2.79175 6.8915 2.79175H3.52484Z" fill="#25282C"/>
<path d="M16.475 9.87508H13.1083C11.4333 9.87508 10.625 9.13341 10.625 7.60008V3.81675C10.625 2.28341 11.4417 1.54175 13.1083 1.54175H16.475C18.15 1.54175 18.9583 2.28341 18.9583 3.81675V7.59175C18.9583 9.13341 18.1417 9.87508 16.475 9.87508ZM13.1083 2.79175C11.9917 2.79175 11.875 3.10841 11.875 3.81675V7.59175C11.875 8.30841 11.9917 8.61675 13.1083 8.61675H16.475C17.5917 8.61675 17.7083 8.30008 17.7083 7.59175V3.81675C17.7083 3.10008 17.5917 2.79175 16.475 2.79175H13.1083Z" fill="#25282C"/>
<path d="M16.475 19.4583H13.1083C11.4333 19.4583 10.625 18.6417 10.625 16.975V13.6083C10.625 11.9333 11.4417 11.125 13.1083 11.125H16.475C18.15 11.125 18.9583 11.9417 18.9583 13.6083V16.975C18.9583 18.6417 18.1417 19.4583 16.475 19.4583ZM13.1083 12.375C12.125 12.375 11.875 12.625 11.875 13.6083V16.975C11.875 17.9583 12.125 18.2083 13.1083 18.2083H16.475C17.4583 18.2083 17.7083 17.9583 17.7083 16.975V13.6083C17.7083 12.625 17.4583 12.375 16.475 12.375H13.1083Z" fill="#25282C"/>
</svg>
