<svg xmlns="http://www.w3.org/2000/svg" width="24" height="24" fill="none" id="delete">
  <path fill="#14171A" fill-rule="evenodd" d="M21.75 7A4.75 4.75 0 0 0 17 2.25H7A4.75 4.75 0 0 0 2.25 7v10A4.75 4.75 0 0 0 7 21.75h10A4.75 4.75 0 0 0 21.75 17V7Zm-1.5 0v10A3.247 3.247 0 0 1 17 20.25H7A3.247 3.247 0 0 1 3.75 17V7A3.247 3.247 0 0 1 7 3.75h10A3.247 3.247 0 0 1 20.25 7Z" clip-rule="evenodd"></path>
  <path fill="#14171A" fill-rule="evenodd" d="m10.94 12-1.97-1.97a.749.749 0 1 1 1.06-1.06L12 10.939l1.97-1.969a.749.749 0 1 1 1.06 1.06L13.063 12l1.969 1.97a.749.749 0 1 1-1.06 1.06L12 13.061l-1.97 1.969a.749.749 0 1 1-1.06-1.06L10.94 12Z" clip-rule="evenodd"></path>
</svg>
