<svg width="66" height="66" viewBox="0 0 66 66" fill="none" xmlns="http://www.w3.org/2000/svg">
<rect x="5" y="5" width="56" height="56" rx="28" fill="#F4EBFF"/>
<rect x="5" y="5" width="56" height="56" rx="28" stroke="#F9F5FF" stroke-width="10"/>
<path d="M21.3333 27.1666L30.859 33.8346C31.6304 34.3746 32.016 34.6446 32.4356 34.7492C32.8061 34.8415 33.1937 34.8415 33.5643 34.7492C33.9838 34.6446 34.3695 34.3746 35.1408 33.8346L44.6666 27.1666M26.9333 42.3333H39.0666C41.0268 42.3333 42.0069 42.3333 42.7556 41.9518C43.4141 41.6163 43.9496 41.0808 44.2851 40.4223C44.6666 39.6736 44.6666 38.6935 44.6666 36.7333V29.2666C44.6666 27.3064 44.6666 26.3264 44.2851 25.5777C43.9496 24.9191 43.4141 24.3837 42.7556 24.0481C42.0069 23.6666 41.0268 23.6666 39.0666 23.6666H26.9333C24.9731 23.6666 23.993 23.6666 23.2443 24.0481C22.5857 24.3837 22.0503 24.9191 21.7147 25.5777C21.3333 26.3264 21.3333 27.3064 21.3333 29.2666V36.7333C21.3333 38.6935 21.3333 39.6736 21.7147 40.4223C22.0503 41.0808 22.5857 41.6163 23.2443 41.9518C23.993 42.3333 24.9731 42.3333 26.9333 42.3333Z" stroke="#31AAEE" stroke-width="2" stroke-linecap="round" stroke-linejoin="round"/>
</svg>
