<svg width="20" height="20" viewBox="0 0 20 20" fill="none" xmlns="http://www.w3.org/2000/svg">
<path d="M14.7834 18.9584H5.21671C3.14171 18.9584 1.45837 17.275 1.45837 15.2V9.59172C1.45837 7.51672 3.14171 5.83337 5.21671 5.83337H14.7834C16.8584 5.83337 18.5417 7.51672 18.5417 9.59172V10.7917C18.5417 11.1334 18.2584 11.4167 17.9167 11.4167H16.2334C15.9417 11.4167 15.675 11.525 15.4834 11.725L15.475 11.7334C15.2417 11.9584 15.1334 12.2667 15.1584 12.5834C15.2084 13.1334 15.7334 13.575 16.3334 13.575H17.9167C18.2584 13.575 18.5417 13.8584 18.5417 14.2V15.1917C18.5417 17.275 16.8584 18.9584 14.7834 18.9584ZM5.21671 7.08337C3.83337 7.08337 2.70837 8.20838 2.70837 9.59172V15.2C2.70837 16.5834 3.83337 17.7084 5.21671 17.7084H14.7834C16.1667 17.7084 17.2917 16.5834 17.2917 15.2V14.8334H16.3334C15.075 14.8334 14.0084 13.9 13.9084 12.7C13.8417 12.0167 14.0917 11.3417 14.5917 10.8501C15.025 10.4084 15.6084 10.1667 16.2334 10.1667H17.2917V9.59172C17.2917 8.20838 16.1667 7.08337 14.7834 7.08337H5.21671Z" fill="#F49A40"/>
<path d="M2.08337 10.9666C1.74171 10.9666 1.45837 10.6833 1.45837 10.3416V6.53334C1.45837 5.29168 2.24171 4.16663 3.40004 3.72496L10.0167 1.22496C10.7 0.96663 11.4584 1.05834 12.05 1.475C12.65 1.89167 13 2.56666 13 3.29166V6.45832C13 6.79999 12.7167 7.08332 12.375 7.08332C12.0334 7.08332 11.75 6.79999 11.75 6.45832V3.29166C11.75 2.975 11.6 2.68332 11.3334 2.49999C11.0667 2.31665 10.75 2.27498 10.45 2.39165L3.83337 4.89165C3.15837 5.14998 2.70004 5.80834 2.70004 6.53334V10.3416C2.70837 10.6916 2.42504 10.9666 2.08337 10.9666Z" fill="#F49A40"/>
<path d="M16.3333 14.8333C15.075 14.8333 14.0083 13.8999 13.9083 12.6999C13.8416 12.0083 14.0916 11.3333 14.5916 10.8416C15.0166 10.4083 15.6 10.1666 16.225 10.1666H17.9583C18.7833 10.1916 19.4166 10.8416 19.4166 11.6416V13.3583C19.4166 14.1583 18.7833 14.8083 17.9833 14.8333H16.3333ZM17.9416 11.4166H16.2333C15.9416 11.4166 15.675 11.525 15.4833 11.725C15.2416 11.9583 15.125 12.2749 15.1583 12.5916C15.2083 13.1416 15.7333 13.5833 16.3333 13.5833H17.9666C18.075 13.5833 18.175 13.4833 18.175 13.3583V11.6416C18.175 11.5166 18.075 11.425 17.9416 11.4166Z" fill="#F49A40"/>
<path d="M11.6667 10.625H5.83337C5.49171 10.625 5.20837 10.3417 5.20837 10C5.20837 9.65833 5.49171 9.375 5.83337 9.375H11.6667C12.0084 9.375 12.2917 9.65833 12.2917 10C12.2917 10.3417 12.0084 10.625 11.6667 10.625Z" fill="#F49A40"/>
</svg>
