<svg width="50" height="50" viewBox="0 0 50 50" fill="none" xmlns="http://www.w3.org/2000/svg">
<path d="M18.0958 36.0979C17.827 33.9942 17.2427 31.7601 16.4138 29.4995C13.4341 30.2359 10.3695 30.7192 8.21191 31.0048C10.1997 32.7082 12.0475 35.8279 12.8607 40.3793C13.946 40.0276 15.8082 39.488 18.2048 39.0353C18.2567 38.0982 18.2274 37.1187 18.0958 36.0979Z" fill="white"/>
<path d="M18.0958 36.0979C17.827 33.9942 17.2427 31.7601 16.4138 29.4995C13.4341 30.2359 10.3695 30.7192 8.21191 31.0048C10.1997 32.7082 12.0475 35.8279 12.8607 40.3793C13.946 40.0276 15.8082 39.488 18.2048 39.0353C18.2567 38.0982 18.2274 37.1187 18.0958 36.0979Z" fill="url(#paint0_linear_1135_2608)"/>
<path d="M15.0196 46.8779C16.4553 45.3581 17.5107 43.3373 17.9727 40.9459C14.6288 41.6244 12.4897 42.4364 12.4571 42.4492L11.3791 42.8661L11.2242 41.7209C10.2903 34.8103 6.9412 31.6785 5.04957 31.328H5.04434C4.47134 31.2226 4.00497 31.3389 3.66093 31.6749C3.01711 32.3058 2.81028 33.6623 3.09436 35.3962C4.35142 43.0597 10.9337 50.0657 16.6408 49.8126L16.6464 49.8122C17.8033 49.7683 18.8797 49.4138 19.8474 48.7587C20.4337 48.3632 20.9306 47.8903 21.3511 47.362C18.7976 47.5 16.5482 47.3234 15.0196 46.8779Z" fill="white"/>
<path d="M15.0196 46.8779C16.4553 45.3581 17.5107 43.3373 17.9727 40.9459C14.6288 41.6244 12.4897 42.4364 12.4571 42.4492L11.3791 42.8661L11.2242 41.7209C10.2903 34.8103 6.9412 31.6785 5.04957 31.328H5.04434C4.47134 31.2226 4.00497 31.3389 3.66093 31.6749C3.01711 32.3058 2.81028 33.6623 3.09436 35.3962C4.35142 43.0597 10.9337 50.0657 16.6408 49.8126L16.6464 49.8122C17.8033 49.7683 18.8797 49.4138 19.8474 48.7587C20.4337 48.3632 20.9306 47.8903 21.3511 47.362C18.7976 47.5 16.5482 47.3234 15.0196 46.8779Z" fill="url(#paint1_linear_1135_2608)"/>
<path d="M16.4138 29.4995C17.2428 31.7602 17.827 33.9942 18.0958 36.0979C18.227 37.1188 18.2568 38.0982 18.2049 39.0349C18.1687 39.6945 18.0922 40.3326 17.9739 40.9455C17.512 43.3369 16.4569 45.3577 15.0208 46.8775C16.549 47.3233 18.7988 47.4996 21.3524 47.362C23.1591 45.0933 23.5526 41.801 23.5212 39.2019C23.481 35.5374 22.6018 31.336 20.9789 27.0514C18.3759 20.1613 14.3073 14.2249 9.81507 10.7631L8.55559 9.79256L10.0295 9.19582C10.1511 9.14673 20.6695 4.94217 32.7705 3.96678C31.5927 2.48719 30.3433 1.15207 29.0279 0.0382563C28.9945 0.00968667 28.9507 -0.00359154 28.9068 0.00083473C13.884 1.4776 0 8.75963 0 8.75963C5.54129 11.9111 10.5663 17.7377 13.9311 23.9961C14.6055 25.2471 15.2047 26.5154 15.7378 27.7829C15.9789 28.3563 16.2042 28.9285 16.4138 29.4995Z" fill="white"/>
<path d="M16.4138 29.4995C17.2428 31.7602 17.827 33.9942 18.0958 36.0979C18.227 37.1188 18.2568 38.0982 18.2049 39.0349C18.1687 39.6945 18.0922 40.3326 17.9739 40.9455C17.512 43.3369 16.4569 45.3577 15.0208 46.8775C16.549 47.3233 18.7988 47.4996 21.3524 47.362C23.1591 45.0933 23.5526 41.801 23.5212 39.2019C23.481 35.5374 22.6018 31.336 20.9789 27.0514C18.3759 20.1613 14.3073 14.2249 9.81507 10.7631L8.55559 9.79256L10.0295 9.19582C10.1511 9.14673 20.6695 4.94217 32.7705 3.96678C31.5927 2.48719 30.3433 1.15207 29.0279 0.0382563C28.9945 0.00968667 28.9507 -0.00359154 28.9068 0.00083473C13.884 1.4776 0 8.75963 0 8.75963C5.54129 11.9111 10.5663 17.7377 13.9311 23.9961C14.6055 25.2471 15.2047 26.5154 15.7378 27.7829C15.9789 28.3563 16.2042 28.9285 16.4138 29.4995Z" fill="url(#paint2_linear_1135_2608)"/>
<path d="M45.9001 15.9845L45.9126 15.9596C47.9623 10.4931 49.8789 7.63495 50 7.45991C39.1379 18.9469 34.8714 32.9838 34.8714 32.9838C33.4216 30.7172 29.4134 26.0716 26.9299 24.734C30.2379 24.6298 33.5504 26.7299 33.5504 26.7299C35.1627 23.4758 38.742 17.7011 42.8584 13.1847C41.5917 10.3181 40.0292 7.70174 38.2044 5.5892C26.9963 5.46406 16.0384 8.96806 12.1719 10.343C16.4219 14.0844 20.2048 19.8426 22.6839 26.4048C24.3795 30.8878 25.3006 35.3044 25.3465 39.1794C25.4008 44.004 24.0922 47.6376 21.5467 49.7542C27.9383 49.2335 37.6962 47.2835 42.2166 43.7336L42.2999 43.6713C42.45 43.5546 42.5916 43.4338 42.7333 43.3087L43.1751 42.8798C46.9415 38.9005 47.4875 30.0134 45.5416 21.3765C45.1335 19.5803 45.2543 17.7095 45.9001 15.9845ZM35.1961 10.0972C35.846 9.66379 36.6963 9.89718 37.1003 10.6179C37.5002 11.3385 37.3002 12.2761 36.6504 12.7095C36.0005 13.1469 35.1503 12.9135 34.7503 12.1928C34.3463 11.4681 34.5463 10.535 35.1961 10.0972ZM29.7422 11.2347C30.4629 10.7555 31.4089 11.0138 31.8547 11.8138C32.3006 12.6177 32.0796 13.6555 31.3545 14.1388C30.6339 14.622 29.6878 14.3637 29.242 13.5637C28.7966 12.7598 29.0215 11.718 29.7422 11.2347ZM25.1759 15.8469C24.3759 16.3801 23.3261 16.0928 22.8299 15.2011C22.3342 14.3138 22.5801 13.1553 23.384 12.6177C24.184 12.0846 25.2338 12.3719 25.73 13.2595C26.2257 14.1512 25.9798 15.3097 25.1759 15.8469Z" fill="white"/>
<path d="M45.9001 15.9845L45.9126 15.9596C47.9623 10.4931 49.8789 7.63495 50 7.45991C39.1379 18.9469 34.8714 32.9838 34.8714 32.9838C33.4216 30.7172 29.4134 26.0716 26.9299 24.734C30.2379 24.6298 33.5504 26.7299 33.5504 26.7299C35.1627 23.4758 38.742 17.7011 42.8584 13.1847C41.5917 10.3181 40.0292 7.70174 38.2044 5.5892C26.9963 5.46406 16.0384 8.96806 12.1719 10.343C16.4219 14.0844 20.2048 19.8426 22.6839 26.4048C24.3795 30.8878 25.3006 35.3044 25.3465 39.1794C25.4008 44.004 24.0922 47.6376 21.5467 49.7542C27.9383 49.2335 37.6962 47.2835 42.2166 43.7336L42.2999 43.6713C42.45 43.5546 42.5916 43.4338 42.7333 43.3087L43.1751 42.8798C46.9415 38.9005 47.4875 30.0134 45.5416 21.3765C45.1335 19.5803 45.2543 17.7095 45.9001 15.9845ZM35.1961 10.0972C35.846 9.66379 36.6963 9.89718 37.1003 10.6179C37.5002 11.3385 37.3002 12.2761 36.6504 12.7095C36.0005 13.1469 35.1503 12.9135 34.7503 12.1928C34.3463 11.4681 34.5463 10.535 35.1961 10.0972ZM29.7422 11.2347C30.4629 10.7555 31.4089 11.0138 31.8547 11.8138C32.3006 12.6177 32.0796 13.6555 31.3545 14.1388C30.6339 14.622 29.6878 14.3637 29.242 13.5637C28.7966 12.7598 29.0215 11.718 29.7422 11.2347ZM25.1759 15.8469C24.3759 16.3801 23.3261 16.0928 22.8299 15.2011C22.3342 14.3138 22.5801 13.1553 23.384 12.6177C24.184 12.0846 25.2338 12.3719 25.73 13.2595C26.2257 14.1512 25.9798 15.3097 25.1759 15.8469Z" fill="url(#paint3_linear_1135_2608)"/>
<defs>
<linearGradient id="paint0_linear_1135_2608" x1="13.8169" y1="43.6039" x2="13.1883" y2="33.8238" gradientUnits="userSpaceOnUse">
<stop stop-color="#7B728C"/>
<stop offset="1" stop-color="#E1D9FF" stop-opacity="0"/>
</linearGradient>
<linearGradient id="paint1_linear_1135_2608" x1="13.1383" y1="55.9947" x2="11.9991" y2="38.2739" gradientUnits="userSpaceOnUse">
<stop stop-color="#7B728C"/>
<stop offset="1" stop-color="#E1D9FF" stop-opacity="0"/>
</linearGradient>
<linearGradient id="paint2_linear_1135_2608" x1="19.9563" y1="61.915" x2="17.1894" y2="18.8728" gradientUnits="userSpaceOnUse">
<stop stop-color="#7B728C"/>
<stop offset="1" stop-color="#E1D9FF" stop-opacity="0"/>
</linearGradient>
<linearGradient id="paint3_linear_1135_2608" x1="34.5165" y1="62.265" x2="31.9635" y2="22.551" gradientUnits="userSpaceOnUse">
<stop stop-color="#7B728C"/>
<stop offset="1" stop-color="#E1D9FF" stop-opacity="0"/>
</linearGradient>
</defs>
</svg>
