<svg width="20" height="21" viewBox="0 0 20 21" fill="none" xmlns="http://www.w3.org/2000/svg">
<g clip-path="url(#clip0_425_1605)">
<path d="M17.8416 10.15L10.3416 2.64996C10.0416 2.34996 9.62496 2.16663 9.16663 2.16663H3.33329C2.41663 2.16663 1.66663 2.91663 1.66663 3.83329V9.66663C1.66663 10.125 1.84996 10.5416 2.15829 10.85L9.65829 18.35C9.95829 18.65 10.375 18.8333 10.8333 18.8333C11.2916 18.8333 11.7083 18.65 12.0083 18.3416L17.8416 12.5083C18.15 12.2083 18.3333 11.7916 18.3333 11.3333C18.3333 10.875 18.1416 10.45 17.8416 10.15ZM10.8333 17.175L3.33329 9.66663V3.83329H9.16663V3.82496L16.6666 11.325L10.8333 17.175Z" fill="#292D32"/>
<path d="M5.41663 7.16663C6.10698 7.16663 6.66663 6.60698 6.66663 5.91663C6.66663 5.22627 6.10698 4.66663 5.41663 4.66663C4.72627 4.66663 4.16663 5.22627 4.16663 5.91663C4.16663 6.60698 4.72627 7.16663 5.41663 7.16663Z" fill="#292D32"/>
</g>
<defs>
<clipPath id="clip0_425_1605">
<rect width="20" height="20" fill="white" transform="translate(0 0.5)"/>
</clipPath>
</defs>
</svg>
