<?xml version="1.0" encoding="utf-8"?>
<!-- Generator: Adobe Illustrator 27.5.0, SVG Export Plug-In . SVG Version: 6.00 Build 0)  -->
<svg version="1.1" xmlns="http://www.w3.org/2000/svg" xmlns:xlink="http://www.w3.org/1999/xlink" x="0px" y="0px"
	 viewBox="0 0 3710 3710" style="enable-background:new 0 0 3710 3710;" xml:space="preserve">
<g id="Background">
	<g>
		<g>
			<rect style="fill:#FFFFFF;" width="3710" height="3710"/>
		</g>
	</g>
</g>
<g id="Illustration">
	<g>
		<linearGradient id="SVGID_1_" gradientUnits="userSpaceOnUse" x1="3508.0356" y1="3673.3137" x2="1544.483" y2="1583.0809">
			<stop  offset="0" style="stop-color:#DAE3FE"/>
			<stop  offset="1" style="stop-color:#E9EFFD"/>
		</linearGradient>
		<path style="fill:url(#SVGID_1_);" d="M2918.481,2834.721c-72.486,74.716-137.344,118.637-187.002,151.794
			c-484.302,323.373-1037.912,230.169-1209.075,198.312c-276.15-51.397-509.258-87.656-709.54-268.602
			c-455.101-411.166-432.966-1268.888-85.213-1800.209c41.233-63,388.459-577.696,943.268-650.222
			c13.57-1.774,23.695-2.784,32.563-3.723c85.828-9.087,617.684-57.048,1051.36,306.286
			c62.079,52.009,161.981,145.821,254.623,288.899C3348.205,1580.415,3349.278,2390.672,2918.481,2834.721z"/>
		<g style="opacity:0.77;">
			<path style="fill:#91B3FA;" d="M2925.98,1010.831c96.258,186.277,612.941,1290.525-320.602,1899.785
				c0,0-524.478-650.549,290.276-1902.588C2902.781,997.074,2919.691,998.661,2925.98,1010.831z"/>
			<path style="opacity:0.5;fill:#FFFFFF;" d="M2893.846,1212.243c8.64,69.576,14.461,138.827,19.149,207.988
				c4.509,69.129,7.506,138.083,8.973,206.789c3.073,137.438-0.482,273.81-10.964,408.351
				c-5.581,67.179-13.018,133.843-22.438,199.863c-9.919,65.848-22.007,130.941-36.556,195.037
				c-15.222,63.801-32.897,126.545-53.896,187.586c-21.658,60.676-46.56,119.565-75.405,175.844
				c-1.605,3.134-5.564,3.805-8.842,1.502c-3.278-2.305-4.634-6.712-3.028-9.844l0.014-0.028l0.045-0.087
				c28.835-55.519,53.826-113.725,75.626-173.791c21.147-60.442,39.023-122.659,54.475-185.989
				c14.781-63.634,27.129-128.318,37.324-193.804c9.696-65.661,17.425-132.008,23.306-198.903
				c11.083-133.979,15.271-269.918,12.836-406.998c-1.147-68.527-3.822-137.322-8.007-206.301
				c-4.359-68.976-9.869-138.194-18.156-207.442l-0.007-0.061c-0.197-1.646,0.886-2.911,2.42-2.827
				C2892.248,1209.209,2893.649,1210.597,2893.846,1212.243z"/>
		</g>
		<g>
			<path style="fill:#91B3FA;" d="M749.265,526.369c-4.556-14.062,11.841-25.618,23.69-16.78
				c120.327,89.74,416.307,365.786,411.942,907.49c-5.477,679.648,161.972,908.385,352.754,1037.833
				c0,0-246.689-43.031-425.092-274.167C674.54,1613.25,830.275,776.404,749.265,526.369z"/>
			<path style="fill:#FFFFFF;" d="M855.805,726.345c22.084,73.082,42.716,146.56,60.631,220.689
				c18.301,74.021,34.351,148.563,48.054,223.498c13.414,74.981,25.42,150.202,34.212,225.822
				c9.132,75.576,15.007,151.46,20.64,227.669c6.055,76.134,11.722,152.865,25.261,229.251
				c13.441,76.237,36.199,152.095,72.143,221.546c8.979,17.307,18.309,34.517,28.559,51.006
				c9.949,16.686,20.64,32.936,31.617,48.987c22.119,32.002,46.4,62.59,72.84,91.237c53.034,57.169,114.733,106.217,181.096,146.119
				c6.985,4.2,16.051,1.941,20.252-5.043c4.124-6.858,2.021-15.725-4.67-20.02l-0.047-0.031
				c-15.866-10.162-31.597-20.493-46.813-31.49c-7.698-5.378-15.14-11.086-22.687-16.652c-7.327-5.844-14.883-11.406-22.022-17.471
				c-28.955-23.77-56.207-49.543-81.417-77.204c-50.638-55.015-93.316-117.881-127.771-184.168
				c-16.858-33.348-31.23-67.88-42.894-103.399c-11.638-35.531-20.565-72.011-27.416-109.028
				c-13.715-74.076-19.951-149.977-26.553-226.062c-6.702-76.094-13.96-152.515-24.351-228.518
				c-5.092-38.01-10.867-75.925-17.318-113.718c-3.116-18.914-6.599-37.764-10.046-56.617c-3.629-18.821-7.361-37.618-11.245-56.381
				c-15.678-75.029-33.637-149.542-53.925-223.385c-20.642-73.744-43.234-146.917-68.607-219.095
				c-0.726-2.064-2.985-3.148-5.048-2.422C856.278,722.169,855.2,724.332,855.805,726.345z"/>
		</g>
		<g>
			<g>
				<path style="fill:#BDD0FB;" d="M1189.264,2631.092c-4.724,26.824-35.308,40.106-58.326,25.545
					c-127.01-80.339-465.57-339.96-526.863-855.136c-51.759-435.043-121.167-666.022-159.941-768.695
					c-8.199-21.711,16.084-41.27,35.574-28.672C694.744,1143.128,1360.455,1659.109,1189.264,2631.092z"/>
				<path style="fill:#FFFFFF;" d="M1152.974,2637.658c-0.49,0.465-1.03,0.887-1.622,1.263c-4.956,3.15-11.528,1.686-14.678-3.27
					c-3.571-5.619-358.224-568.785-457.517-1170.431c-0.954-5.79,2.966-11.263,8.762-12.225c5.796-0.954,11.267,2.967,12.226,8.762
					c98.568,597.267,450.932,1156.905,454.478,1162.487C1157.398,2628.608,1156.593,2634.226,1152.974,2637.658z"/>
			</g>
		</g>
		<g>
			
				<linearGradient id="SVGID_00000090261536292842345450000008881875416486426038_" gradientUnits="userSpaceOnUse" x1="1998.1158" y1="155.7958" x2="1982.7146" y2="2768.8101">
				<stop  offset="0" style="stop-color:#09005D"/>
				<stop  offset="1" style="stop-color:#1A0F91"/>
			</linearGradient>
			<path style="fill:url(#SVGID_00000090261536292842345450000008881875416486426038_);" d="M1068.994,956.633
				c0-92.117,74.676-166.793,166.793-166.793h1418.418c78.253,0,142.779,61.324,146.758,139.476l104.7,2056.44
				c3.114,61.156-45.029,112.742-106.254,113.855l-1625.686,29.546c-57.529,1.045-104.729-45.303-104.729-102.842V956.633z"/>
			<path style="fill:#FFFFFF;" d="M1411.321,3094.198c-0.017,0-0.034,0-0.051,0l-181.905-2.351
				c-60.825-0.789-110.309-50.918-110.309-111.745V2705.46c0-2.146,1.739-3.883,3.883-3.883c2.145,0,3.884,1.737,3.884,3.883
				v274.642c0,56.599,46.044,103.242,102.643,103.977l181.903,2.352c2.145,0.026,3.861,1.79,3.834,3.933
				C1415.174,3092.492,1413.441,3094.198,1411.321,3094.198z"/>
			<path style="fill:#FFFFFF;" d="M1122.939,2624.272c-2.144,0-3.883-1.737-3.883-3.884v-44.478c0-2.146,1.739-3.884,3.883-3.884
				c2.145,0,3.884,1.737,3.884,3.884v44.478C1126.823,2622.535,1125.084,2624.272,1122.939,2624.272z"/>
			<g>
				<path style="fill:#91B3FA;" d="M1185.199,821.493c-0.174-29.472,25.745-52.282,54.951-48.322
					c193.698,26.267,859.774,107.507,1410.478,65.233c25.114-1.928,46.909,17.1,48.246,42.253l109.782,2065.607
					c1.506,28.323-20.122,52.542-48.435,54.218c-231.615,13.707-1185.481,66.693-1525.711,31.058
					c-20.707-2.169-36.425-19.603-36.548-40.423L1185.199,821.493z"/>
				<path style="opacity:0.6;fill:#FFFFFF;" d="M1208.015,873.255c-0.167-28.362,24.776-50.314,52.882-46.502
					c186.404,25.278,827.398,103.459,1357.365,62.776c24.168-1.855,45.143,16.457,46.429,40.662l105.649,1987.826
					c1.449,27.256-19.365,50.564-46.612,52.177c-222.894,13.191-1140.841,64.182-1468.259,29.887
					c-19.927-2.087-35.054-18.865-35.171-38.901L1208.015,873.255z"/>
				<g>
					<path style="fill:#91B3FA;" d="M1229.571,2275.413c4.192,11.104,18.63,18.807,35.067,18.71l1339.56-7.98
						c15.154-0.09,27.276-8.821,26.945-19.406c-0.323-10.291-12.32-18.529-27.053-18.576l-1339.595-4.269
						C1240.848,2243.817,1223.54,2259.438,1229.571,2275.413z"/>
					<path style="fill:#91B3FA;" d="M1229.571,2492.201c4.192,11.104,18.63,18.808,35.067,18.709l1339.56-7.979
						c15.154-0.09,27.276-8.82,26.945-19.406c-0.323-10.291-12.32-18.529-27.053-18.576l-1339.595-4.269
						C1240.848,2460.605,1223.54,2476.227,1229.571,2492.201z"/>
					<path style="fill:#91B3FA;" d="M1228.962,2708.989L1228.962,2708.989c2.081,11.104,9.25,18.808,17.41,18.71l665.084-7.979
						c7.524-0.091,13.542-8.821,13.378-19.406c-0.16-10.291-6.117-18.529-13.432-18.576l-665.101-4.269
						C1234.561,2677.394,1225.968,2693.015,1228.962,2708.989z"/>
				</g>
				<g>
					<path style="fill:#91B3FA;" d="M1372.137,1410.339c3.581,11.104,15.916,18.807,29.958,18.709l1144.396-7.979
						c12.946-0.09,23.302-8.821,23.02-19.406c-0.275-10.291-10.525-18.529-23.112-18.576l-1144.426-4.268
						C1381.771,1378.743,1366.985,1394.364,1372.137,1410.339z"/>
					<path style="fill:#91B3FA;" d="M1371.61,1627.127c1.753,11.104,7.789,18.807,14.661,18.71l560.066-7.979
						c6.336-0.09,11.404-8.821,11.266-19.406c-0.135-10.291-5.151-18.529-11.311-18.576l-560.08-4.269
						C1376.325,1595.531,1369.089,1611.152,1371.61,1627.127z"/>
					<path style="fill:#91B3FA;" d="M1372.137,1843.915c3.581,11.104,15.916,18.808,29.958,18.71l1144.396-7.979
						c12.946-0.09,23.302-8.821,23.02-19.406c-0.275-10.291-10.525-18.529-23.112-18.576l-1144.426-4.269
						C1381.771,1812.319,1366.985,1827.941,1372.137,1843.915z"/>
					<path style="fill:#91B3FA;" d="M1371.636,2060.703L1371.636,2060.703c1.841,11.104,8.185,18.808,15.406,18.709l588.523-7.979
						c6.658-0.091,11.984-8.821,11.838-19.406c-0.142-10.291-5.413-18.529-11.885-18.576l-588.538-4.269
						C1376.59,2029.108,1368.986,2044.729,1371.636,2060.703z"/>
				</g>
				<g>
					
						<linearGradient id="SVGID_00000016758831876090180800000006693600340781964939_" gradientUnits="userSpaceOnUse" x1="1728.792" y1="268.1213" x2="1682.7743" y2="1157.8077">
						<stop  offset="0" style="stop-color:#4F52FF"/>
						<stop  offset="1" style="stop-color:#4042E2"/>
					</linearGradient>
					<path style="fill:url(#SVGID_00000016758831876090180800000006693600340781964939_);" d="M1638.993,1229.442v-204.373h38.023
						v171.103h52.701v33.27H1638.993z"/>
					
						<linearGradient id="SVGID_00000170987917112879714120000017081635137152569016_" gradientUnits="userSpaceOnUse" x1="1865.2593" y1="275.1805" x2="1819.2416" y2="1164.8672">
						<stop  offset="0" style="stop-color:#4F52FF"/>
						<stop  offset="1" style="stop-color:#4042E2"/>
					</linearGradient>
					<path style="fill:url(#SVGID_00000170987917112879714120000017081635137152569016_);" d="M1894.668,1126.976
						c0,33.829-6.339,59.83-19.011,78.003c-12.675,18.173-30.803,27.259-54.378,27.259c-23.673,0-41.846-9.062-54.518-27.189
						c-12.675-18.124-19.011-44.243-19.011-78.352c0-33.829,6.336-59.76,19.011-77.793c12.672-18.033,30.939-27.049,54.798-27.049
						c23.575,0,41.657,9.065,54.238,27.189C1888.378,1067.17,1894.668,1093.146,1894.668,1126.976z M1786.611,1126.976
						c0,23.299,2.936,41.053,8.807,53.26c5.871,12.211,14.489,18.313,25.861,18.313c22.926,0,34.388-23.855,34.388-71.572
						c0-47.714-11.372-71.572-34.109-71.572c-11.557,0-20.27,6.081-26.141,18.243
						C1789.546,1085.808,1786.611,1103.585,1786.611,1126.976z"/>
					
						<linearGradient id="SVGID_00000182529892589169080990000014146037883640689079_" gradientUnits="userSpaceOnUse" x1="2031.7877" y1="283.795" x2="1985.77" y2="1173.481">
						<stop  offset="0" style="stop-color:#4F52FF"/>
						<stop  offset="1" style="stop-color:#4042E2"/>
					</linearGradient>
					<path style="fill:url(#SVGID_00000182529892589169080990000014146037883640689079_);" d="M2021.178,1229.442l-11.742-51.582
						h-53.26l-11.742,51.582h-38.023l50.604-205.211h51.583l50.744,205.211H2021.178z M2002.306,1144.17l-10.904-47.528
						c-0.654-2.887-2.121-10.135-4.403-21.737c-2.286-11.603-3.659-19.361-4.124-23.275c-1.213,8.017-2.75,16.845-4.613,26.49
						c-1.866,9.646-6.71,31.662-14.538,66.051H2002.306z"/>
					
						<linearGradient id="SVGID_00000123427158057183957340000015433604817746858381_" gradientUnits="userSpaceOnUse" x1="2192.1436" y1="292.0891" x2="2146.1257" y2="1181.7753">
						<stop  offset="0" style="stop-color:#4F52FF"/>
						<stop  offset="1" style="stop-color:#4042E2"/>
					</linearGradient>
					<path style="fill:url(#SVGID_00000123427158057183957340000015433604817746858381_);" d="M2220.518,1229.442h-46.41
						l-63.185-148.037h-1.817c2.327,11.277,3.495,23.394,3.495,36.345v111.692h-35.227v-204.373h46.69l62.626,146.5h1.538
						c-1.772-9.785-2.656-21.433-2.656-34.948v-111.552h34.947V1229.442z"/>
				</g>
			</g>
			
				<linearGradient id="SVGID_00000056395170050230385400000018135636441328410268_" gradientUnits="userSpaceOnUse" x1="2191.2195" y1="297.7312" x2="1538.7977" y2="1155.9767">
				<stop  offset="0" style="stop-color:#09005D"/>
				<stop  offset="1" style="stop-color:#1A0F91"/>
			</linearGradient>
			<path style="fill:url(#SVGID_00000056395170050230385400000018135636441328410268_);" d="M2032.968,509.455
				c-51.235-35.644-95.785-34.937-127.146-25.684c-28.608,8.441-47.15,36.061-44.429,65.765l13.525,147.62l160.937,14.282
				C2035.855,711.439,2133.448,579.357,2032.968,509.455z M1962.194,628.548c-22.163,0-40.129-17.966-40.129-40.129
				c0-22.163,17.966-40.13,40.129-40.13c22.163,0,40.129,17.967,40.129,40.13C2002.323,610.582,1984.357,628.548,1962.194,628.548z"
				/>
			<path style="fill:#91B3FA;" d="M1890.994,635.058c-1.985,0-3.678-1.513-3.862-3.531l-2.154-23.509
				c-0.197-2.135,1.377-4.024,3.512-4.221c2.178-0.204,4.027,1.377,4.221,3.516l2.154,23.509c0.197,2.135-1.376,4.024-3.512,4.221
				C1891.231,635.055,1891.112,635.058,1890.994,635.058z M1886.773,588.988c-1.985,0-3.678-1.513-3.862-3.531l-1.637-17.847
				c-2.594-28.296,15.212-54.642,42.333-62.648c19.209-5.67,39-6.481,58.819-2.416c2.101,0.428,3.455,2.484,3.024,4.585
				c-0.43,2.097-2.467,3.44-4.583,3.023c-18.566-3.8-37.088-3.046-55.063,2.257c-23.576,6.959-39.053,29.877-36.798,54.494
				l1.636,17.847c0.197,2.135-1.377,4.024-3.512,4.221C1887.01,588.984,1886.891,588.988,1886.773,588.988z"/>
			
				<linearGradient id="SVGID_00000175291786550766891900000014688659857994485902_" gradientUnits="userSpaceOnUse" x1="2262.7852" y1="352.1321" x2="1610.3624" y2="1210.3788">
				<stop  offset="0" style="stop-color:#09005D"/>
				<stop  offset="1" style="stop-color:#1A0F91"/>
			</linearGradient>
			<path style="fill:url(#SVGID_00000175291786550766891900000014688659857994485902_);" d="M1655.268,792.556v-74.219
				c0-25.62,21.234-46.14,46.84-45.263l511.707,17.532c22.709,0.778,41.1,18.703,42.46,41.385l4.276,71.314L1655.268,792.556z"/>
			<path style="fill:#91B3FA;" d="M1846.071,701.039h-22.006c-2.145,0-3.884-1.737-3.884-3.883c0-2.147,1.739-3.884,3.884-3.884
				h22.006c2.145,0,3.884,1.737,3.884,3.884C1849.954,699.303,1848.215,701.039,1846.071,701.039z"/>
			<path style="fill:#91B3FA;" d="M1682.965,769.25c-2.144,0-3.883-1.737-3.883-3.884v-30.025c0-23.199,18.873-42.07,42.071-42.07
				h80.904c2.145,0,3.884,1.737,3.884,3.884c0,2.146-1.739,3.883-3.884,3.883h-80.904c-18.915,0-34.305,15.39-34.305,34.303v30.025
				C1686.848,767.514,1685.109,769.25,1682.965,769.25z"/>
			<path style="fill:#7D97F4;" d="M1446.769,811.297c1.235-25.701,22.432-45.904,48.162-45.905l894.816-0.024
				c32.175-0.001,59.682,23.153,65.171,54.857l0.757,4.375c6.011,34.726-20.724,66.487-55.967,66.487H1481.68
				c-21.091,0-37.899-17.635-36.886-38.701L1446.769,811.297z"/>
			
				<linearGradient id="SVGID_00000065763863457147075140000006262185173758321063_" gradientUnits="userSpaceOnUse" x1="2635.541" y1="2046.292" x2="1902.6204" y2="3191.6938">
				<stop  offset="0" style="stop-color:#4F52FF"/>
				<stop  offset="1" style="stop-color:#4042E2"/>
			</linearGradient>
			<path style="fill:url(#SVGID_00000065763863457147075140000006262185173758321063_);" d="M1877.741,2855.14
				c4.79-61.137,25.515-121.078,58.065-173.651c16.353-26.262,35.577-50.854,57.596-72.782c5.645-5.332,11.153-10.823,16.933-16.018
				c5.948-5.004,11.755-10.192,17.842-15.037c6.225-4.671,12.381-9.45,18.776-13.892l9.758-6.434l4.882-3.214l2.442-1.606
				c0.884-0.553,2.075-1.258,3.132-1.823c17.147-9.466,41.757-9.906,58.379,6.792c4.049,4.009,6.868,8.832,8.967,13.566
				c0.953,2.383,1.885,4.791,2.439,7.141c0.718,2.39,1.098,4.697,1.499,7.018c1.468,9.259,1.045,17.864,0.188,26.179
				c-0.438,4.153-1.114,8.227-1.841,12.198l-2.229,11.212c-1.427,7.488-3.098,14.924-4.733,22.366
				c-3.288,14.883-7.012,29.664-10.922,44.394c-15.911,58.843-36.982,116.288-63.041,171.371l-9.979,20.554
				c-3.492,6.769-6.899,13.582-10.463,20.312l-5.407,10.063l-2.704,5.031l-2.978,5.25c-4.121,6.986-8.725,13.768-14.086,20.219
				c-5.384,6.423-11.474,12.603-19.066,17.795c-7.52,5.133-17.005,9.301-27.528,9.813c-2.607,0.267-5.21-0.01-7.81-0.289
				c-2.639-0.139-5.053-0.995-7.556-1.584c-4.974-1.342-9.685-3.754-13.825-6.682c-8.34-5.912-14.329-14.098-18.041-22.919
				c-3.58-8.713-5.151-17.809-5.215-26.648c-0.107-8.841,1.218-17.259,3.033-25.2c1.854-7.964,4.154-15.414,6.695-22.707
				l3.744-11.004l4.217-10.826c11.308-28.85,26.27-56.142,43.75-81.594c17.416-25.523,37.984-48.8,60.626-69.734l4.232-3.942
				l4.41-3.745l8.833-7.466c3.006-2.413,6.095-4.725,9.139-7.089c3.065-2.336,6.061-4.762,9.266-6.911
				c6.32-4.415,12.571-8.92,19.17-12.914l4.885-3.085l2.443-1.541c0.435-0.267,0.751-0.491,1.284-0.793l1.611-0.9
				c4.347-2.287,9.101-3.816,14.013-4.333c9.775-1.154,20.333,1.756,27.937,8.694c3.915,3.454,7.055,8.401,8.482,13.491
				c1.505,5.115,1.453,10.026,1.014,14.452c-0.471,4.447-1.421,8.515-2.436,12.351l-3.062,10.96l-6.099,21.719
				c-8.067,28.975-16.46,57.863-24.682,86.796l-0.019,0.066l-12.701-2.27c0.946-9.736,3.567-19.57,8.94-28.399
				c2.737-4.381,6.075-8.442,10.278-11.818c4.202-3.436,9.077-5.836,14.217-7.359c5.163-1.446,10.683-1.969,16.211-1.056
				c2.751,0.449,5.505,1.22,8.097,2.44c1.322,0.549,2.55,1.306,3.786,2.038l2.561,1.61c6.217,3.498,13.975,4.156,20.351,1.346
				c1.613-0.643,3.091-1.563,4.493-2.578c0.666-0.557,1.38-1.054,1.976-1.7l0.965-0.937l1.157-1.234l9.255-9.871l18.51-19.743
				l18.509-19.743l9.255-9.872c2.274-2.396,5.535-4.502,9.165-5.229c3.626-0.771,7.39-0.256,10.593,1.199
				c3.212,1.454,5.988,3.83,7.881,6.935c1.9,3.093,2.726,6.98,2.294,10.533c-0.047,0.918-0.246,1.759-0.482,2.591
				c-0.21,0.791-0.504,1.824-0.66,2.202l-1.109,3.115l-2.099,6.271c-2.719,8.388-5.014,16.913-6.934,25.519
				c-1.904,8.61-3.415,17.307-4.5,26.057c-0.122,1.076-0.288,2.228-0.373,3.243l-0.08,2.673c-0.113,0.901,0.05,1.762,0.171,2.626
				c0.167,0.851,0.09,1.765,0.417,2.573c0.736,3.403,2.545,6.446,4.768,9.108c2.222,2.707,5.306,4.688,8.539,6.062
				c1.604,0.786,3.357,1.083,5.062,1.527c1.75,0.149,3.493,0.418,5.231,0.2c3.446-0.274,6.884-1.17,9.818-3.134l1.146-0.643
				l1.028-0.857l2.091-1.702l4.781-4.683c12.732-12.504,24.917-25.57,36.476-39.169c23.085-27.226,43.749-56.504,61.635-87.391
				l6.557-11.667l3.165-5.896l1.583-2.948l0.396-0.737c0.023-0.083-0.017-0.04,0.003-0.054c0.055-0.016-0.053,0.078-0.014,0.151
				c-0.018,0.497,0.199,0.595,0.145,0.55c0,0,0.094,0.065,0.295,0.043c0.196-0.042,0.461-0.092,0.459-0.131
				c0,0,0.007-0.004-0.028-0.003l-0.57,0.578l-1.139,1.157c-0.767,0.763-1.51,1.55-2.247,2.344
				c-1.495,1.566-2.924,3.196-4.353,4.823c-5.654,6.566-10.797,13.584-15.331,20.982c-2.265,3.7-4.389,7.487-6.366,11.349
				c-0.975,1.938-1.931,3.885-2.833,5.859l-1.328,2.97l-0.654,1.49l-0.43,1.335c-2.569,6.989-2.613,14.698,0.582,21.328
				c3.117,6.584,8.804,12.185,15.722,14.691c3.376,1.5,7.064,1.805,10.67,1.905c3.602-0.347,7.252-0.923,10.599-2.642l2.546-1.166
				l2.866-1.666c1.905-1.126,3.843-2.197,5.715-3.378c3.791-2.286,7.522-4.665,11.222-7.094
				c29.546-19.512,56.009-43.694,78.011-71.402l0.011-0.014c2.223-2.8,6.295-3.267,9.094-1.044c2.8,2.223,3.267,6.295,1.044,9.094
				c-22.877,28.812-50.353,53.911-81.025,74.168c-3.841,2.523-7.715,4.992-11.651,7.366c-1.944,1.225-3.955,2.339-5.933,3.508
				l-2.983,1.733l-3.586,1.694c-4.74,2.356-10.139,3.385-15.488,3.783c-5.365-0.036-10.835-0.658-15.781-2.769
				c-10.08-3.746-18.235-11.65-22.806-21.338c-4.696-9.701-4.666-21.459-0.958-31.276l0.645-1.873l0.705-1.608l1.434-3.206
				c0.973-2.129,2.005-4.231,3.057-6.322c2.133-4.168,4.425-8.254,6.87-12.248c4.894-7.985,10.448-15.567,16.566-22.672
				c1.546-1.762,3.094-3.523,4.712-5.221c0.797-0.859,1.603-1.711,2.434-2.54l1.235-1.253l0.617-0.626
				c0.397-0.361,0.839-0.736,1.275-1.082c1.785-1.366,4.197-2.428,6.671-2.509c2.454-0.126,4.803,0.496,6.778,1.597
				c3.894,2.12,6.81,6.673,6.42,11.716c-0.122,1.171-0.344,2.423-0.778,3.426c-0.199,0.505-0.444,1.074-0.652,1.505l-0.405,0.753
				l-1.617,3.013l-3.235,6.026l-6.702,11.925c-18.279,31.566-39.391,61.48-62.978,89.297c-11.81,13.895-24.26,27.245-37.271,40.024
				l-4.886,4.785l-3.131,2.599l-1.597,1.274l-1.78,1.055c-4.628,3.007-10.186,4.588-15.671,4.986
				c-2.774,0.287-5.516-0.035-8.253-0.351c-2.673-0.607-5.375-1.179-7.869-2.335c-5.022-2.119-9.72-5.226-13.296-9.467
				c-3.57-4.18-6.408-9.168-7.633-14.618c-0.45-1.325-0.459-2.722-0.688-4.085c-0.182-1.373-0.373-2.745-0.261-4.105l0.152-4.089
				l0.4-3.477c1.136-9.156,2.717-18.253,4.708-27.259c2.008-9.002,4.409-17.918,7.253-26.693l2.196-6.56l1.16-3.259
				c0.26-0.672,0.204-0.746,0.3-1.039c0.086-0.252,0.171-0.501,0.142-0.72c0.11-0.915-0.046-1.678-0.494-2.451
				c-0.458-0.758-1.254-1.455-2.15-1.849c-1.922-0.754-3.34-0.483-4.972,1.092l-9.255,9.872l-18.51,19.743l-18.51,19.743
				l-9.255,9.872l-1.157,1.234l-1.451,1.43c-0.961,0.996-2.074,1.832-3.154,2.701c-2.234,1.641-4.632,3.093-7.205,4.144
				c-10.26,4.472-22.321,3.372-31.786-1.988l-3.174-1.979c-0.715-0.399-1.393-0.858-2.168-1.158
				c-1.484-0.715-3.121-1.167-4.813-1.444c-3.39-0.575-7.058-0.256-10.57,0.725c-7.117,2.005-12.957,6.845-17.031,13.513
				c-4.046,6.619-6.298,14.642-7.075,22.818l-12.701-2.27l0.016-0.067c7.277-29.186,14.385-58.416,21.817-87.561l5.526-21.871
				l2.725-10.841c0.823-3.45,1.463-6.756,1.696-9.799c0.228-3.031,0.077-5.799-0.657-7.893c-0.717-2.118-1.794-3.725-3.541-5.222
				c-3.652-3.154-8.9-4.545-14.01-3.789c-2.561,0.329-5.073,1.236-7.335,2.504l-0.838,0.498l-1.094,0.72l-2.286,1.531l-4.572,3.06
				c-6.178,3.955-12.012,8.41-17.91,12.76c-2.994,2.115-5.781,4.506-8.636,6.803c-2.833,2.325-5.711,4.593-8.507,6.959l-8.203,7.317
				l-4.108,3.646l-3.958,3.812c-21.179,20.228-40.346,42.619-56.445,67.063c-16.164,24.372-29.894,50.39-40.097,77.734l-3.81,10.253
				l-3.35,10.407c-2.306,6.94-4.312,13.919-5.754,20.63c-2.974,13.432-3.074,26.326,1.493,36.823
				c2.192,4.977,5.593,9.265,9.62,11.978c2.019,1.357,4.118,2.425,6.434,2.941c2.34,0.597,4.608,0.961,6.901,0.727
				c4.547-0.257,9.434-2.158,14.267-5.5c4.824-3.334,9.429-7.947,13.635-13.076c4.212-5.151,8.054-10.873,11.518-16.866l2.547-4.581
				l2.594-4.925l5.189-9.849c3.419-6.587,6.682-13.254,10.032-19.876l9.558-20.107c24.818-53.924,45.247-109.874,60.59-167.203
				c3.765-14.35,7.352-28.747,10.512-43.241c1.571-7.249,3.18-14.489,4.547-21.779l2.141-10.917
				c0.614-3.426,1.162-6.776,1.499-10.104c0.684-6.608,0.881-13.184-0.074-18.794c-0.935-5.635-2.766-10.163-5.37-12.692
				c-1.202-1.439-2.857-2.335-4.699-3.295c-2.079-0.754-4.177-1.553-6.497-1.647c-4.558-0.408-9.596,0.662-14.098,3.078
				c-0.601,0.319-1.033,0.566-1.745,1.004l-2.277,1.482l-4.555,2.961l-9.116,5.916c-5.997,4.067-11.69,8.573-17.612,12.762
				c-5.764,4.4-11.271,9.142-16.932,13.691c-5.497,4.744-10.742,9.783-16.138,14.656c-20.905,20.214-39.835,42.6-56.103,66.875
				c-32.679,48.458-55.168,104.041-65.13,162.386c-0.596,3.529-3.939,5.906-7.467,5.311
				C1879.799,2861.474,1877.5,2858.436,1877.741,2855.14z"/>
		</g>
		<g>
			
				<linearGradient id="SVGID_00000131367061875900807290000012156271729602292897_" gradientUnits="userSpaceOnUse" x1="1196.3745" y1="903.1513" x2="1104.3375" y2="1501.3887">
				<stop  offset="0" style="stop-color:#4F52FF"/>
				<stop  offset="1" style="stop-color:#4042E2"/>
			</linearGradient>
			<path style="fill:url(#SVGID_00000131367061875900807290000012156271729602292897_);" d="M868.683,1681.815
				c14.968-20.133,59.745-21.072,95.045-47.387c2.623-1.955,5.455-3.624,8.414-5.02c63.125-29.782,127.026-19.85,174.057,9.571
				c0.151,0.094,0.297,0.199,0.435,0.311c35.118,28.493,78.096-13.336,138.906,24.157c1.345,0.829,2.509,1.806,1.632,3.121
				c-35.475,53.206-86.844,112.306-178.519,159.827c-1.363,0.706-3.002,0.661-4.325-0.117l-234.34-137.937
				C867.694,1686.991,867.095,1683.95,868.683,1681.815z"/>
			
				<linearGradient id="SVGID_00000071561632802579579330000000155360826013264313_" gradientUnits="userSpaceOnUse" x1="1369.457" y1="1999.1261" x2="933.1154" y2="3458.1443">
				<stop  offset="0" style="stop-color:#4F52FF"/>
				<stop  offset="1" style="stop-color:#4042E2"/>
			</linearGradient>
			<path style="fill:url(#SVGID_00000071561632802579579330000000155360826013264313_);" d="M980.11,1880.458
				c-276.268,151.306-493.296,691.434-451.59,1137.044c-39.403,251.188,1445.149,378.592,1180.763-323
				c-132.619-294.993-269.859-656.894-543.987-814.595L980.11,1880.458z"/>
			
				<linearGradient id="SVGID_00000162352145542483876650000014524187166447817614_" gradientUnits="userSpaceOnUse" x1="1454.3394" y1="1582.5786" x2="1073.7446" y2="2084.5701" gradientTransform="matrix(0.9506 -0.3105 0.2312 0.7079 -612.661 895.7326)">
				<stop  offset="0" style="stop-color:#4F52FF"/>
				<stop  offset="1" style="stop-color:#4042E2"/>
			</linearGradient>
			<path style="fill:url(#SVGID_00000162352145542483876650000014524187166447817614_);" d="M969.341,1874.961
				c-32.505-68.522-60.483-123.002-101.965-186.658c-0.451-0.804,0.311-1.73,1.192-1.458c42.176,13.035,85.922,5.241,154.53-14.135
				c0.095-0.027,0.188-0.069,0.271-0.122c38.798-24.996,83.139-16.509,129.34,3.218c0.065,0.028,0.135,0.049,0.205,0.063
				c49.875,9.951,66.841,18.495,133.304-11.001c0.899-0.399,1.778,0.596,1.263,1.434c-50.411,62.525-91.882,130.392-124.823,203.357
				c-0.196,0.28-0.158,0.621-0.101,0.958C1168.567,1906.244,973.569,1913.913,969.341,1874.961z"/>
			<g>
				
					<linearGradient id="SVGID_00000137826475842180258000000016152198689165347488_" gradientUnits="userSpaceOnUse" x1="1551.2526" y1="1259.3224" x2="983.7029" y2="2762.5605" gradientTransform="matrix(0.9949 0.1009 -0.1009 0.9949 380.7885 -300.273)">
					<stop  offset="0" style="stop-color:#FF928E"/>
					<stop  offset="1" style="stop-color:#FE7062"/>
				</linearGradient>
				<path style="fill:url(#SVGID_00000137826475842180258000000016152198689165347488_);" d="M1032.945,2909.956l-1.836-52.82
					c-55.14-0.291-110.057-11.395-149.33-26.984c-14.023-5.565-21.604-20.823-18.142-35.509l11.71-49.668
					c4.295-18.219,23.6-28.238,41.106-21.607c38.932,14.753,86.755,25.834,137.845,24.058c53.036-1.843,91.965-21.201,90.684-58.056
					c-1.156-33.261-32.406-51.972-106.806-69.184c-106.174-25.112-183.282-68.335-186.5-160.925
					c-2.906-83.604,56.006-149.552,161.485-170.316l-1.836-52.828c-0.591-16.997,12.71-31.256,29.707-31.847l31.035-1.079
					c16.997-0.591,31.257,12.71,31.848,29.708l1.649,47.43c51.024,0.268,88.416,7.692,118.21,17.013
					c15.265,4.773,24.071,20.732,20.424,36.306l-10.76,45.931c-4.147,17.714-22.567,27.976-39.795,22.136
					c-27.457-9.306-66.143-18.643-115.948-16.912c-62.927,2.187-79.997,28.876-79.184,52.251c1,28.765,39.441,47.229,122.117,69.56
					c118.083,30.993,168.312,77.848,171.343,165.044c2.781,80.007-54.049,153.986-168.486,175.965l2.055,59.113
					c0.591,16.999-12.71,31.258-29.707,31.849l-31.04,1.079C1047.795,2940.256,1033.536,2926.956,1032.945,2909.956z"/>
			</g>
			<path style="fill:#7D97F4;" d="M1058.579,1920.702c-24.07,0-67.323-2.227-92.826-16.768
				c-19.344-11.031-19.966-24.882-18.614-32.157c1.001-5.386,6.783-9.038,12.913-8.161c6.13,0.879,10.289,5.958,9.289,11.345
				c-0.375,2.017-1.253,6.742,8.659,12.394c16.104,9.183,49.972,14.354,88.399,13.498c37.44-0.835,71.992-7.354,88.023-16.606
				c5.744-3.315,8.382-6.422,7.842-9.232c-1.035-5.381,3.092-10.481,9.217-11.39c6.12-0.906,11.929,2.717,12.964,8.098
				c1.218,6.334,0.542,18.53-17.672,29.042c-19.884,11.476-57.194,18.895-99.804,19.844
				C1064.558,1920.664,1061.732,1920.702,1058.579,1920.702z"/>
		</g>
		<g>
			<g>
				
					<linearGradient id="SVGID_00000052789667364253627870000007368526662178279579_" gradientUnits="userSpaceOnUse" x1="3312.6763" y1="599.6917" x2="3087.6868" y2="1785.999">
					<stop  offset="0" style="stop-color:#FF928E"/>
					<stop  offset="1" style="stop-color:#FE7062"/>
				</linearGradient>
				<path style="fill:url(#SVGID_00000052789667364253627870000007368526662178279579_);" d="M3112.592,1591.754
					c-19.213,61.088-55.159,83.592-84.386,74.4c-29.884-9.397-44.37-48.254-27.172-104.089
					c17.246-54.848,51.918-83.629,84.76-73.303C3119.619,1499.4,3128.998,1539.586,3112.592,1591.754z M2990.583,1788.086
					l218.035-260.697l22.99,7.228l-218.039,260.696L2990.583,1788.086z M3032.463,1569.986c-10.843,33.34-9.687,60.652,6.403,65.71
					c16.095,5.063,31.263-15.646,42.339-50.87c10.098-32.106,11.663-60.031-5.742-65.504
					C3059.043,1514.158,3042.699,1537.436,3032.463,1569.986z M3221.854,1758.412c-19.068,60.638-54.828,83.691-84.386,74.397
					c-29.554-9.294-44.366-48.253-26.699-104.434c17.107-54.397,51.918-83.626,84.429-73.403
					C3229.025,1665.611,3238.262,1706.245,3221.854,1758.412z M3141.731,1736.642c-10.704,32.892-9.693,60.651,6.4,65.71
					c16.419,5.165,31.266-15.646,42.342-50.869c10.236-32.55,11.66-60.031-5.743-65.504
					C3168.308,1680.813,3151.966,1704.095,3141.731,1736.642z"/>
			</g>
			<g>
				
					<linearGradient id="SVGID_00000152973866703047176790000001207524405122551730_" gradientUnits="userSpaceOnUse" x1="3107.3174" y1="560.7435" x2="2882.3279" y2="1747.0504">
					<stop  offset="0" style="stop-color:#FF928E"/>
					<stop  offset="1" style="stop-color:#FE7062"/>
				</linearGradient>
				<path style="fill:url(#SVGID_00000152973866703047176790000001207524405122551730_);" d="M2886.276,1666.695h-36.359v-29.633
					h36.359v-53.395h28.201v53.395h36.362v29.633h-36.362v52.68h-28.201V1666.695z"/>
			</g>
		</g>
		<g>
			<g>
				<g>
					
						<linearGradient id="SVGID_00000091016948932137123090000015100611576070654622_" gradientUnits="userSpaceOnUse" x1="984.8627" y1="3229.9529" x2="1136.1141" y2="3229.9529" gradientTransform="matrix(-1 0 0 1 3708.0586 0)">
						<stop  offset="0" style="stop-color:#4F52FF"/>
						<stop  offset="1" style="stop-color:#4042E2"/>
					</linearGradient>
					<path style="fill:url(#SVGID_00000091016948932137123090000015100611576070654622_);" d="M2576.216,3222.637
						c25.911,2.24,70.881,5.878,106.334,7.438c21.311,0.938,33.581-1.149,40.646-3.978c-0.012,0.796-0.034,1.549-0.065,2.248
						c-0.168,3.73-3.199,6.715-6.967,6.925c-66.989,3.739-120.265,1.294-139.232,0.14c-3.922-0.239-6.259-4.501-4.253-7.844
						C2573.681,3225.895,2574.896,3224.257,2576.216,3222.637z"/>
					
						<linearGradient id="SVGID_00000026135601249385721690000000900504539973711511_" gradientUnits="userSpaceOnUse" x1="984.8541" y1="3200.3096" x2="1131.843" y2="3200.3096" gradientTransform="matrix(-1 0 0 1 3708.0586 0)">
						<stop  offset="0" style="stop-color:#09005D"/>
						<stop  offset="1" style="stop-color:#1A0F91"/>
					</linearGradient>
					<path style="fill:url(#SVGID_00000026135601249385721690000000900504539973711511_);" d="M2682.549,3230.075
						c-35.453-1.561-80.423-5.199-106.334-7.438c25.475-31.255,106.334-52.321,106.334-52.321h22.837
						c15.707,22.641,17.981,44.198,17.809,55.782C2716.13,3228.927,2703.861,3231.013,2682.549,3230.075z"/>
					
						<linearGradient id="SVGID_00000008854265777823817840000004892170940157080497_" gradientUnits="userSpaceOnUse" x1="998.8269" y1="3158.9233" x2="1041.4309" y2="3158.9233" gradientTransform="matrix(-1 0 0 1 3708.0586 0)">
						<stop  offset="0" style="stop-color:#FEBBBA"/>
						<stop  offset="1" style="stop-color:#FF928E"/>
					</linearGradient>
					<path style="fill:url(#SVGID_00000008854265777823817840000004892170940157080497_);" d="M2709.232,3133.033l-2.137,42.29
						c-0.231,4.579-3.659,8.428-8.246,9.083c-4.563,0.653-10.674,0.736-17.155-1.421c-3.987-1.327-6.947-4.686-7.682-8.784
						l-7.385-41.168H2709.232z"/>
				</g>
				<g>
					<g>
						
							<linearGradient id="SVGID_00000068645122542855324980000005573617830947247525_" gradientUnits="userSpaceOnUse" x1="683.3301" y1="3226.6907" x2="741.2923" y2="3226.6907" gradientTransform="matrix(-1 0 0 1 3708.0586 0)">
							<stop  offset="0" style="stop-color:#4F52FF"/>
							<stop  offset="1" style="stop-color:#4042E2"/>
						</linearGradient>
						<path style="fill:url(#SVGID_00000068645122542855324980000005573617830947247525_);" d="M3005.854,3229.758
							c11.237-1.567,16.321-7.404,18.453-13.645c0.014,0.056,0.028,0.112,0.042,0.168c1.653,6.583-2.179,13.405-9.841,16.65
							c-9.261,3.921-19.387,4.59-27.248,4.266c-8.434-0.348-16.175-3.838-20.43-9.423l-0.064-0.084
							C2975.232,3231.878,2987.115,3232.372,3005.854,3229.758z"/>
						
							<linearGradient id="SVGID_00000006693407449227014470000015214262388699697307_" gradientUnits="userSpaceOnUse" x1="683.7515" y1="3182.0618" x2="768.8287" y2="3182.0618" gradientTransform="matrix(-1 0 0 1 3708.0586 0)">
							<stop  offset="0" style="stop-color:#09005D"/>
							<stop  offset="1" style="stop-color:#1A0F91"/>
						</linearGradient>
						<path style="fill:url(#SVGID_00000006693407449227014470000015214262388699697307_);" d="M2952.875,3132.762h18.834
							c28.687-0.586,46.701,59.92,52.598,83.351c-2.132,6.24-7.216,12.077-18.453,13.645c-18.739,2.614-30.622,2.121-39.088-2.068
							c-15.498-20.394-23.181-50.264-26.875-67.696C2935.691,3140.167,2952.875,3132.762,2952.875,3132.762z"/>
					</g>
					
						<linearGradient id="SVGID_00000023275716022672055570000015426463554011388808_" gradientUnits="userSpaceOnUse" x1="727.9733" y1="3123.4067" x2="778.8899" y2="3123.4067" gradientTransform="matrix(-1 0 0 1 3708.0586 0)">
						<stop  offset="0" style="stop-color:#FEBBBA"/>
						<stop  offset="1" style="stop-color:#FF928E"/>
					</linearGradient>
					<path style="fill:url(#SVGID_00000023275716022672055570000015426463554011388808_);" d="M2969.288,3093.51l10.458,41.594
						c1.282,5.1-1.159,10.375-5.874,12.794c-5.851,3.002-14.087,6.157-21.657,5.244c-3.56-0.429-6.517-2.937-7.693-6.289
						l-15.354-43.762L2969.288,3093.51z"/>
				</g>
				
					<linearGradient id="SVGID_00000178887032517924392300000003137876747974527617_" gradientUnits="userSpaceOnUse" x1="1121.6726" y1="2654.2783" x2="558.0563" y2="3475.6711" gradientTransform="matrix(-1 0 0 1 3708.0586 0)">
					<stop  offset="0" style="stop-color:#4F52FF"/>
					<stop  offset="1" style="stop-color:#4042E2"/>
				</linearGradient>
				<path style="fill:url(#SVGID_00000178887032517924392300000003137876747974527617_);" d="M2981.763,3105.532
					c-13.011,11.542-55.332,13.065-55.332,13.065c-152.446-365.886-214.807-417.865-214.807-417.865
					c22.012,138.102,3.549,443.843,3.549,443.843c-25.156,11.101-57.589,0-57.589,0c-2.043-226.092-36.795-423.264-77.848-578.712
					c103.035-2.316,157.828-37.574,175.72-51.725C2841.342,2652.605,2981.763,3105.532,2981.763,3105.532z"/>
				
					<linearGradient id="SVGID_00000112605748785342360180000016760447282565346189_" gradientUnits="userSpaceOnUse" x1="3260.3521" y1="-3399.9436" x2="3044.4536" y2="-2838.6072" gradientTransform="matrix(-1 0 0 1 3708.0586 0)">
					<stop  offset="0" style="stop-color:#FF928E"/>
					<stop  offset="1" style="stop-color:#FE7062"/>
				</linearGradient>
				<path style="fill:url(#SVGID_00000112605748785342360180000016760447282565346189_);" d="M2729.288,2093.368
					c19.502,97.278,12.513,271.387,7.922,350.804c-1.29,22.315,14.283,53.249,26.876,74.359c1.971,3.304,0.782,7.56-2.639,9.319
					c-21.031,10.811-92.341,44.354-175.036,48.6c-5.638,0.29-10.728-3.375-12.188-8.828
					c-52.458-195.864-112.15-331.33-128.442-366.67c-2.702-5.861-2.124-12.75,1.634-17.996
					C2530.216,2067.347,2729.288,2093.368,2729.288,2093.368z"/>
				
					<linearGradient id="SVGID_00000012441312647646575270000005325061127630713514_" gradientUnits="userSpaceOnUse" x1="2814.0781" y1="2328.4744" x2="2702.72" y2="2589.8257">
					<stop  offset="0" style="stop-color:#4F52FF"/>
					<stop  offset="1" style="stop-color:#4042E2"/>
				</linearGradient>
				<path style="fill:url(#SVGID_00000012441312647646575270000005325061127630713514_);" d="M2701.221,2692.071
					c0.866,0,1.743-0.234,2.537-0.715c2.301-1.407,3.03-4.406,1.631-6.703c-0.82-1.35-20.54-33.222-60.444-52.475
					c-2.424-1.163-5.345-0.157-6.52,2.274c-1.17,2.427-0.152,5.349,2.276,6.518c37.201,17.95,56.161,48.456,56.349,48.761
					C2697.97,2691.236,2699.576,2692.071,2701.221,2692.071z"/>
				<g>
					
						<linearGradient id="SVGID_00000061447835962901844470000018010609178462418063_" gradientUnits="userSpaceOnUse" x1="961.2456" y1="2381.2314" x2="779.9914" y2="2541.7358" gradientTransform="matrix(-1 0 0 1 3708.0586 0)">
						<stop  offset="0" style="stop-color:#FEBBBA"/>
						<stop  offset="1" style="stop-color:#FF928E"/>
					</linearGradient>
					<path style="fill:url(#SVGID_00000061447835962901844470000018010609178462418063_);" d="M2851.616,2372.555
						c-6.264,45.317-24.772,94.747-61.797,147.251l-14.075-11.473c0,0,16.248-65.92,7.011-140.733
						C2805.594,2363.144,2832.568,2367.737,2851.616,2372.555z"/>
					
						<linearGradient id="SVGID_00000119812525924293072580000005461431183657065606_" gradientUnits="userSpaceOnUse" x1="3120.9573" y1="-3453.563" x2="2905.0581" y2="-2892.2246" gradientTransform="matrix(-1 0 0 1 3708.0586 0)">
						<stop  offset="0" style="stop-color:#FF928E"/>
						<stop  offset="1" style="stop-color:#FE7062"/>
					</linearGradient>
					<path style="fill:url(#SVGID_00000119812525924293072580000005461431183657065606_);" d="M2707.505,2213.396l21.783-120.028
						c0,0,145.541,111.25,122.327,279.186c-19.047-4.818-46.022-9.41-68.86-4.955
						C2776.101,2313.708,2756.226,2255.202,2707.505,2213.396z"/>
				</g>
				<g>
					
						<linearGradient id="SVGID_00000015356423439572781070000013553715573262927537_" gradientUnits="userSpaceOnUse" x1="4826.6089" y1="-5679.8438" x2="4610.7134" y2="-5118.5146" gradientTransform="matrix(-0.8934 0.4493 0.4493 0.8934 2528.9194 -957.1472)">
						<stop  offset="0" style="stop-color:#FF928E"/>
						<stop  offset="1" style="stop-color:#FE7062"/>
					</linearGradient>
					<path style="fill:url(#SVGID_00000015356423439572781070000013553715573262927537_);" d="M2446.971,2202.769l134.332,146.749
						c24.704,69.338,3.839,115.184-28.517,145.016c-17.315-28.556-36.918-48.802-52.256-61.913
						C2523.75,2358.468,2446.971,2202.769,2446.971,2202.769z"/>
					
						<linearGradient id="SVGID_00000080207039271972767160000001482897784363661735_" gradientUnits="userSpaceOnUse" x1="1529.4658" y1="3063.5115" x2="1679.6106" y2="3063.5115" gradientTransform="matrix(-0.8934 0.4493 0.4493 0.8934 2528.9194 -957.1472)">
						<stop  offset="0" style="stop-color:#FEBBBA"/>
						<stop  offset="1" style="stop-color:#FF928E"/>
					</linearGradient>
					<path style="fill:url(#SVGID_00000080207039271972767160000001482897784363661735_);" d="M2500.531,2432.621
						c15.337,13.111,34.941,33.357,52.256,61.913c-81.168,89.844-138.766,58.26-138.766,58.26l-3.002-13.517
						c-2.662-11.984,2.924-24.417,13.839-30.033C2461.365,2490.459,2492.064,2459.66,2500.531,2432.621z"/>
				</g>
				
					<linearGradient id="SVGID_00000134245238185695730750000007276761550167515016_" gradientUnits="userSpaceOnUse" x1="1162.2762" y1="2014.9456" x2="1160.7172" y2="2281.5122" gradientTransform="matrix(-1 0 0 1 3708.0586 0)">
					<stop  offset="0" style="stop-color:#FEBBBA"/>
					<stop  offset="1" style="stop-color:#FF928E"/>
				</linearGradient>
				<path style="fill:url(#SVGID_00000134245238185695730750000007276761550167515016_);" d="M2493.243,2042.434l27.121,99.701
					c3.047,11.2,15.162,17.215,25.94,12.906c11.631-4.649,26.387-10.996,39.091-17.855c13.56-7.321,17.802-24.763,9.219-37.562
					l-56.387-84.076L2493.243,2042.434z"/>
			</g>
			<g>
				
					<linearGradient id="SVGID_00000157287196376826141960000011246225035286121348_" gradientUnits="userSpaceOnUse" x1="880.6713" y1="3615.0486" x2="749.455" y2="3788.637" gradientTransform="matrix(-0.9897 -0.1428 -0.1428 0.9897 3847.1133 -1480.9402)">
					<stop  offset="0" style="stop-color:#FEBBBA"/>
					<stop  offset="1" style="stop-color:#FF928E"/>
				</linearGradient>
				<path style="fill:url(#SVGID_00000157287196376826141960000011246225035286121348_);" d="M2433.907,1966.685
					c-0.247,1.712,22.621,113.775,22.621,113.775l63.709-14.417l-5.895-109.432
					C2514.343,1956.61,2438.044,1938.022,2433.907,1966.685z"/>
				
					<linearGradient id="SVGID_00000057122365678526016640000007249543469916106649_" gradientUnits="userSpaceOnUse" x1="780.4594" y1="3656.9221" x2="937.1989" y2="3656.9221" gradientTransform="matrix(-0.9897 -0.1428 -0.1428 0.9897 3847.1133 -1480.9402)">
					<stop  offset="0" style="stop-color:#09005D"/>
					<stop  offset="1" style="stop-color:#1A0F91"/>
				</linearGradient>
				<path style="fill:url(#SVGID_00000057122365678526016640000007249543469916106649_);" d="M2500.014,1980.996l7.614,57.364
					c0.097,0.736,0.096,1.462-0.008,2.197c-0.643,4.497-3.988,19.805-19.44,15.427c-14.022-3.972-26.878-7.388-35.759-4.672
					c-3.987,1.219-6.393,5.258-5.558,9.343c2.081,10.181,7.192,33.037,14.664,52.216c1.516,3.892,5.778,5.936,9.788,4.767
					c12.083-3.522,37.358-11.664,56.157-22.978c2.548-1.533,4.065-4.304,3.939-7.274c-0.611-14.482-2.305-58.502-0.879-70.842
					c1.338-11.583,15.552-18.521,21.729-21.009c2.025-0.816,3.612-2.411,4.421-4.438c2.86-7.167,6.803-23.751-14.097-30.547
					c-4.374-1.422-6.679-6.138-5.125-10.467c3.096-8.618,4.401-21.769-11.768-29.015c-16.433-7.365-28.707,1.396-35.333,8.515
					c-2.679,2.879-6.979,3.317-10.304,1.217c-1.892-1.196-4.331-1.589-7.277,0.247c-3.969,2.473-9.226,0.787-11.275-3.417
					c-3.936-8.077-11.956-16.73-28.045-13.975c-28.548,4.889-31.782,36.525-24.25,55.063c7.531,18.539,38.182,11.478,53.558,2.132
					c11.691-7.106,26.856,0.342,33.453,4.321C2498.31,1976.43,2499.693,1978.576,2500.014,1980.996z"/>
				
					<linearGradient id="SVGID_00000049942400131772025160000000608403626211438980_" gradientUnits="userSpaceOnUse" x1="688.4913" y1="3752.5166" x2="793.7369" y2="3644.5374" gradientTransform="matrix(-0.9897 -0.1428 -0.1428 0.9897 3847.1133 -1480.9402)">
					<stop  offset="0" style="stop-color:#FEBBBA"/>
					<stop  offset="1" style="stop-color:#FF928E"/>
				</linearGradient>
				<path style="fill:url(#SVGID_00000049942400131772025160000000608403626211438980_);" d="M2533.097,2037.458
					c0,0-11.737-32.865,0.322-40.914c12.058-8.049,29.917-3.87,25.984,19.938
					C2554.512,2046.097,2533.097,2037.458,2533.097,2037.458z"/>
			</g>
			<g>
				<g>
					
						<linearGradient id="SVGID_00000124859090573828088120000008180781070902265989_" gradientUnits="userSpaceOnUse" x1="2547.0659" y1="2794.0757" x2="1092.9364" y2="3854.8379" gradientTransform="matrix(-0.5796 0.8149 0.8149 0.5796 1372.4374 -1078.8499)">
						<stop  offset="0" style="stop-color:#09005D"/>
						<stop  offset="1" style="stop-color:#1A0F91"/>
					</linearGradient>
					<path style="fill:url(#SVGID_00000124859090573828088120000008180781070902265989_);" d="M3150.015,2051.958l-871.607,610.332
						l89.325,128.616l879.523-604.277c18.68-12.835,25.413-37.197,16.063-57.843c-9.604-21.207-28.733-48.549-66.709-76.387
						C3182.802,2042.278,3164.038,2042.139,3150.015,2051.958z"/>
					<g>
						
							<linearGradient id="SVGID_00000132776505955028157970000016738493940528944809_" gradientUnits="userSpaceOnUse" x1="2598.0554" y1="3030.1677" x2="2789.592" y2="2863.6782" gradientTransform="matrix(-0.5796 0.8149 0.8149 0.5796 1372.4374 -1078.8499)">
							<stop  offset="0" style="stop-color:#09005D"/>
							<stop  offset="1" style="stop-color:#1A0F91"/>
						</linearGradient>
						<path style="fill:url(#SVGID_00000132776505955028157970000016738493940528944809_);" d="M2067.618,2892.969l94.118-102.998
							c15.448,11.166,31.925,30.544,42.733,64.156l-129.199,50.029C2068.411,2906.812,2062.656,2898.399,2067.618,2892.969z"/>
						
							<linearGradient id="SVGID_00000003812502581426909850000017436776205548134313_" gradientUnits="userSpaceOnUse" x1="2765.5161" y1="2785.804" x2="2056.3364" y2="3514.6289" gradientTransform="matrix(-0.5796 0.8149 0.8149 0.5796 1372.4374 -1078.8499)">
							<stop  offset="0" style="stop-color:#FEBBBA"/>
							<stop  offset="1" style="stop-color:#FF928E"/>
						</linearGradient>
						<path style="fill:url(#SVGID_00000003812502581426909850000017436776205548134313_);" d="M2278.408,2662.29
							c78.922,48.345,89.325,128.616,89.325,128.616l-163.264,63.22c-10.809-33.612-27.286-52.99-42.733-64.156L2278.408,2662.29z"
							/>
					</g>
				</g>
				<path style="fill:#7D97F4;" d="M3179.625,2088.279c0.704-0.99,0.748-2.353,0.008-3.402c-0.934-1.332-2.773-1.651-4.103-0.715
					l-832.139,585.173c-1.333,0.941-1.653,2.776-0.715,4.103c0.935,1.332,2.773,1.651,4.103,0.715l832.14-585.173
					C3179.2,2088.781,3179.437,2088.544,3179.625,2088.279z"/>
				<path style="fill:#7D97F4;" d="M3217.14,2135.264c0.704-0.99,0.748-2.353,0.008-3.402c-0.935-1.332-2.774-1.651-4.103-0.715
					l-832.142,585.171c-1.333,0.941-1.654,2.772-0.715,4.104c0.935,1.332,2.773,1.651,4.103,0.715l832.142-585.171
					C3216.715,2135.767,3216.952,2135.529,3217.14,2135.264z"/>
			</g>
			
				<linearGradient id="SVGID_00000110468325712883444300000012235352261283811970_" gradientUnits="userSpaceOnUse" x1="1032.8231" y1="2462.0623" x2="851.5689" y2="2622.5669" gradientTransform="matrix(-1 0 0 1 3708.0586 0)">
				<stop  offset="0" style="stop-color:#FEBBBA"/>
				<stop  offset="1" style="stop-color:#FF928E"/>
			</linearGradient>
			<path style="fill:url(#SVGID_00000110468325712883444300000012235352261283811970_);" d="M2781.548,2506.334l-65.698-5.354
				l-28.452,26.228c0,0,6.731,9.304,27.775,3.956c21.045-5.348,49.872-6.66,49.872-6.66s29.052,13.097,29.406-11.409
				L2781.548,2506.334z"/>
			
				<linearGradient id="SVGID_00000035505142851975154410000010886326470219484034_" gradientUnits="userSpaceOnUse" x1="1264.8871" y1="2544.436" x2="1316.0054" y2="2544.436" gradientTransform="matrix(-1 0 0 1 3708.0586 0)">
				<stop  offset="0" style="stop-color:#FEBBBA"/>
				<stop  offset="1" style="stop-color:#FF928E"/>
			</linearGradient>
			<path style="fill:url(#SVGID_00000035505142851975154410000010886326470219484034_);" d="M2436.374,2568.722
				c-5.681,4.439-25.147-4.828-37.059-11.235c-5.806-3.123-8.617-9.911-6.624-16.194c2.866-9.04,7.643-20.709,13.528-22.18
				C2415.983,2516.672,2459.788,2550.43,2436.374,2568.722z"/>
		</g>
	</g>
</g>
</svg>
