<svg width="20" height="21" viewBox="0 0 20 21" fill="none" xmlns="http://www.w3.org/2000/svg">
<g clip-path="url(#clip0_211_2276)">
<path fill-rule="evenodd" clip-rule="evenodd" d="M11.9883 10.7779C11.8734 10.4529 11.6606 10.1715 11.3791 9.97247C11.0976 9.77345 10.7614 9.66661 10.4166 9.66667V9.25H9.58329V9.66667C9.14127 9.66667 8.71734 9.84226 8.40478 10.1548C8.09222 10.4674 7.91663 10.8913 7.91663 11.3333C7.91663 11.7754 8.09222 12.1993 8.40478 12.5118C8.71734 12.8244 9.14127 13 9.58329 13V14.6667C9.22079 14.6667 8.91204 14.4354 8.79704 14.1112C8.77998 14.0582 8.75246 14.0091 8.7161 13.9669C8.67974 13.9247 8.63528 13.8902 8.58536 13.8655C8.53544 13.8408 8.48106 13.8263 8.42545 13.8229C8.36984 13.8196 8.31412 13.8274 8.26159 13.846C8.20906 13.8645 8.16079 13.8935 8.11962 13.931C8.07846 13.9685 8.04524 14.014 8.02194 14.0646C7.99863 14.1152 7.98571 14.1699 7.98394 14.2256C7.98217 14.2813 7.99158 14.3368 8.01163 14.3888C8.12651 14.7138 8.33935 14.9952 8.62082 15.1942C8.9023 15.3932 9.23856 15.5001 9.58329 15.5V15.9167H10.4166V15.5C10.8587 15.5 11.2826 15.3244 11.5951 15.0118C11.9077 14.6993 12.0833 14.2754 12.0833 13.8333C12.0833 13.3913 11.9077 12.9674 11.5951 12.6548C11.2826 12.3423 10.8587 12.1667 10.4166 12.1667V10.5C10.589 10.5 10.7571 10.5533 10.8978 10.6528C11.0385 10.7523 11.145 10.8929 11.2025 11.0554C11.2393 11.1596 11.3159 11.2449 11.4157 11.2926C11.465 11.3162 11.5186 11.3299 11.5732 11.3328C11.6278 11.3357 11.6825 11.3278 11.7341 11.3096C11.7857 11.2914 11.8332 11.2632 11.8739 11.2266C11.9146 11.19 11.9477 11.1458 11.9713 11.0964C11.9949 11.047 12.0086 10.9935 12.0115 10.9388C12.0144 10.8842 12.0065 10.8295 11.9883 10.7779ZM9.58329 10.5C9.36228 10.5 9.15032 10.5878 8.99404 10.7441C8.83776 10.9004 8.74996 11.1123 8.74996 11.3333C8.74996 11.5543 8.83776 11.7663 8.99404 11.9226C9.15032 12.0789 9.36228 12.1667 9.58329 12.1667V10.5ZM10.4166 14.6667C10.6376 14.6667 10.8496 14.5789 11.0059 14.4226C11.1622 14.2663 11.25 14.0543 11.25 13.8333C11.25 13.6123 11.1622 13.4004 11.0059 13.2441C10.8496 13.0878 10.6376 13 10.4166 13V14.6667Z" fill="#292D32"/>
<path fill-rule="evenodd" clip-rule="evenodd" d="M5.48037 4.09208C6.50287 3.59167 8.18037 3 10.0162 3C11.8137 3 13.447 3.56708 14.4641 4.06083L14.5216 4.08875C14.8283 4.24042 15.0758 4.38375 15.25 4.5L13.7108 6.75C17.2591 10.3775 20 17.9988 10.0162 17.9988C0.0324512 17.9988 2.69953 10.5158 6.2787 6.75L4.74953 4.5C4.86745 4.42292 5.01703 4.33333 5.19537 4.23833C5.2837 4.19083 5.3787 4.14181 5.48037 4.09208ZM12.7216 6.72042L13.9537 4.91917C12.8079 5.00167 11.4445 5.27083 10.132 5.65083C9.19453 5.92167 8.15287 5.88042 7.18828 5.7025C6.9452 5.65749 6.7038 5.60385 6.46453 5.54167L7.26453 6.71958C8.97912 7.33 11.0066 7.33 12.7216 6.72042ZM6.78328 7.42917C8.78953 8.20417 11.2008 8.20417 13.207 7.42833C14.0443 8.3113 14.7448 9.31447 15.2854 10.4046C15.8487 11.5538 16.1554 12.7025 16.1054 13.6925C16.057 14.6479 15.6812 15.4642 14.8229 16.0708C13.9283 16.7029 12.4237 17.1654 10.0158 17.1654C7.60537 17.1654 6.0937 16.7108 5.19078 16.0858C4.3262 15.4871 3.94662 14.6817 3.89287 13.7392C3.83662 12.76 4.13662 11.6171 4.69787 10.46C5.23328 9.35667 5.98037 8.29458 6.78328 7.42917ZM6.30412 4.63167C6.63745 4.73083 6.98578 4.81708 7.33912 4.8825C8.23495 5.0475 9.13328 5.07167 9.89995 4.84958C10.7933 4.58921 11.702 4.38451 12.6208 4.23667C11.8541 4.00583 10.9575 3.83333 10.0158 3.83333C8.58037 3.83333 7.24162 4.23375 6.30412 4.63167Z" fill="#292D32"/>
</g>
<defs>
<clipPath id="clip0_211_2276">
<rect width="20" height="20" fill="white" transform="translate(0 0.5)"/>
</clipPath>
</defs>
</svg>
