<svg width="12" height="12" viewBox="0 0 12 12" fill="none" xmlns="http://www.w3.org/2000/svg">
<path d="M6.00033 0.166992C2.78616 0.166992 0.166992 2.78616 0.166992 6.00033C0.166992 9.21449 2.78616 11.8337 6.00033 11.8337C9.21449 11.8337 11.8337 9.21449 11.8337 6.00033C11.8337 2.78616 9.21449 0.166992 6.00033 0.166992ZM8.33366 6.43783H6.43783V8.33366C6.43783 8.57283 6.23949 8.77116 6.00033 8.77116C5.76116 8.77116 5.56283 8.57283 5.56283 8.33366V6.43783H3.66699C3.42783 6.43783 3.22949 6.23949 3.22949 6.00033C3.22949 5.76116 3.42783 5.56283 3.66699 5.56283H5.56283V3.66699C5.56283 3.42783 5.76116 3.22949 6.00033 3.22949C6.23949 3.22949 6.43783 3.42783 6.43783 3.66699V5.56283H8.33366C8.57283 5.56283 8.77116 5.76116 8.77116 6.00033C8.77116 6.23949 8.57283 6.43783 8.33366 6.43783Z" fill="white"/>
</svg>
