<?xml version="1.0" encoding="utf-8"?>
<!-- Generator: Adobe Illustrator 27.5.0, SVG Export Plug-In . SVG Version: 6.00 Build 0)  -->
<svg version="1.1" xmlns="http://www.w3.org/2000/svg" xmlns:xlink="http://www.w3.org/1999/xlink" x="0px" y="0px"
	 viewBox="0 0 1122 1122" style="enable-background:new 0 0 1122 1122;" xml:space="preserve">
<g id="BG">
	<rect style="fill:#FFFFFF;stroke:#272525;stroke-miterlimit:10;" width="1122" height="1122"/>
</g>
<g id="Objects">
	<g>
		<g>
			<g id="XMLID_18_">
				<g>
					<path style="fill:#475993;" d="M836,668.181c0,1.011-0.03,2.022-0.06,3.004c0.06-2.468,0.03-4.907-0.06-7.346
						C835.97,665.266,836,666.723,836,668.181z"/>
					<path style="fill:#475993;" d="M835.732,711.689c0.179,2.349,0.268,4.699,0.268,7.078c0,2.379-0.089,4.729-0.268,7.078V711.689
						z"/>
					<path style="fill:#475993;" d="M835.881,663.839c0.089,2.439,0.119,4.877,0.06,7.346c0,0.179,0,0.357,0,0.535
						c-0.06,1.19-0.119,2.349-0.208,3.539v-13.264h0.06v0.03C835.851,662.619,835.881,663.244,835.881,663.839z"/>
					<path style="fill:#475993;" d="M835.732,661.103c0.03,0.298,0.03,0.595,0.06,0.892h-0.06V661.103z"/>
					<path style="fill:#3E517F;" d="M711.065,806.855c7.762-3.033,19.658-8.178,33.13-15.524c2.379-1.308,4.788-2.647,7.256-4.074
						c10.914-6.275,20.966-13.085,30.037-20.371c0.268-0.238,0.506-0.446,0.773-0.624c15.762-12.639,30.691-28.104,41.367-46.661
						c7.613-13.204,11.182-27.836,12.104-42.706v34.795v14.156c-0.476,6.84-1.665,13.591-3.45,20.193c0,0,0,0.03-0.03,0.059
						c-5.175,15.137-13.204,32.059-25.725,47.107c-0.922,1.13-1.903,2.23-2.914,3.331c-0.119,0.178-0.268,0.357-0.446,0.505
						c-21.888,24.148-57.397,43.985-79.91,55.048c-0.03,0.03-0.089,0.03-0.148,0.06c-4.075,1.814-8.238,3.539-12.491,5.204v-50.319
						C710.767,806.974,710.916,806.915,711.065,806.855z"/>
					<path style="fill:#475993;" d="M835.732,676.894c-0.922,14.87-4.491,29.501-12.104,42.706
						c-10.676,18.558-25.606,34.022-41.367,46.661c25.873-21.026,43.628-45.829,50.527-72.772c1.546-5.978,2.527-12.044,2.944-18.23
						V676.894z"/>
					<path style="fill:#475993;" d="M806.528,793.205c12.52-15.048,20.55-31.97,25.725-47.107
						C827.613,762.782,818.84,778.633,806.528,793.205z"/>
					<path style="fill:#475993;" d="M803.614,796.536c1.011-1.101,1.993-2.201,2.914-3.331
						C805.606,794.335,804.625,795.435,803.614,796.536z"/>
					<path style="fill:#898684;" d="M805.636,657.742v12.55c0-2.171-0.625-4.283-1.814-6.245
						C805.011,662.054,805.636,659.943,805.636,657.742z"/>
					<path style="fill:#9B9894;" d="M805.636,657.742c0-2.171-0.625-4.253-1.814-6.215c0-0.03,0-0.03,0-0.03
						c1.16-1.963,1.784-4.015,1.814-6.156V657.742z"/>
					<path style="fill:#B7B3AC;" d="M805.636,635.2v10.022c0-1.725-0.387-3.39-1.16-4.996
						C805.249,638.62,805.636,636.924,805.636,635.2z"/>
					<path style="fill:#B7B3AC;" d="M803.822,651.497c-1.071-1.784-2.587-3.45-4.461-4.996c1.16-0.952,2.171-1.963,3.003-2.974
						l3.271,1.814C805.606,647.482,804.982,649.534,803.822,651.497z"/>
					<path style="fill:#B7B3AC;" d="M805.636,645.341l-3.271-1.814c0.892-1.07,1.576-2.171,2.112-3.301
						c0.773,1.606,1.16,3.272,1.16,4.996C805.636,645.252,805.636,645.311,805.636,645.341z"/>
					<path style="fill:#CBC6BD;" d="M776.194,621.817v-6.9c4.312,0.654,8.297,1.636,11.896,2.915
						c4.996,2.974,9.814,6.067,14.453,9.249c1.993,2.528,3.093,5.234,3.093,8.119c0,1.725-0.387,3.42-1.16,5.026
						c-0.535,1.13-1.219,2.231-2.112,3.301l-26.171-14.453V621.817z"/>
					<path style="fill:#9B9894;" d="M797.725,657.772c2.647-1.903,4.729-4.015,6.097-6.245c1.189,1.963,1.814,4.045,1.814,6.215
						c0,2.201-0.625,4.312-1.814,6.305C802.454,661.757,800.372,659.646,797.725,657.772z"/>
					<path style="fill:#898684;" d="M794.156,672.433c4.401-2.32,7.762-5.204,9.666-8.386c1.189,1.963,1.814,4.074,1.814,6.245
						c0,0.892-0.089,1.725-0.297,2.558c-0.417,1.844-1.309,3.599-2.587,5.264C799.985,676.181,797.101,674.277,794.156,672.433z"/>
					<path style="fill:#B7B3AC;" d="M803.822,651.527c-1.368,2.23-3.45,4.342-6.097,6.245c-2.796-1.963-6.245-3.688-10.141-5.026
						c4.699-1.636,8.744-3.747,11.777-6.245c1.874,1.546,3.39,3.212,4.461,4.996C803.822,651.497,803.822,651.497,803.822,651.527z"
						/>
					<path style="fill:#9B9894;" d="M797.725,657.772c2.647,1.874,4.729,3.985,6.097,6.275c-1.903,3.182-5.264,6.067-9.666,8.386
						c-4.223-2.676-8.624-5.294-13.174-7.792C787.673,663.155,793.443,660.746,797.725,657.772z"/>
					<path style="fill:#CBC6BD;" d="M802.543,627.081c-4.639-3.182-9.457-6.275-14.453-9.249
						C794.484,620.092,799.539,623.334,802.543,627.081z"/>
					<path style="fill:#CBC6BD;" d="M782.112,636.776c1.219,2.111-1.368,4.282-3.569,5.65c-1.695-1.576-3.39-3.152-5.115-4.728
						c0.654-0.774,1.189-1.576,1.606-2.409c0.238-0.446,0.446-0.892,0.595-1.368C778.633,634.337,781.25,635.289,782.112,636.776z"
						/>
					<path style="fill:#CBC6BD;" d="M771.763,639.482c1.546,1.398,3.033,2.796,4.52,4.193c-3.628,1.784-7.256,2.825-10.736,3.063
						c-1.963,0.148-4.193,0-6.007-0.476C764.625,644.597,768.819,642.248,771.763,639.482z"/>
					<path style="fill:#FFCE00;" d="M776.224,565.401l0.03,0.03c0,0.089-0.03,0.149-0.03,0.238V565.401z"/>
					<path style="fill:#D6AD00;" d="M776.224,565.401v0.268c-0.06,0.357-0.119,0.684-0.208,1.041
						c0.089-0.476,0.149-0.922,0.178-1.339L776.224,565.401z"/>
					<path style="fill:#D6AD00;" d="M776.224,565.253v0.149l-0.03-0.03C776.224,565.342,776.224,565.282,776.224,565.253z"/>
					<path style="fill:#CBC6BD;" d="M775.153,625.624c0.625-1.219,0.922-2.498,1.041-3.807v7.256l-2.379-1.308
						C774.35,627.081,774.796,626.367,775.153,625.624z"/>
					<path style="fill:#C9A200;" d="M776.194,612.39v2.528c-0.149-0.03-0.327-0.06-0.505-0.06
						C775.956,614.055,776.105,613.222,776.194,612.39z"/>
					<path style="fill:#D6AD00;" d="M776.194,584.167v7.524c-0.119-1.279-0.416-2.528-1.011-3.717l-0.03-0.119v-0.03
						c0.178-0.297,0.297-0.595,0.417-0.892c0.119-0.357,0.238-0.684,0.327-1.011C776.045,585.297,776.164,584.702,776.194,584.167z"
						/>
					<path style="fill:#BF9A00;" d="M776.194,574.918v7.375c-0.089-1.309-0.416-2.587-1.041-3.807v-0.06
						c0.327-0.625,0.565-1.249,0.714-1.844C776.045,575.989,776.135,575.424,776.194,574.918z"/>
					<path style="fill:#D6AD00;" d="M776.194,572.807c-0.119-1.279-0.416-2.558-1.041-3.777c0.208-0.387,0.387-0.773,0.506-1.16
						c0.149-0.327,0.238-0.684,0.327-1.011c0-0.06,0.03-0.119,0.03-0.148c0.089-0.357,0.149-0.684,0.208-1.041v2.766
						c0,0.029-0.03,0.089-0.03,0.148V572.807z"/>
					<path style="fill:#5C80CB;" d="M776.253,565.431c35.122,26.438,56.951,59.568,59.479,95.672v0.892l-30.096-16.654
						c0-0.03,0-0.089,0-0.119V635.2c0-2.885-1.1-5.591-3.093-8.119c-3.004-3.747-8.059-6.988-14.453-9.249
						c-3.599-1.279-7.584-2.26-11.896-2.915v-2.528v-9.427v-9.457v-0.089v-1.725v-7.524c-0.03,0.535-0.149,1.13-0.297,1.755
						c0.148-0.625,0.238-1.219,0.297-1.844v-0.06v-1.725v-7.375c-0.059,0.505-0.149,1.07-0.327,1.665
						c0.148-0.625,0.268-1.249,0.327-1.903v-0.03v-1.844v-4.223c0-0.059,0.03-0.119,0.03-0.148v-2.766
						C776.224,565.58,776.253,565.52,776.253,565.431z"/>
					<path style="fill:#BF9A00;" d="M767.807,614.174c1.368-0.862,2.617-1.755,3.688-2.706c1.606-1.457,2.855-3.004,3.658-4.699
						c0-0.03,0-0.03,0-0.03c0.625-1.219,0.922-2.468,1.041-3.777v9.427c-0.089,0.833-0.238,1.665-0.505,2.468
						C773.161,614.501,770.514,614.263,767.807,614.174z"/>
					<path style="fill:#5C80CB;" d="M775.659,567.87c0.119-0.327,0.238-0.684,0.327-1.011
						C775.897,567.186,775.807,567.543,775.659,567.87z"/>
					<path style="fill:#BF9A00;" d="M775.153,578.487c0.625,1.219,0.952,2.498,1.041,3.807v1.725L775.153,578.487z"/>
					<path style="fill:#D6AD00;" d="M775.57,586.933c-0.119,0.298-0.238,0.595-0.417,0.892v-0.06
						C775.302,587.498,775.451,587.201,775.57,586.933z"/>
					<path style="fill:#D6AD00;" d="M775.183,587.974c0.595,1.189,0.892,2.439,1.011,3.717v1.725L775.183,587.974z"/>
					<path style="fill:#D6AD00;" d="M775.153,569.03c0.625,1.219,0.922,2.498,1.041,3.777v1.844L775.153,569.03z"/>
					<path style="fill:#5C80CB;" d="M775.183,587.974c0-0.03,0-0.06-0.03-0.089c0-0.03,0-0.03,0-0.03L775.183,587.974z"/>
					<path style="fill:#5C80CB;" d="M775.034,569.268v0.029c-0.179,0.327-0.357,0.655-0.565,0.952
						C774.677,569.922,774.856,569.595,775.034,569.268z"/>
					<path style="fill:#D6AD00;" d="M773.517,571.587c0.179-0.238,0.357-0.476,0.506-0.714
						C773.904,571.111,773.726,571.349,773.517,571.587z"/>
					<path style="fill:#D6AD00;" d="M772.566,572.658c0.357-0.357,0.654-0.714,0.951-1.07
						C773.22,571.944,772.923,572.301,772.566,572.658z"/>
					<path style="fill:#FFCE00;" d="M765.994,551.097c6.394,3.42,10.319,8.059,10.319,13.204c0,0.386-0.03,0.743-0.06,1.13
						l-0.03-0.03v-0.149c0,0.03,0,0.089-0.03,0.119c-9.397-7.108-19.717-13.68-30.869-19.717
						C753.384,546.249,760.581,548.212,765.994,551.097z"/>
					<path style="fill:#CBC6BD;" d="M776.075,632.345c-2.082-0.238-4.253-0.268-6.275-0.119c-0.297,0.03-0.595,0.06-0.862,0.089
						c2.022-1.368,3.658-2.914,4.877-4.55l2.379,1.308v2.706C776.164,631.958,776.135,632.166,776.075,632.345z"/>
					<path style="fill:#9B9894;" d="M769.354,623.928c-0.119-0.238-0.624-0.416-1.249-0.505c0.684-0.417,1.308-0.862,1.904-1.309
						c1.16,0.238,1.933,0.684,2.26,1.249c0.238,0.416-0.208,0.862-1.011,1.011C770.454,624.523,769.592,624.315,769.354,623.928z"/>
					<path style="fill:#CBC6BD;" d="M770.038,633.772c1.814-0.149,3.777-0.089,5.591,0.149c-0.149,0.476-0.357,0.922-0.595,1.368
						c-0.417,0.833-0.952,1.636-1.606,2.409c-1.398-1.279-2.825-2.558-4.283-3.837C769.443,633.832,769.741,633.772,770.038,633.772
						z"/>
					<path style="fill:#CBC6BD;" d="M760.968,626.903c2.26-0.833,4.312-1.784,6.126-2.855l6.721,3.718
						c-1.219,1.636-2.855,3.182-4.877,4.55c-0.476,0.03-0.952,0.089-1.398,0.149C765.369,630.62,763.198,628.746,760.968,626.903z"
						/>
					<path style="fill:#CBC6BD;" d="M767.807,614.174c-1.13,0.714-2.409,1.398-3.747,2.022c-2.052,0.951-4.342,1.754-6.781,2.439
						l-5.918-3.271c4.312-0.803,8.952-1.249,13.77-1.249C766.023,614.115,766.915,614.144,767.807,614.174z"/>
					<path style="fill:#CBC6BD;" d="M767.094,624.047c0.357-0.208,0.684-0.416,1.011-0.624c0.624,0.089,1.13,0.268,1.249,0.505
						c0.238,0.387,1.1,0.595,1.904,0.446c0.803-0.149,1.249-0.595,1.011-1.011c-0.327-0.565-1.1-1.011-2.26-1.249
						c0.505-0.387,1.011-0.803,1.457-1.219c1.636-1.457,2.885-3.033,3.688-4.699c0.238-0.446,0.417-0.892,0.535-1.339
						c0.179,0,0.357,0.03,0.505,0.06v6.9c-0.119,1.308-0.416,2.587-1.041,3.807c-0.357,0.743-0.803,1.457-1.338,2.141
						L767.094,624.047z"/>
					<path style="fill:#9B9894;" d="M765.756,623.304l-2.617-1.457c0.922-0.03,1.903-0.089,2.914-0.089
						c1.576-0.03,2.915,0.089,3.956,0.357c-0.595,0.446-1.22,0.892-1.904,1.309c-0.654-0.089-1.427-0.149-2.171-0.119
						C765.875,623.304,765.815,623.304,765.756,623.304z"/>
					<path style="fill:#CBC6BD;" d="M757.28,618.635c2.439-0.684,4.729-1.487,6.781-2.439c1.338-0.625,2.617-1.309,3.747-2.022
						c2.706,0.089,5.353,0.327,7.881,0.684c-0.119,0.446-0.297,0.892-0.535,1.339c-0.803,1.665-2.052,3.242-3.688,4.699
						c-0.446,0.416-0.952,0.833-1.457,1.219c-1.041-0.268-2.379-0.387-3.956-0.357c-1.011,0-1.992,0.059-2.914,0.089L757.28,618.635
						z"/>
					<path style="fill:#CBC6BD;" d="M768.105,623.423c-0.327,0.208-0.654,0.416-1.011,0.624l-1.338-0.743c0.06,0,0.119,0,0.178,0
						C766.677,623.274,767.451,623.334,768.105,623.423z"/>
					<path style="fill:#9B9894;" d="M773.428,637.698c-0.476,0.624-1.041,1.219-1.665,1.784c-1.903-1.754-3.866-3.509-5.829-5.264
						c-0.089,0-0.149,0.03-0.238,0.03c1.16-0.595,2.26-1.249,3.242-1.933c0.268-0.03,0.565-0.06,0.862-0.089
						c2.022-0.149,4.193-0.119,6.275,0.119c-0.089,0.535-0.238,1.071-0.446,1.576c-1.814-0.238-3.777-0.297-5.591-0.149
						c-0.297,0-0.595,0.06-0.892,0.089C770.603,635.14,772.031,636.419,773.428,637.698z"/>
					<path style="fill:#B7B3AC;" d="M780.982,664.642c-5.234-2.915-10.706-5.71-16.357-8.357c0.178,0,0.327,0,0.506,0
						c8.327,0,16.029-1.308,22.453-3.539c3.896,1.339,7.346,3.063,10.141,5.026C793.443,660.746,787.673,663.155,780.982,664.642z"
						/>
					<path style="fill:#9B9894;" d="M732.566,657.772c7.375,5.175,19.212,8.535,32.565,8.535c5.651,0,10.974-0.595,15.851-1.665
						c4.55,2.498,8.952,5.115,13.174,7.792c-7.316,3.956-17.605,6.394-29.025,6.394c-18.141,0-33.516-6.216-38.632-14.781
						C727.838,661.757,729.919,659.646,732.566,657.772z"/>
					<path style="fill:#B7B3AC;" d="M764.625,656.285c5.65,2.647,11.123,5.442,16.357,8.357c-4.877,1.071-10.2,1.665-15.851,1.665
						c-13.353,0-25.189-3.361-32.565-8.535c2.796-1.963,6.216-3.688,10.141-5.026C749.012,654.917,756.536,656.225,764.625,656.285z
						"/>
					<path style="fill:#CBC6BD;" d="M758.321,627.795c2.022,1.665,4.015,3.36,5.978,5.055c-1.309,0.149-2.587,0.238-3.837,0.208
						c-3.509-0.089-6.662-1.308-7.672-3.004c-0.179-0.268-0.268-0.565-0.297-0.862C754.544,628.835,756.477,628.36,758.321,627.795z
						"/>
					<path style="fill:#CBC6BD;" d="M757.28,618.635l5.859,3.212c-2.617,0.208-4.966,0.595-6.9,1.16
						c-1.338-1.07-2.646-2.141-3.985-3.212C754.008,619.497,755.674,619.111,757.28,618.635z"/>
					<path style="fill:#9B9894;" d="M765.191,648.315c-2.974,0.148-6.275-0.208-8.714-1.16c1.041-0.268,2.082-0.565,3.063-0.892
						c1.814,0.476,4.044,0.625,6.007,0.476c3.48-0.238,7.108-1.279,10.736-3.063c-1.487-1.398-2.974-2.795-4.52-4.193
						c0.625-0.565,1.189-1.16,1.665-1.784c1.725,1.576,3.42,3.152,5.115,4.728c2.201-1.368,4.788-3.539,3.569-5.65
						c-0.862-1.487-3.48-2.439-6.483-2.855c0.208-0.505,0.357-1.041,0.446-1.576c4.074,0.476,7.732,1.755,8.951,3.896
						c1.339,2.29-0.565,5.056-4.996,7.613c1.844,1.755,3.688,3.48,5.472,5.264c0.357,0.357,0.06,0.833-0.714,1.041
						c-0.179,0.06-0.417,0.119-0.625,0.119c-0.565,0.03-1.13-0.119-1.398-0.387c-1.636-1.636-3.361-3.242-5.056-4.877
						c-3.985,1.873-7.97,2.974-11.955,3.271C765.577,648.315,765.369,648.315,765.191,648.315z"/>
					<path style="fill:#CBC6BD;" d="M757.815,624.285c2.587-0.714,5.591-0.952,7.941-0.981l1.338,0.743
						c-1.814,1.071-3.866,2.022-6.126,2.855C759.927,626.04,758.886,625.148,757.815,624.285z"/>
					<path style="fill:#CBC6BD;" d="M755.287,625.237c1.011,0.833,2.022,1.695,3.033,2.558c-1.844,0.565-3.777,1.041-5.829,1.398
						C752.224,627.795,753.265,626.307,755.287,625.237z"/>
					<path style="fill:#475993;" d="M803.167,797.041c-19.509,21.74-46.929,40.565-79.91,55.048
						C745.771,841.026,781.279,821.19,803.167,797.041z"/>
					<path style="fill:#9B9894;" d="M754.306,644.032c0.803-0.178,1.665,0,1.963,0.387c0.595,0.833,1.814,1.428,3.271,1.844
						c-0.981,0.327-2.022,0.625-3.063,0.892c-1.368-0.505-2.439-1.219-3.093-2.082C753.116,644.687,753.533,644.211,754.306,644.032
						z"/>
					<path style="fill:#5C80CB;" d="M781.488,766.886c-9.07,7.286-19.122,14.096-30.037,20.371
						C761.205,781.577,771.495,774.796,781.488,766.886z"/>
					<path style="fill:#C9A200;" d="M744.076,611.349c7.643-0.416,14.542-2.082,19.985-4.609c2.944-1.338,5.442-2.914,7.405-4.699
						c1.636-1.457,2.885-3.034,3.688-4.699v-0.029c0.625-1.219,0.922-2.498,1.041-3.807v9.457c-0.119,1.308-0.416,2.558-1.041,3.777
						c0,0,0,0,0,0.03c-0.803,1.695-2.052,3.241-3.658,4.699c-1.071,0.952-2.32,1.844-3.688,2.706c-0.892-0.03-1.784-0.06-2.676-0.06
						c-4.818,0-9.457,0.446-13.77,1.249L744.076,611.349z"/>
					<path style="fill:#9B9894;" d="M760.462,633.058c1.249,0.03,2.528-0.06,3.837-0.208c-1.963-1.695-3.956-3.39-5.978-5.055
						c0.922-0.268,1.814-0.565,2.647-0.892c2.23,1.844,4.401,3.717,6.572,5.561c0.446-0.06,0.922-0.119,1.398-0.149
						c-0.981,0.684-2.082,1.338-3.242,1.933c-1.814,0.238-3.688,0.416-5.591,0.357c-4.669-0.119-8.862-1.755-10.23-3.985
						c-0.178-0.297-0.297-0.595-0.386-0.922c1.011-0.119,2.022-0.297,3.004-0.505c0.03,0.297,0.119,0.595,0.297,0.862
						C753.8,631.75,756.953,632.969,760.462,633.058z"/>
					<path style="fill:#9B9894;" d="M765.756,623.304c-2.349,0.03-5.353,0.268-7.941,0.981c1.071,0.862,2.112,1.755,3.153,2.617
						c-0.833,0.327-1.725,0.624-2.647,0.892c-1.011-0.862-2.022-1.725-3.033-2.558c-2.022,1.07-3.063,2.558-2.796,3.955
						c-0.982,0.208-1.993,0.387-3.004,0.505c-0.506-2.022,1.07-4.283,4.163-5.74c-1.517-1.219-2.974-2.468-4.49-3.658
						c1.071-0.149,2.082-0.297,3.093-0.506c1.339,1.071,2.647,2.141,3.985,3.212c1.933-0.565,4.283-0.951,6.9-1.16L765.756,623.304z
						"/>
					<path style="fill:#9B9894;" d="M752.254,619.795c-1.011,0.208-2.022,0.357-3.093,0.506c-0.119-0.119-0.238-0.208-0.357-0.297
						c-0.446-0.327-0.238-0.833,0.476-1.071c0.714-0.268,1.665-0.178,2.111,0.179C751.689,619.349,751.986,619.557,752.254,619.795z
						"/>
					<path style="fill:#CBC6BD;" d="M735.748,620.717c4.283-2.379,9.636-4.223,15.613-5.353l5.918,3.271
						c-1.606,0.476-3.271,0.862-5.026,1.16c-0.267-0.238-0.565-0.446-0.862-0.684c-0.446-0.357-1.398-0.446-2.111-0.179
						c-0.714,0.238-0.922,0.743-0.476,1.071c0.119,0.089,0.238,0.178,0.357,0.297c-2.855,0.386-5.888,0.595-8.981,0.595
						C738.663,620.895,737.176,620.836,735.748,620.717z"/>
					<path style="fill:#FFCE00;" d="M743.659,562.517c4.015-0.327,8.862,0.535,9.992,2.498c1.011,1.755-1.13,3.539-2.944,4.669
						c-2.528-2.379-5.115-4.729-7.792-7.078C743.154,562.576,743.391,562.547,743.659,562.517z"/>
					<path style="fill:#475993;" d="M710.797,806.677c11.807-4.61,22.959-9.755,33.398-15.346
						c-13.472,7.346-25.368,12.491-33.13,15.524L710.797,806.677z"/>
					<path style="fill:#CBC6BD;" d="M756.477,647.155c2.439,0.952,5.74,1.308,8.714,1.16c0.178,0,0.386,0,0.565-0.03
						c3.985-0.297,7.97-1.398,11.955-3.271c1.695,1.636,3.42,3.242,5.056,4.877c0.268,0.268,0.833,0.416,1.398,0.387
						c0.208,0,0.446-0.06,0.625-0.119c0.773-0.208,1.07-0.684,0.714-1.041c-1.784-1.784-3.628-3.509-5.472-5.264
						c4.431-2.558,6.334-5.323,4.996-7.613c-1.219-2.141-4.877-3.42-8.951-3.896c0.06-0.179,0.089-0.386,0.119-0.565v-2.706
						l26.171,14.453c-0.833,1.011-1.844,2.022-3.003,2.974c-3.033,2.498-7.078,4.61-11.777,6.245
						c-6.424,2.231-14.126,3.539-22.453,3.539c-0.179,0-0.327,0-0.506,0c-8.089-0.06-15.613-1.368-21.918-3.539
						c-3.093-1.07-5.888-2.349-8.268-3.807c1.874,0.179,3.777,0.268,5.74,0.268C746.038,649.207,751.6,648.463,756.477,647.155z"/>
					<path style="fill:#D6AD00;" d="M764.031,597.312c2.944-1.338,5.442-2.944,7.435-4.699c1.636-1.457,2.885-3.033,3.688-4.729
						c0.03,0.03,0.03,0.06,0.03,0.089l1.011,5.442v0.089c-0.119,1.309-0.416,2.587-1.041,3.807v0.029
						c-0.803,1.665-2.052,3.242-3.688,4.699c-1.963,1.784-4.461,3.361-7.405,4.699c-5.443,2.528-12.342,4.193-19.985,4.609
						l-20.966-11.598c5.085,1.457,10.884,2.26,17.07,2.26C749.31,602.011,757.667,600.226,764.031,597.312z"/>
					<path style="fill:#CBC6BD;" d="M740.18,630.352c-4.847,0-9.457-0.505-13.68-1.427c1.844-3.123,5.056-5.918,9.249-8.208
						c1.427,0.119,2.915,0.178,4.431,0.178c3.093,0,6.126-0.208,8.981-0.595c1.517,1.189,2.974,2.439,4.49,3.658
						c-3.093,1.457-4.669,3.718-4.163,5.74C746.514,630.144,743.391,630.352,740.18,630.352z"/>
					<path style="fill:#CBC6BD;" d="M760.105,634.605c1.903,0.06,3.777-0.119,5.591-0.357c-6.513,3.39-15.554,5.502-25.516,5.502
						c-5.413,0-10.528-0.624-15.137-1.725c-0.268-0.922-0.386-1.874-0.386-2.825c0-2.171,0.654-4.312,1.844-6.275
						c4.223,0.922,8.833,1.427,13.68,1.427c3.212,0,6.334-0.208,9.309-0.654c0.089,0.327,0.208,0.624,0.386,0.922
						C751.243,632.85,755.436,634.486,760.105,634.605z"/>
					<path style="fill:#FFCE00;" d="M729.355,559.453c-0.803-1.338,0.06-2.944,2.052-3.985c2.558,2.052,5.056,4.164,7.494,6.275
						c-1.1,0.119-2.171,0.208-3.212,0.178C732.804,561.862,730.187,560.851,729.355,559.453z"/>
					<path style="fill:#B7B3AC;" d="M734.44,648.939c-1.844-0.119-3.658-0.357-5.413-0.654c0.565-0.625,1.22-1.219,1.933-1.784
						C732.001,647.363,733.161,648.166,734.44,648.939z"/>
					<path style="fill:#B7B3AC;" d="M726.499,651.497c0.654-1.13,1.487-2.201,2.528-3.212c1.755,0.297,3.569,0.535,5.413,0.654
						c2.379,1.457,5.175,2.736,8.268,3.807c-3.925,1.339-7.346,3.063-10.141,5.026c-2.647-1.903-4.729-4.015-6.067-6.245V651.497z"
						/>
					<path style="fill:#CBC6BD;" d="M730.961,646.501c-2.052-1.665-3.658-3.509-4.729-5.442c2.855,0.892,5.65,1.874,8.416,2.855
						C733.28,644.716,732.061,645.579,730.961,646.501z"/>
					<path style="fill:#B7B3AC;" d="M729.027,648.285c-1.041,1.011-1.873,2.082-2.528,3.212c-0.803-1.309-1.338-2.677-1.606-4.074
						C726.232,647.779,727.6,648.047,729.027,648.285z"/>
					<path style="fill:#898684;" d="M765.131,678.828c11.42,0,21.709-2.439,29.025-6.394c2.944,1.844,5.829,3.747,8.595,5.68
						c-5.948,7.762-20.55,13.263-37.62,13.263c-22.334,0-40.475-9.427-40.475-21.085c0-2.171,0.624-4.283,1.844-6.245
						C731.615,672.612,746.99,678.828,765.131,678.828z"/>
					<path style="fill:#CEA600;" d="M753.651,565.015c-1.13-1.963-5.977-2.825-9.992-2.498c-0.268,0.03-0.506,0.06-0.744,0.089
						c2.676,2.349,5.264,4.699,7.792,7.078C752.521,568.554,754.663,566.77,753.651,565.015z M731.406,555.468
						c-1.992,1.041-2.855,2.647-2.052,3.985c0.833,1.398,3.45,2.409,6.334,2.468c1.041,0.03,2.112-0.06,3.212-0.178
						C736.462,559.632,733.964,557.521,731.406,555.468z M751.927,570.874c1.517,1.457,3.063,2.914,4.55,4.372
						c0.297,0.297,0.03,0.684-0.595,0.892c-0.149,0.03-0.327,0.059-0.506,0.059c-0.476,0.03-0.951-0.089-1.189-0.297
						c-1.339-1.368-2.766-2.706-4.193-4.044c-3.271,1.546-6.602,2.468-9.874,2.706c-0.178,0-0.327,0.03-0.505,0.03
						c-3.807,0.179-8.268-0.654-9.755-2.706c-0.238-0.327,0.089-0.714,0.744-0.862c0.654-0.119,1.368,0.03,1.606,0.327
						c1.13,1.546,4.788,2.141,7.703,1.933c2.915-0.208,5.888-1.071,8.922-2.558c-2.795-2.617-5.65-5.234-8.594-7.822
						c-1.576,0.178-3.182,0.357-4.847,0.327c-3.866-0.119-7.346-1.457-8.446-3.331c-1.13-1.844,0.149-4.134,3.093-5.502
						c0.03-0.03,0.03-0.03,0.03-0.03c-1.338-1.071-2.647-2.171-4.045-3.242c-0.357-0.297-0.178-0.714,0.416-0.922
						c0.595-0.208,1.368-0.149,1.755,0.148c1.339,1.071,2.677,2.171,4.015,3.242c2.201-0.655,4.966-1.011,8.149-1.041
						c2.795-0.03,4.609,0.446,5.145,1.338c0.208,0.327-0.178,0.714-0.863,0.833c-0.654,0.119-1.368-0.03-1.546-0.386
						c-0.238-0.387-1.636-0.506-2.855-0.506c-1.963,0.03-4.55,0.208-6.721,0.833c2.736,2.231,5.412,4.491,8.059,6.781
						c0.624-0.089,1.249-0.149,1.874-0.208c4.966-0.386,11.093,0.654,12.639,3.331C757.19,566.472,755.614,568.762,751.927,570.874z
						"/>
					<path style="fill:#9B9894;" d="M724.656,657.742c0-2.171,0.624-4.253,1.844-6.215c1.339,2.23,3.42,4.342,6.067,6.245
						c-2.647,1.874-4.729,3.985-6.067,6.275C725.28,662.054,724.656,659.943,724.656,657.742z"/>
					<path style="fill:#FFCE00;" d="M764.06,578.457c-6.364,2.915-14.721,4.699-23.881,4.699c-8.327,0-15.97-1.457-22.066-3.896
						c-0.625-0.268-1.249-0.535-1.844-0.803c-2.944-1.368-5.443-2.974-7.435-4.729c-1.606-1.457-2.855-3.033-3.658-4.699V569
						c-0.773-1.487-1.16-3.063-1.16-4.699c0-10.439,16.208-18.855,36.163-18.855c1.755,0,3.48,0.059,5.145,0.208
						c11.152,6.037,21.472,12.609,30.869,19.717c-0.03,0.417-0.089,0.862-0.178,1.339c0,0.03-0.03,0.089-0.03,0.148
						c-0.089,0.327-0.208,0.684-0.327,1.011c-0.119,0.387-0.297,0.773-0.506,1.16c-0.03,0.089-0.059,0.149-0.119,0.238
						c-0.179,0.327-0.357,0.654-0.565,0.981c-0.119,0.208-0.268,0.417-0.446,0.625c-0.149,0.238-0.327,0.476-0.506,0.714
						c-0.297,0.357-0.595,0.714-0.951,1.07c-0.327,0.357-0.684,0.714-1.071,1.071C769.532,575.483,767.034,577.089,764.06,578.457z
						 M755.882,576.137c0.625-0.208,0.892-0.595,0.595-0.892c-1.487-1.457-3.033-2.914-4.55-4.372
						c3.688-2.112,5.264-4.401,4.164-6.305c-1.547-2.677-7.673-3.717-12.639-3.331c-0.624,0.06-1.249,0.119-1.874,0.208
						c-2.647-2.29-5.323-4.55-8.059-6.781c2.171-0.625,4.758-0.803,6.721-0.833c1.219,0,2.617,0.119,2.855,0.506
						c0.179,0.357,0.892,0.505,1.546,0.386c0.684-0.119,1.071-0.505,0.863-0.833c-0.535-0.892-2.349-1.368-5.145-1.338
						c-3.182,0.03-5.948,0.386-8.149,1.041c-1.338-1.071-2.676-2.171-4.015-3.242c-0.386-0.297-1.16-0.357-1.755-0.148
						c-0.595,0.208-0.773,0.625-0.416,0.922c1.398,1.071,2.706,2.171,4.045,3.242c0,0,0,0-0.03,0.03
						c-2.944,1.368-4.223,3.658-3.093,5.502c1.101,1.874,4.58,3.212,8.446,3.331c1.665,0.03,3.271-0.149,4.847-0.327
						c2.944,2.587,5.799,5.204,8.594,7.822c-3.033,1.487-6.007,2.349-8.922,2.558c-2.914,0.208-6.572-0.387-7.703-1.933
						c-0.238-0.297-0.951-0.446-1.606-0.327c-0.654,0.149-0.981,0.536-0.744,0.862c1.487,2.052,5.948,2.885,9.755,2.706
						c0.178,0,0.327-0.03,0.505-0.03c3.271-0.238,6.602-1.16,9.874-2.706c1.427,1.338,2.855,2.677,4.193,4.044
						c0.238,0.208,0.714,0.327,1.189,0.297C755.555,576.197,755.733,576.167,755.882,576.137z"/>
					<path style="fill:#9B9894;" d="M724.656,657.742v-10.379c0.059,0.03,0.148,0.06,0.238,0.06
						c0.268,1.398,0.803,2.765,1.606,4.074v0.03C725.28,653.489,724.656,655.571,724.656,657.742z"/>
					<path style="fill:#BF9A00;" d="M725.815,640.226c0.119,0.268,0.268,0.535,0.417,0.833c-0.208-0.119-0.446-0.178-0.654-0.238
						C725.637,640.612,725.726,640.434,725.815,640.226z"/>
					<path style="fill:#B7B3AC;" d="M724.893,647.423c-0.178-0.714-0.238-1.457-0.238-2.201c0-1.487,0.297-2.974,0.922-4.401
						c0.208,0.06,0.446,0.119,0.654,0.238c1.07,1.933,2.676,3.777,4.729,5.442c-0.714,0.565-1.368,1.16-1.933,1.784
						C727.6,648.047,726.232,647.779,724.893,647.423z"/>
					<path style="fill:#CBC6BD;" d="M725.042,638.025c4.61,1.101,9.725,1.725,15.137,1.725c9.963,0,19.004-2.111,25.516-5.502
						c0.089,0,0.149-0.03,0.238-0.03c1.963,1.755,3.926,3.509,5.829,5.264c-2.944,2.766-7.138,5.115-12.223,6.781
						c-1.457-0.416-2.676-1.011-3.271-1.844c-0.297-0.387-1.16-0.565-1.963-0.387c-0.773,0.179-1.19,0.654-0.922,1.041
						c0.654,0.862,1.725,1.576,3.093,2.082c-4.877,1.308-10.438,2.052-16.297,2.052c-1.963,0-3.866-0.089-5.74-0.268
						c-1.279-0.773-2.439-1.576-3.479-2.439c1.1-0.922,2.32-1.784,3.688-2.587c-2.766-0.981-5.562-1.963-8.416-2.855
						c-0.149-0.297-0.297-0.565-0.417-0.833C725.489,639.512,725.221,638.768,725.042,638.025z"/>
					<path style="fill:#B7B3AC;" d="M725.042,638.025c-0.119-0.03-0.268-0.06-0.386-0.089V635.2
						C724.656,636.151,724.775,637.103,725.042,638.025z"/>
					<path style="fill:#B7B3AC;" d="M724.656,640.523v-2.587c0.119,0.03,0.267,0.059,0.386,0.089
						c0.179,0.743,0.446,1.487,0.773,2.201c-0.089,0.208-0.178,0.387-0.238,0.595C725.28,640.701,724.953,640.583,724.656,640.523z"
						/>
					<path style="fill:#9B9894;" d="M724.656,645.222c0,0.744,0.059,1.487,0.238,2.201c-0.089,0-0.178-0.03-0.238-0.06V645.222z"/>
					<path style="fill:#898684;" d="M724.656,657.742c0,2.201,0.624,4.312,1.844,6.305c-1.219,1.963-1.844,4.074-1.844,6.245
						V657.742z"/>
					<path style="fill:#B7B3AC;" d="M725.578,640.82c-0.625,1.427-0.922,2.914-0.922,4.401v-4.699
						C724.953,640.583,725.28,640.701,725.578,640.82z"/>
					<path style="fill:#475993;" d="M711.065,806.855c-0.149,0.059-0.298,0.119-0.446,0.178v-0.297c0.06-0.03,0.119-0.03,0.178-0.06
						L711.065,806.855z"/>
					<path style="fill:#5C80CB;" d="M710.797,806.677c-0.059,0.03-0.119,0.03-0.178,0.06v-0.179L710.797,806.677z"/>
					<path style="fill:#C9A200;" d="M705.176,625.624c-0.743-1.457-1.13-2.944-1.16-4.49c0-0.089,0-0.149,0-0.238v-9.398
						c0,1.606,0.386,3.182,1.16,4.699c0.803,1.665,2.052,3.242,3.688,4.699c4.015,3.599,10.2,6.453,17.635,8.03
						c-1.189,1.963-1.844,4.104-1.844,6.275v2.736c-2.409-0.595-4.699-1.338-6.781-2.201
						C711.719,633.237,707.169,629.698,705.176,625.624z"/>
					<path style="fill:#BF9A00;" d="M764.06,587.884c2.944-1.338,5.442-2.944,7.435-4.729c1.606-1.457,2.825-3.004,3.658-4.669
						l1.041,5.532v0.06c-0.059,0.624-0.149,1.219-0.297,1.844c-0.089,0.327-0.208,0.654-0.327,1.011
						c-0.119,0.268-0.268,0.565-0.417,0.833v0.06v0.03c0,0,0,0,0,0.03c-0.803,1.695-2.052,3.271-3.688,4.729
						c-1.993,1.755-4.491,3.361-7.435,4.699c-6.364,2.914-14.721,4.699-23.851,4.699c-6.186,0-11.985-0.803-17.07-2.26
						l-15.821-8.743c-0.536-0.625-1.011-1.219-1.398-1.874c-0.267-0.386-0.535-0.803-0.714-1.249c0-0.03,0-0.03,0-0.03
						c-0.743-1.427-1.13-2.914-1.16-4.461c0-0.089,0-0.148,0-0.238c0-1.636,0.386-3.212,1.16-4.699
						c0.773,1.665,2.052,3.242,3.658,4.699c0.654,0.565,1.368,1.16,2.141,1.665c1.546,1.16,3.361,2.171,5.323,3.063
						c6.394,2.944,14.721,4.729,23.881,4.729C749.31,592.613,757.696,590.828,764.06,587.884z"/>
					<path style="fill:#BF9A00;" d="M707.288,591.007l15.821,8.743c-2.468-0.654-4.729-1.487-6.81-2.439
						c-2.944-1.338-5.443-2.944-7.435-4.699C708.299,592.078,707.764,591.542,707.288,591.007z"/>
					<path style="fill:#D6AD00;" d="M705.176,597.312c-0.773-1.517-1.16-3.093-1.16-4.699c0-0.684,0.059-1.338,0.178-1.992
						c0.297-0.268,0.595-0.565,0.922-0.803l2.171,1.189c0.476,0.535,1.011,1.071,1.576,1.606c1.992,1.755,4.49,3.361,7.435,4.699
						c2.082,0.951,4.342,1.784,6.81,2.439l20.966,11.598c-1.279,0.089-2.587,0.119-3.896,0.119c-9.19,0-17.546-1.784-23.91-4.729
						c-2.944-1.338-5.443-2.914-7.405-4.699c-1.636-1.457-2.885-3.034-3.688-4.699V597.312z"/>
					<path style="fill:#C9A200;" d="M705.176,606.739c-0.743-1.427-1.13-2.914-1.16-4.461c0-0.089,0-0.148,0-0.238v-9.427
						c0,1.606,0.386,3.182,1.16,4.699v0.029c0.803,1.665,2.052,3.242,3.688,4.699c1.963,1.784,4.461,3.361,7.405,4.699
						c6.364,2.944,14.721,4.729,23.91,4.729c1.308,0,2.617-0.03,3.896-0.119l7.286,4.015c-5.977,1.13-11.331,2.974-15.613,5.353
						c-7.405-0.446-14.096-2.082-19.449-4.52c-2.944-1.339-5.472-2.944-7.465-4.729c-1.606-1.457-2.855-3.033-3.658-4.699
						C705.176,606.739,705.176,606.739,705.176,606.739z"/>
					<path style="fill:#D6AD00;" d="M705.176,587.884c0.179,0.446,0.446,0.862,0.714,1.249c-0.267,0.208-0.505,0.446-0.773,0.684
						l-0.595-0.327C704.671,588.955,704.909,588.42,705.176,587.884z"/>
					<path style="fill:#D6AD00;" d="M705.89,589.133c0.387,0.654,0.862,1.249,1.398,1.874l-2.171-1.189
						C705.385,589.58,705.623,589.342,705.89,589.133z"/>
					<path style="fill:#BF9A00;" d="M704.017,621.133c0.03,1.546,0.416,3.033,1.16,4.49c1.993,4.074,6.543,7.613,12.699,10.111
						c2.082,0.862,4.372,1.606,6.781,2.201v2.587v4.699v2.141c-12.193-3.004-20.639-9.487-20.639-17.011V621.133z"/>
					<path style="fill:#D6AD00;" d="M704.522,589.49l0.595,0.327c-0.327,0.238-0.625,0.535-0.922,0.803
						C704.254,590.234,704.373,589.847,704.522,589.49z"/>
					<path style="fill:#BF9A00;" d="M704.017,573.966c0.03,1.546,0.416,3.033,1.16,4.491c-0.773,1.487-1.16,3.063-1.16,4.699
						V573.966z"/>
					<path style="fill:#BF9A00;" d="M704.017,602.278c0.03,1.547,0.416,3.034,1.16,4.461c0,0,0,0,0,0.03
						c0.803,1.665,2.052,3.241,3.658,4.699c1.992,1.784,4.52,3.39,7.465,4.729c5.353,2.439,12.044,4.074,19.449,4.52
						c-4.193,2.29-7.405,5.086-9.249,8.208c-7.435-1.576-13.62-4.431-17.635-8.03c-1.636-1.457-2.885-3.033-3.688-4.699
						c-0.773-1.517-1.16-3.093-1.16-4.699V602.278z"/>
					<path style="fill:#D6AD00;" d="M764.06,578.457c2.974-1.368,5.472-2.974,7.435-4.729c0.386-0.357,0.743-0.714,1.071-1.071
						c0.357-0.357,0.654-0.714,0.951-1.07c0.208-0.238,0.387-0.476,0.506-0.714c0.179-0.208,0.327-0.417,0.446-0.625
						c0.208-0.297,0.387-0.625,0.565-0.952v-0.029c0.06-0.089,0.089-0.149,0.119-0.238l1.041,5.621v0.03
						c-0.059,0.654-0.178,1.279-0.327,1.903c-0.149,0.595-0.387,1.219-0.714,1.844v0.06c-0.833,1.665-2.052,3.212-3.658,4.669
						c-1.993,1.784-4.491,3.39-7.435,4.729c-6.364,2.944-14.751,4.729-23.881,4.729c-9.16,0-17.487-1.784-23.881-4.729
						c-1.963-0.892-3.777-1.903-5.323-3.063c-0.773-0.506-1.487-1.1-2.141-1.665c-1.606-1.457-2.885-3.034-3.658-4.699
						c-0.743-1.457-1.13-2.944-1.16-4.491c0-0.089,0-0.149,0-0.238v-9.427c0,1.636,0.386,3.212,1.16,4.699v0.03
						c0.803,1.665,2.052,3.242,3.658,4.699c1.992,1.755,4.49,3.361,7.435,4.729c0.595,0.268,1.219,0.535,1.844,0.803
						c6.096,2.439,13.74,3.896,22.066,3.896C749.339,583.156,757.696,581.372,764.06,578.457z"/>
					<path style="fill:#D6AD00;" d="M704.195,590.62c-0.059,0.06-0.148,0.089-0.178,0.178v-1.606l0.505,0.297
						C704.373,589.847,704.254,590.234,704.195,590.62z"/>
					<path style="fill:#D6AD00;" d="M704.017,589.193v-5.799c0.03,1.547,0.416,3.034,1.16,4.461c0,0,0,0,0,0.03
						c-0.268,0.535-0.505,1.071-0.654,1.606L704.017,589.193z"/>
					<path style="fill:#5C80CB;" d="M704.017,589.193l-18.677-10.319v-56.148l2.439-1.13c20.907,6.543,40.208,14.632,57.546,24.059
						c-1.665-0.149-3.39-0.208-5.145-0.208c-19.955,0-36.163,8.416-36.163,18.855v9.427c0,0.089,0,0.149,0,0.238v9.19
						c0,0.089,0,0.148,0,0.238V589.193z"/>
					<path style="fill:#FFCE00;" d="M693.548,367.04c2.885,1.07,5.591,3.926,5.175,6.84c-0.387,2.587-2.885,4.074-4.788,4.848
						c-0.238-3.956-0.535-7.911-0.922-11.866C693.192,366.921,693.37,366.98,693.548,367.04z"/>
					<path style="fill:#FFCE00;" d="M685.876,357.88c0.267-1.993,1.784-3.717,3.777-4.312c0.446,3.569,0.833,7.167,1.19,10.736
						c-0.803-0.238-1.546-0.505-2.231-0.922C686.738,362.222,685.608,359.962,685.876,357.88z"/>
					<path style="fill:#F4F2ED;" d="M689.325,410.013c-6.275,3.093-11.241,11.39-13.204,22.096l-2.201,12.104l-10.022-3.242
						l-1.606-8.862c-0.981-5.353-2.706-10.112-4.996-13.918c-2.26-3.777-5.086-6.632-8.208-8.178
						c5.502-6.751,9.903-15.792,12.788-26.23c4.401,7.286,11.628,12.669,20.133,14.662
						C688.255,408.675,688.79,409.359,689.325,410.013z"/>
					<path style="fill:#BF9A00;" d="M693.935,378.728c1.903-0.773,4.401-2.26,4.788-4.848c0.417-2.914-2.29-5.769-5.175-6.84
						c-0.178-0.06-0.357-0.119-0.535-0.178C693.4,370.817,693.697,374.772,693.935,378.728z M685.876,357.88
						c-0.268,2.082,0.863,4.342,2.736,5.502c0.684,0.417,1.428,0.684,2.231,0.922c-0.357-3.569-0.744-7.167-1.19-10.736
						C687.66,354.163,686.143,355.888,685.876,357.88z M679.779,373.047c0.505,0.06,0.892,0.506,0.862,1.011
						c-0.178,2.349,1.903,4.461,3.985,5.264c2.052,0.803,4.55,0.803,7.465,0.03c-0.298-4.342-0.625-8.714-1.041-13.085
						c-1.16-0.327-2.32-0.714-3.42-1.368c-2.498-1.546-4.015-4.55-3.628-7.346c0.357-2.766,2.558-5.145,5.383-5.829c0,0,0,0,0.03,0
						c-0.268-1.873-0.476-3.777-0.743-5.621c-0.089-0.505,0.297-0.952,0.803-1.011c0.536-0.03,1.011,0.327,1.071,0.833
						c0.268,1.844,0.505,3.717,0.743,5.591c1.844,0,3.896,0.565,6.037,1.665c1.874,0.981,2.825,2.26,2.617,3.599
						c-0.06,0.506-0.535,0.833-1.041,0.743c-0.535-0.089-0.892-0.565-0.833-1.041c0.089-0.595-0.773-1.279-1.576-1.695
						c-1.339-0.684-3.152-1.428-4.966-1.457c0.476,3.866,0.892,7.703,1.279,11.569c0.476,0.149,0.922,0.268,1.368,0.446
						c3.539,1.308,7.018,4.907,6.424,8.862c-0.417,2.825-2.825,5.175-6.543,6.483c0.149,2.409,0.297,4.818,0.386,7.197
						c0.03,0.506-0.386,0.922-0.892,0.922c-0.148,0-0.297-0.03-0.416-0.089c-0.327-0.148-0.565-0.476-0.565-0.833
						c-0.119-2.23-0.238-4.431-0.387-6.662c-3.093,0.744-5.888,0.684-8.208-0.208c-0.119-0.059-0.238-0.119-0.327-0.149
						c-2.676-1.19-5.115-3.896-4.907-7.048C678.798,373.345,679.244,372.988,679.779,373.047z"/>
					<path style="fill:#FFCE00;" d="M678.738,373.82c-0.208,3.153,2.231,5.859,4.907,7.048c0.089,0.03,0.208,0.089,0.327,0.149
						c2.32,0.892,5.115,0.952,8.208,0.208c0.149,2.231,0.268,4.431,0.387,6.662c0,0.357,0.238,0.684,0.565,0.833
						c0.119,0.06,0.268,0.089,0.416,0.089c0.506,0,0.922-0.416,0.892-0.922c-0.089-2.379-0.238-4.788-0.386-7.197
						c3.717-1.308,6.126-3.658,6.543-6.483c0.595-3.955-2.885-7.554-6.424-8.862c-0.446-0.178-0.892-0.297-1.368-0.446
						c-0.387-3.866-0.803-7.702-1.279-11.569c1.814,0.03,3.628,0.773,4.966,1.457c0.803,0.416,1.665,1.1,1.576,1.695
						c-0.06,0.476,0.297,0.952,0.833,1.041c0.505,0.089,0.981-0.238,1.041-0.743c0.208-1.338-0.743-2.617-2.617-3.599
						c-2.141-1.1-4.193-1.665-6.037-1.665c-0.238-1.874-0.476-3.747-0.743-5.591c-0.059-0.505-0.535-0.862-1.071-0.833
						c-0.505,0.06-0.892,0.506-0.803,1.011c0.268,1.844,0.476,3.747,0.743,5.621c-0.03,0-0.03,0-0.03,0
						c-2.825,0.684-5.026,3.063-5.383,5.829c-0.387,2.796,1.13,5.799,3.628,7.346c1.1,0.654,2.26,1.041,3.42,1.368
						c0.417,4.371,0.743,8.743,1.041,13.085c-2.914,0.773-5.412,0.773-7.465-0.03c-2.082-0.803-4.164-2.915-3.985-5.264
						c0.03-0.505-0.357-0.952-0.862-1.011C679.244,372.988,678.798,373.345,678.738,373.82z M657.237,367.129
						c0-17.755,14.394-32.148,32.148-32.148c17.755,0,32.148,14.394,32.148,32.148c0,17.784-14.394,32.178-32.148,32.178
						c-2.528,0-4.996-0.297-7.375-0.862c-0.416-0.862-0.833-1.755-1.249-2.677c-2.409-5.442-4.342-11.479-5.71-17.992l-5.859-27.688
						l-5.829,27.688c-0.446,2.052-0.922,4.044-1.487,6.007C658.932,378.936,657.237,373.226,657.237,367.129z"/>
					<path style="fill:#F4F2ED;" d="M675.05,377.776c1.368,6.513,3.301,12.55,5.71,17.992c0.416,0.922,0.833,1.814,1.249,2.677
						c-8.505-1.993-15.732-7.375-20.133-14.662c0.565-1.963,1.041-3.955,1.487-6.007l5.829-27.688L675.05,377.776z"/>
					<polygon style="fill:#F4F2ED;" points="673.92,444.214 669.192,469.938 663.898,440.972 					"/>
					<path style="fill:#BA5055;" d="M664.761,596.657c6.126,12.699,2.736,45.62,2.736,45.62c-3.539,2.944-7.911,4.461-12.312,4.461
						c-2.468,0-4.966-0.476-7.346-1.457l-1.903-0.773c0,0-0.981-35.182,6.334-48.088c1.309,2.528,3.628,4.223,6.305,4.223
						C661.162,600.642,663.452,599.066,664.761,596.657z"/>
					<path style="fill:#FFCE00;" d="M666.01,736.671c5.026-0.417,11.093,0.654,12.52,3.093c1.249,2.201-1.428,4.461-3.718,5.888
						c-3.152-3.004-6.394-5.948-9.725-8.892C665.385,736.73,665.712,736.7,666.01,736.671z"/>
					<path style="fill:#BA5055;" d="M660.211,591.959l0.208-8.892c3.212,0.981,5.591,4.49,5.591,8.654
						c0,1.814-0.446,3.509-1.249,4.937C663.601,594.248,662.114,592.583,660.211,591.959z"/>
					<path style="fill:#BA5055;" d="M658.545,533.818l-46.929-27.985c2.439,0.268,4.877,0.565,7.316,0.892l42.646,25.427
						l-0.03,1.576l-3.033,1.398L658.545,533.818z"/>
					<polygon style="fill:#BA5055;" points="661.549,533.729 660.805,565.342 657.861,563.706 658.515,535.127 					"/>
					<path style="fill:#DBB100;" d="M643.943,759.629c5.234,1.398,11.093,2.171,17.249,2.171c8.148,0,15.762-1.368,22.126-3.717
						c8.922-3.271,15.464-8.506,17.814-14.632c0.625-1.606,0.952-3.301,0.952-5.026v10.022c0,12.907-18.29,23.375-40.891,23.375
						c-0.892,0-1.784-0.03-2.647-0.06l-21.978-14.661C638.858,758.083,641.326,758.945,643.943,759.629z"/>
					<path style="fill:#BA5055;" d="M657.861,563.706l2.944,1.636l-0.386,17.725c-0.595-0.179-1.219-0.268-1.844-0.268
						c-0.387,0-0.773,0.03-1.13,0.119L657.861,563.706z"/>
					<path style="fill:#BA5055;" d="M660.211,591.959l-0.149,6.483l-2.974-0.059l0.148-6.483c0.417-0.119,0.862-0.178,1.338-0.178
						C659.14,591.721,659.705,591.81,660.211,591.959z"/>
					<path style="fill:#BA5055;" d="M658.575,591.721c-0.476,0-0.922,0.06-1.338,0.178l0.208-8.981
						c0.357-0.089,0.743-0.119,1.13-0.119c0.625,0,1.249,0.089,1.844,0.268l-0.208,8.892
						C659.705,591.81,659.14,591.721,658.575,591.721z"/>
					<path style="fill:#BA5055;" d="M657.445,582.918l-0.208,8.981c-1.992,0.505-3.628,2.112-4.966,4.521
						c-0.714-1.368-1.13-2.974-1.13-4.699C651.14,587.26,653.876,583.542,657.445,582.918z"/>
					<path style="fill:#BA5055;" d="M657.237,591.899l-0.148,6.483l2.974,0.059l0.149-6.483c1.903,0.624,3.39,2.29,4.55,4.699
						c-1.308,2.409-3.598,3.985-6.186,3.985c-2.677,0-4.996-1.695-6.305-4.223C653.609,594.011,655.244,592.405,657.237,591.899z"/>
					<path style="fill:#FFCE00;" d="M648.136,732.834c-1.011-1.665,0.059-3.688,2.587-4.996c3.152,2.587,6.275,5.234,9.338,7.881
						c-1.368,0.149-2.677,0.238-3.985,0.208C652.448,735.838,649.177,734.559,648.136,732.834z"/>
					<path style="fill:#FFCE00;" d="M644.508,721.295l-1.011-3.955c5.353-1.457,11.36-2.29,17.695-2.29
						c22.602,0,40.891,10.468,40.891,23.375c0,1.725-0.327,3.42-0.952,5.026c-2.349,6.126-8.892,11.361-17.814,14.632l-1.636-4.55
						c0.506-0.268,0.684-0.624,0.357-0.952c-1.844-1.844-3.777-3.658-5.68-5.472c4.61-2.617,6.572-5.502,5.205-7.881
						c-1.933-3.36-9.606-4.669-15.821-4.164c-0.773,0.06-1.546,0.179-2.349,0.268c-3.271-2.855-6.632-5.68-10.052-8.506
						c2.736-0.743,5.948-0.981,8.387-1.011c1.546,0,3.271,0.149,3.569,0.654c0.238,0.416,1.13,0.625,1.963,0.446
						c0.833-0.148,1.309-0.595,1.071-1.041c-0.684-1.1-2.944-1.695-6.453-1.665c-3.955,0.06-7.405,0.505-10.171,1.308
						c-1.695-1.338-3.331-2.706-5.026-4.045C646.203,721.117,645.252,721.028,644.508,721.295z"/>
					<path style="fill:#FFCE00;" d="M623.007,729.979c3.747-5.561,11.152-10.082,20.49-12.639l1.011,3.955
						c-0.743,0.268-0.982,0.743-0.506,1.13c1.695,1.338,3.331,2.677,4.996,4.074c-3.688,1.755-5.294,4.58-3.896,6.9
						c1.427,2.32,5.769,4.015,10.587,4.134c2.082,0.059,4.104-0.149,6.037-0.387c3.688,3.242,7.286,6.513,10.766,9.784
						c-3.777,1.844-7.524,2.944-11.152,3.182c-3.628,0.297-8.208-0.476-9.606-2.379c-0.297-0.416-1.219-0.595-2.022-0.416
						c-0.833,0.178-1.249,0.654-0.952,1.07c1.873,2.558,7.435,3.599,12.223,3.361c0.178,0,0.386,0,0.595-0.03
						c4.104-0.297,8.268-1.457,12.372-3.39c1.755,1.695,3.539,3.361,5.234,5.056c0.297,0.298,0.862,0.417,1.457,0.387
						c0.238,0,0.446-0.03,0.654-0.089c0.149-0.03,0.268-0.089,0.387-0.149l1.636,4.55c-6.365,2.349-13.978,3.717-22.126,3.717
						c-6.156,0-12.015-0.773-17.249-2.171c-2.617-0.684-5.086-1.546-7.376-2.528l-11.569-7.732
						c-1.695-1.844-2.974-3.836-3.777-5.918c-0.624-1.606-0.952-3.301-0.952-5.026C620.271,735.451,621.252,732.596,623.007,729.979
						z"/>
					<path style="fill:#CEA600;" d="M674.813,745.652c2.29-1.428,4.966-3.688,3.718-5.888c-1.428-2.439-7.494-3.509-12.52-3.093
						c-0.298,0.03-0.625,0.059-0.922,0.089C668.419,739.704,671.66,742.648,674.813,745.652z M646.679,721.474
						c1.695,1.338,3.331,2.706,5.026,4.045c2.766-0.803,6.216-1.249,10.171-1.308c3.509-0.03,5.769,0.565,6.453,1.665
						c0.238,0.446-0.238,0.892-1.071,1.041c-0.833,0.179-1.725-0.03-1.963-0.446c-0.297-0.505-2.022-0.654-3.569-0.654
						c-2.439,0.03-5.651,0.268-8.387,1.011c3.42,2.825,6.781,5.651,10.052,8.506c0.803-0.089,1.576-0.208,2.349-0.268
						c6.216-0.505,13.888,0.803,15.821,4.164c1.368,2.379-0.595,5.264-5.205,7.881c1.904,1.814,3.837,3.628,5.68,5.472
						c0.327,0.327,0.149,0.684-0.357,0.952c-0.119,0.06-0.238,0.119-0.387,0.149c-0.208,0.06-0.416,0.089-0.654,0.089
						c-0.595,0.03-1.16-0.089-1.457-0.387c-1.695-1.695-3.48-3.36-5.234-5.056c-4.104,1.933-8.268,3.093-12.372,3.39
						c-0.208,0.03-0.416,0.03-0.595,0.03c-4.788,0.238-10.35-0.803-12.223-3.361c-0.297-0.416,0.119-0.892,0.952-1.07
						c0.803-0.179,1.725,0,2.022,0.416c1.398,1.903,5.978,2.677,9.606,2.379c3.628-0.238,7.375-1.338,11.152-3.182
						c-3.48-3.271-7.078-6.543-10.766-9.784c-1.933,0.238-3.955,0.446-6.037,0.387c-4.818-0.119-9.16-1.814-10.587-4.134
						c-1.398-2.32,0.208-5.145,3.896-6.9c-1.665-1.398-3.301-2.736-4.996-4.074c-0.476-0.387-0.238-0.862,0.506-1.13
						C645.252,721.028,646.203,721.117,646.679,721.474z M648.136,732.834c1.041,1.725,4.312,3.004,7.941,3.093
						c1.308,0.03,2.617-0.059,3.985-0.208c-3.063-2.647-6.186-5.294-9.338-7.881C648.196,729.146,647.125,731.169,648.136,732.834z"
						/>
					<path style="fill:#FFCE00;" d="M624.999,749.369l11.569,7.732C631.78,755.049,627.824,752.402,624.999,749.369z"/>
					<path style="fill:#DBB100;" d="M621.222,743.451c0.803,2.082,2.082,4.074,3.777,5.918l-4.729-3.182v-7.762
						C620.271,740.15,620.598,741.845,621.222,743.451z"/>
					<path style="fill:#DBB100;" d="M620.271,746.187l4.729,3.182c2.825,3.033,6.781,5.68,11.569,7.732l21.978,14.661
						c-2.201-0.059-4.342-0.268-6.424-0.535c-18.23-2.349-31.851-11.658-31.851-22.781V746.187z"/>
					<path style="fill:#F4F2ED;" d="M626.159,286.595c-5.085,2.498-9.1,9.219-10.706,17.903l-5.591,30.602l-5.621-30.602
						c-0.803-4.342-2.171-8.179-4.015-11.271c-1.844-3.093-4.104-5.383-6.662-6.632c5.294-6.483,9.338-15.583,11.569-26.081
						l4.728-22.453l4.728,22.453c1.101,5.234,2.677,10.141,4.61,14.542C621.163,279.457,623.482,283.353,626.159,286.595z"/>
					<path style="fill:#BA5055;" d="M578.13,482.339l40.802,24.386c-2.439-0.327-4.877-0.624-7.316-0.892l-36.252-21.65
						C576.435,483.707,577.357,483.083,578.13,482.339z"/>
					<path style="fill:#252528;" d="M578.13,482.339l-5.769-3.42l-1.546,2.558l4.55,2.706c-1.636,0.773-3.569,1.219-5.65,1.219
						c-5.948,0-10.766-3.658-10.766-8.178c0-4.52,4.818-8.178,10.766-8.178c5.977,0,10.795,3.658,10.795,8.178
						C580.509,479.157,579.617,480.942,578.13,482.339z"/>
					<path style="fill:#252528;" d="M572.36,478.919l5.769,3.42c-0.773,0.743-1.695,1.368-2.766,1.844l-4.55-2.706L572.36,478.919z"
						/>
					<path style="fill:#5C80CB;" d="M567.453,710.916l52.817,35.271v2.26c0,11.123,13.621,20.431,31.851,22.781
						c2.082,0.267,4.223,0.476,6.424,0.535l52.074,34.795v0.179c-43.122,16.832-94.571,26.617-149.857,26.617
						c-137.664,0-251.714-60.668-271.996-139.864c-1.338-5.234-2.29-10.587-2.766-15.97v-18.676
						c5.799-62.423,69.323-115.597,159.076-140.578l9.784,4.312v59.954l-57.992,14.394l51.36,34.319
						c0.892,2.498,2.022,4.907,3.301,7.197l0.476,0.862c0.387,0.743,0.773,1.457,1.19,2.141l-56.921-23.078l-4.491-1.814
						c-1.874-0.535-3.836-0.803-5.829-0.803c-9.19,0-17.189,5.829-21.293,14.453c-4.402-0.862-9.13-1.338-14.096-1.338
						c-22.334,0-40.475,9.428-40.475,21.085v5.323v4.699v12.52v12.55c-2.022,30.87,24.327,39.762,60.758,37.531
						c27.479-1.695,24.832-20.728,21.888-29.977c9.844,6.662,58.438,38.512,102.274,47.821c49.07,10.409,74.348,14.87,72.118-28.996
						L567.453,710.916z"/>
					<path style="fill:#BFBABA;" d="M527.603,684.27l38.155,25.516c-1.219,13.977-11.569,24.922-24.148,24.922
						c-3.361,0-6.543-0.773-9.457-2.171c-8.714-4.223-14.84-14.096-14.84-25.576C517.313,697.593,521.387,689.325,527.603,684.27z"
						/>
					<path style="fill:#475993;" d="M560.762,833.353c55.285,0,106.735-9.784,149.857-26.617v0.297v50.319
						c-43.122,16.803-94.601,26.587-149.857,26.587c-146.764,0-266.702-68.965-274.762-155.834v-18.676v-31.911
						c0.476,5.383,1.428,10.736,2.766,15.97C309.048,772.685,423.099,833.353,560.762,833.353z"/>
					<path style="fill:#BFBABA;" d="M548.807,680.463c9.903,3.509,17.07,14.067,17.07,26.498c0,0.951-0.03,1.873-0.119,2.825
						l-38.155-25.516c3.955-3.182,8.803-5.056,14.007-5.056C544.108,679.214,546.547,679.66,548.807,680.463z"/>
					<path style="fill:#4661AF;" d="M567.126,711.422c2.23,43.866-23.048,39.405-72.118,28.996
						c-43.836-9.309-92.43-41.159-102.274-47.821c-0.714-2.23-1.457-3.896-1.784-4.609v-1.398c0.089-0.505,0.119-1.011,0.119-1.546
						v-9.814l53.561,21.948l8.327,3.42c0.922,0.536,1.874,0.981,2.855,1.398c0.03,0,0.059,0.03,0.089,0.03
						c0.952,0.416,1.963,0.744,2.974,0.981l73.099,29.948l0.178-0.416c2.915,1.398,6.097,2.171,9.457,2.171
						c12.579,0,22.929-10.944,24.148-24.922l1.695,1.13L567.126,711.422z"/>
					<path style="fill:#F4F2ED;" d="M500.956,402.073c-6.275,3.093-11.212,11.39-13.174,22.126l-2.706,14.751l-8,2.468
						l-3.152-17.219c-0.982-5.353-2.706-10.111-4.967-13.918c-2.26-3.806-5.085-6.662-8.238-8.208
						c6.572-8,11.539-19.241,14.275-32.208l5.859-27.717l5.859,27.717c1.368,6.483,3.301,12.52,5.68,17.962
						C494.8,393.27,497.685,398.088,500.956,402.073z"/>
					<polygon style="fill:#F4F2ED;" points="477.076,441.418 485.075,438.95 480.852,461.998 					"/>
					<path style="fill:#D2C9C9;" d="M481.358,652.865l67.538,27.39l-0.089,0.208c-2.26-0.803-4.699-1.249-7.197-1.249
						c-5.205,0-10.052,1.874-14.007,5.056l-48.208-32.208L481.358,652.865z"/>
					<path style="fill:#CBC6BD;" d="M475.678,302.505c-0.268-3.955-0.565-7.91-0.922-11.866c0.178,0.06,0.357,0.089,0.535,0.149
						c2.855,1.101,5.591,3.955,5.175,6.87C480.079,300.245,477.581,301.732,475.678,302.505z"/>
					<path style="fill:#CBC6BD;" d="M474.548,288.677c-0.387-3.866-0.803-7.732-1.309-11.569c1.844,0.03,3.658,0.743,4.966,1.427
						c0.833,0.446,1.695,1.1,1.606,1.695c-0.059,0.505,0.297,0.981,0.803,1.071c0.535,0.089,1.011-0.238,1.07-0.743
						c0.178-1.339-0.743-2.617-2.617-3.599c-2.141-1.13-4.193-1.695-6.067-1.695c-0.238-1.844-0.446-3.717-0.714-5.561
						c-0.06-0.506-0.565-0.892-1.071-0.833c-0.535,0.03-0.892,0.476-0.803,0.981c0.268,1.873,0.476,3.747,0.714,5.621
						c-2.825,0.684-5.026,3.093-5.412,5.859c-0.357,2.766,1.16,5.799,3.658,7.316c1.101,0.684,2.26,1.041,3.42,1.398
						c0.417,4.342,0.743,8.714,1.011,13.085c-2.885,0.773-5.413,0.743-7.435-0.06c-2.082-0.773-4.163-2.914-3.985-5.264
						c0.03-0.506-0.357-0.952-0.892-1.011c-0.506-0.059-0.981,0.297-1.011,0.803c-0.238,3.152,2.23,5.859,4.877,7.018
						c0.119,0.059,0.238,0.119,0.357,0.149c2.32,0.922,5.085,0.952,8.208,0.208c0.119,2.23,0.267,4.461,0.357,6.691
						c0.03,0.357,0.268,0.684,0.595,0.803c0.119,0.06,0.268,0.089,0.417,0.089c0.505,0,0.922-0.387,0.892-0.892
						c-0.089-2.409-0.238-4.818-0.387-7.197c3.718-1.338,6.126-3.688,6.543-6.483c0.595-3.985-2.885-7.554-6.424-8.862
						C475.47,288.944,474.994,288.826,474.548,288.677z M471.128,258.729c17.755,0,32.148,14.424,32.148,32.148
						c0,17.784-14.394,32.178-32.148,32.178c-17.754,0-32.148-14.394-32.148-32.178
						C438.979,273.153,453.373,258.729,471.128,258.729z"/>
					<path style="fill:#CBC6BD;" d="M470.354,287.13c-1.904-1.16-3.004-3.42-2.736-5.502c0.268-1.963,1.785-3.688,3.747-4.283
						c0.446,3.569,0.862,7.138,1.219,10.736C471.782,287.844,471.038,287.547,470.354,287.13z"/>
					<path style="fill:#5C80CB;" d="M463.217,645.519l-1.279-0.535c0.03-0.089,0.03-0.178,0.03-0.268
						c0.833-0.684,1.725-1.546,2.677-2.498l14.751,9.844l-4.788-1.933L463.217,645.519z"/>
					<path style="fill:#3F3F44;" d="M461.849,638.055c0.714-6.543,1.755-13.68,5.383-19.42c0.654-1.041,1.398-1.665,1.873-1.576
						c0.417,0.089,0.863,0.833,1.16,1.963c1.606,6.632-0.535,13.948-5.442,18.647c-0.327,0.327-0.743,0.803-1.249,1.338
						c-0.149,0.149-0.327,0.357-0.565,0.595c-0.387-0.327-0.773-0.684-1.13-1.011C461.879,638.412,461.879,638.233,461.849,638.055z
						"/>
					<path style="fill:#AD4D56;" d="M462.117,640.523c0.327-0.327,0.624-0.654,0.892-0.922c0.714,0.654,1.487,1.279,2.32,1.874
						c-0.238,0.268-0.476,0.506-0.684,0.744L462.117,640.523z"/>
					<path style="fill:#BA5055;" d="M463.217,645.519c-0.446,0.03-0.892,0.06-1.309,0.119c0.03-0.208,0.06-0.446,0.03-0.654
						L463.217,645.519z"/>
					<path style="fill:#5C80CB;" d="M463.009,639.601c-0.268,0.268-0.565,0.595-0.892,0.922l-0.119-0.089
						c-0.03-0.624-0.06-1.219-0.119-1.844C462.236,638.917,462.622,639.274,463.009,639.601z"/>
					<path style="fill:#989C9F;" d="M475.678,302.505c1.903-0.773,4.401-2.26,4.788-4.848c0.416-2.915-2.32-5.769-5.175-6.87
						c-0.178-0.059-0.357-0.089-0.535-0.149C475.113,294.595,475.41,298.55,475.678,302.505z M467.618,281.628
						c-0.267,2.082,0.833,4.342,2.736,5.502c0.684,0.416,1.427,0.714,2.23,0.951c-0.357-3.598-0.773-7.167-1.219-10.736
						C469.403,277.941,467.886,279.666,467.618,281.628z M465.358,304.617c-2.647-1.16-5.115-3.866-4.877-7.018
						c0.03-0.506,0.505-0.862,1.011-0.803c0.535,0.06,0.922,0.505,0.892,1.011c-0.178,2.349,1.903,4.491,3.985,5.264
						c2.022,0.803,4.55,0.833,7.435,0.06c-0.268-4.372-0.595-8.743-1.011-13.085c-1.16-0.357-2.32-0.714-3.42-1.398
						c-2.498-1.517-4.015-4.55-3.658-7.316c0.387-2.766,2.587-5.175,5.412-5.859c-0.238-1.874-0.446-3.747-0.714-5.621
						c-0.089-0.506,0.268-0.952,0.803-0.981c0.506-0.059,1.011,0.327,1.071,0.833c0.268,1.844,0.476,3.717,0.714,5.561
						c1.873,0,3.925,0.565,6.067,1.695c1.874,0.981,2.796,2.26,2.617,3.599c-0.059,0.505-0.535,0.833-1.07,0.743
						c-0.506-0.089-0.862-0.565-0.803-1.071c0.089-0.595-0.773-1.249-1.606-1.695c-1.308-0.684-3.123-1.398-4.966-1.427
						c0.506,3.836,0.922,7.702,1.309,11.569c0.446,0.149,0.922,0.267,1.368,0.446c3.539,1.309,7.019,4.877,6.424,8.862
						c-0.416,2.796-2.825,5.145-6.543,6.483c0.149,2.379,0.297,4.788,0.387,7.197c0.03,0.505-0.387,0.892-0.892,0.892
						c-0.149,0-0.297-0.03-0.417-0.089c-0.327-0.119-0.565-0.446-0.595-0.803c-0.089-2.23-0.238-4.461-0.357-6.691
						c-3.123,0.743-5.889,0.714-8.208-0.208C465.596,304.736,465.477,304.676,465.358,304.617z"/>
					<path style="fill:#5C80CB;" d="M462.117,640.523c-0.03,0.03-0.089,0.089-0.119,0.119c0-0.06,0-0.149,0-0.208L462.117,640.523z"
						/>
					<path style="fill:#3F3F44;" d="M684.121,523.29l-22.572,10.439l-0.744,31.613l-0.386,17.724
						c3.211,0.981,5.591,4.491,5.591,8.654c0,1.814-0.446,3.509-1.249,4.937c6.126,12.699,2.736,45.62,2.736,45.62
						c-3.539,2.944-7.911,4.461-12.312,4.461c-2.468,0-4.967-0.476-7.345-1.457l-1.904-0.773c0,0-0.981-35.182,6.334-48.089
						c-0.713-1.368-1.13-2.974-1.13-4.699c0-4.461,2.736-8.178,6.305-8.803l0.416-19.212l0.654-28.579l-28.52,13.174l-13.264,6.126
						l-43.657,20.193l-31.167-13.71l-12.758-5.621l-73.219-32.237l-1.07-0.476v59.954v34.884c0.446,0.595,0.833,1.189,1.16,1.755
						c1.754,2.914,3.181,6.245,4.163,9.784c0.862-4.134,2.23-8.208,4.55-11.896c1.873-2.974,3.866-3.122,4.907-2.914
						c1.19,0.208,2.766,1.13,3.509,4.193c1.844,7.613-0.595,16.059-6.245,21.472c-0.298,0.297-0.714,0.714-1.16,1.219
						c-0.15,0.149-0.298,0.297-0.417,0.446c2.915,2.26,6.424,4.372,10.409,6.364c20.847,10.409,55.315,17.189,94.333,17.189
						c34.795,0,65.991-5.412,87.107-13.948c17.516-7.078,28.103-16.297,28.103-26.409h0.06v-45.798v-56.148L684.121,523.29z"/>
					<path style="fill:#AD4D56;" d="M458.34,634.545c0.981,1.368,2.171,2.706,3.539,4.045c0.06,0.625,0.089,1.219,0.119,1.844
						l-3.182-2.111c0.03-0.06,0.03-0.149,0.03-0.208C458.726,636.924,458.578,635.705,458.34,634.545z"/>
					<path style="fill:#AD4D56;" d="M461.908,645.817c-0.952,0.119-1.874,0.267-2.825,0.446c0,0,0-0.03-0.03-0.03
						c-0.119,0.03-0.268,0.03-0.417,0.03c1.071-0.297,2.141-0.505,3.271-0.624c0,0.03,0,0.06,0,0.089V645.817z"/>
					<path style="fill:#D2C9C9;" d="M459.083,646.263c0.951-0.178,1.873-0.327,2.825-0.446v-0.089c0-0.03,0-0.059,0-0.089
						c0.417-0.06,0.863-0.089,1.309-0.119l11.39,4.609l4.788,1.933l48.208,32.208c-6.216,5.056-10.29,13.323-10.29,22.691
						c0,11.479,6.126,21.353,14.84,25.576l-0.178,0.416l-73.099-29.948l-2.171-0.892l-3.747-1.517
						c-8.297-4.818-13.978-14.661-13.978-25.992c0-12.223,6.572-22.661,15.881-26.974c1.189-0.565,2.439-1.041,3.747-1.368
						c0.03,0,0.03,0,0.03,0c0.149,0,0.298,0,0.417-0.03C459.083,646.233,459.083,646.263,459.083,646.263z"/>
					<path style="fill:#AD4D56;" d="M461.908,645.638c-1.13,0.119-2.201,0.327-3.271,0.624c0,0,0,0-0.03,0c-0.06,0-0.089,0-0.149,0
						c-1.189-0.06-2.26-0.803-3.242-1.933c1.219-0.238,2.498-0.327,3.777-0.327c0.178,0,0.327,0,0.505,0h0.03l2.409,0.981
						C461.968,645.192,461.938,645.43,461.908,645.638z"/>
					<path style="fill:#AD4D56;" d="M454.86,642.129l4.639,1.874c-0.178,0-0.327,0-0.505,0c-1.279,0-2.558,0.089-3.777,0.327
						c-0.119-0.119-0.238-0.268-0.357-0.387V642.129z"/>
					<path style="fill:#D2C9C9;" d="M456.704,702.113l2.171,0.892c-1.011-0.238-2.022-0.565-2.974-0.981
						C456.169,702.054,456.436,702.083,456.704,702.113z"/>
					<path style="fill:#BA5055;" d="M455.217,644.33c0.981,1.13,2.052,1.873,3.242,1.933c0.06,0,0.089,0,0.149,0
						c-1.308,0.327-2.558,0.803-3.747,1.368v-3.242C454.979,644.359,455.098,644.33,455.217,644.33z"/>
					<path style="fill:#3F3F44;" d="M454.86,623.304c1.636,3.36,2.825,7.197,3.48,11.241c-2.26-3.152-3.48-6.453-3.48-9.873V623.304
						z"/>
					<path style="fill:#AD4D56;" d="M460.184,628.954c0.862-4.134,2.231-8.208,4.55-11.896c1.874-2.974,3.866-3.123,4.907-2.915
						c1.189,0.208,2.766,1.13,3.509,4.193c1.844,7.613-0.595,16.059-6.245,21.472c-0.297,0.297-0.714,0.714-1.16,1.219
						c-0.149,0.148-0.297,0.297-0.417,0.446c-0.833-0.595-1.606-1.219-2.32-1.874c0.238-0.238,0.416-0.446,0.565-0.595
						c0.506-0.535,0.922-1.011,1.249-1.338c4.907-4.699,7.048-12.015,5.442-18.647c-0.297-1.13-0.743-1.874-1.16-1.963
						c-0.476-0.089-1.219,0.535-1.873,1.576c-3.628,5.74-4.669,12.877-5.383,19.42c0.03,0.179,0.03,0.357,0.03,0.535
						c-1.368-1.338-2.558-2.676-3.539-4.045c-0.655-4.044-1.844-7.881-3.48-11.241v-5.888c0.446,0.595,0.833,1.19,1.16,1.755
						C457.775,622.084,459.202,625.415,460.184,628.954z"/>
					<path style="fill:#343438;" d="M454.86,517.551c0,1.874,0.357,3.688,1.07,5.502l-1.07-0.476V517.551z"/>
					<path style="fill:#D2C9C9;" d="M454.86,643.943c0.119,0.119,0.238,0.268,0.357,0.387c-0.119,0-0.238,0.029-0.357,0.059V643.943
						z"/>
					<path style="fill:#343438;" d="M673.921,444.214l-4.729,25.725l-5.294-28.966l-90.081-29.174l-88.742,27.152l-4.224,23.048
						l-3.777-20.58l-121.842,37.293l89.842,39.553l9.784,4.312v-5.026c0,1.874,0.357,3.688,1.07,5.502l73.219,32.237l12.758,5.621
						l31.167,13.71l43.657-20.193l13.264-6.126l28.52-13.174l0.03-1.309l-46.929-27.985l-36.252-21.65
						c-1.636,0.773-3.568,1.219-5.65,1.219c-5.948,0-10.766-3.658-10.766-8.178c0-4.521,4.818-8.178,10.766-8.178
						c5.977,0,10.795,3.658,10.795,8.178c0,1.933-0.892,3.718-2.379,5.115l40.802,24.386c0,0,0,0,0.001,0l42.646,25.427l-0.03,1.576
						l22.572-10.439l1.219-0.565l2.439-1.13l92.727-42.884L673.921,444.214z"/>
					<path style="fill:#D2C9C9;" d="M452.957,700.596l3.747,1.517c-0.268-0.03-0.535-0.059-0.803-0.089
						c-0.03,0-0.059-0.03-0.089-0.03C454.831,701.578,453.879,701.132,452.957,700.596z"/>
					<path style="fill:#5C80CB;" d="M458.816,638.322c-0.03,0.505-0.089,0.982-0.149,1.487l-0.06,0.595
						c-0.119,0.862-0.208,1.844-0.208,2.825c-0.625-0.268-1.725-1.487-3.777-5.323l-0.505-0.922
						c-0.506-0.892-0.982-1.814-1.428-2.766L458.816,638.322z"/>
					<path style="fill:#AD4D56;" d="M453.195,641.445l1.665,0.684v1.814C454.265,643.2,453.73,642.367,453.195,641.445z"/>
					<path style="fill:#AD4D56;" d="M458.816,638.322l3.182,2.111c0,0.06,0,0.149,0,0.208c0.03-0.03,0.089-0.089,0.119-0.119
						l2.528,1.695c-0.952,0.952-1.844,1.814-2.677,2.498c0,0.089,0,0.178-0.03,0.268l-2.409-0.981h-0.03l-4.639-1.874l-1.665-0.684
						c-0.416-0.684-0.803-1.398-1.19-2.141l-0.476-0.862c-1.279-2.29-2.409-4.699-3.301-7.197l4.461,2.974
						c0.446,0.952,0.922,1.873,1.428,2.766l0.505,0.922c2.052,3.837,3.152,5.056,3.777,5.323c0-0.981,0.089-1.963,0.208-2.825
						l0.06-0.595C458.726,639.304,458.786,638.828,458.816,638.322z"/>
					<path style="fill:#5C80CB;" d="M458.34,634.545c0.238,1.16,0.386,2.379,0.505,3.569c0,0.06,0,0.149-0.03,0.208l-6.127-4.104
						c-2.201-4.58-3.598-9.517-4.134-14.483c-0.148-1.398,0.149-2.944,0.803-3.063c0.238-0.03,0.654,0.119,1.13,0.446
						c1.249,0.892,2.201,2.32,2.974,3.569c0.506,0.833,0.981,1.695,1.398,2.617v1.368
						C454.86,628.092,456.079,631.393,458.34,634.545z"/>
					<path style="fill:#AD4D56;" d="M453.462,620.687c-0.773-1.249-1.725-2.677-2.974-3.569c-0.476-0.327-0.892-0.476-1.13-0.446
						c-0.654,0.119-0.951,1.665-0.803,3.063c0.536,4.966,1.933,9.903,4.134,14.483l-4.461-2.974
						c-1.309-3.628-2.201-7.405-2.617-11.182c-0.387-3.45,0.922-5.948,3.271-6.305c1.071-0.179,2.171,0.148,3.301,0.922
						c1.101,0.773,1.963,1.755,2.677,2.736v5.888C454.444,622.382,453.968,621.52,453.462,620.687z"/>
					<g>
						<path style="fill:#4661AF;" d="M805.636,645.341v12.401v12.55c0,0.892-0.089,1.725-0.297,2.558
							c-0.417,1.844-1.308,3.598-2.588,5.264c-5.948,7.762-20.55,13.264-37.62,13.264c-22.334,0-40.476-9.427-40.476-21.085v-12.55
							v-10.379c-12.192-3.003-20.639-9.487-20.639-17.011v-9.219c0-0.089,0-0.149,0-0.238v-9.398v-9.219c0-0.089,0-0.148,0-0.238
							v-9.427c0-0.684,0.059-1.338,0.178-1.992c-0.06,0.059-0.149,0.089-0.178,0.178v-1.606l-18.677-10.319v45.798h-0.06
							c0,10.111-10.588,19.33-28.103,26.409c-21.115,8.535-52.312,13.948-87.107,13.948c-39.018,0-73.486-6.78-94.333-17.189
							c-3.985-1.992-7.494-4.104-10.409-6.364c-0.238,0.268-0.476,0.506-0.684,0.744l14.751,9.844l1.963,0.803l67.538,27.39
							l-0.089,0.208c9.903,3.509,17.07,14.067,17.07,26.498c0,0.951-0.03,1.873-0.119,2.825l1.695,1.13l52.818,35.271v-7.762
							c0-2.974,0.981-5.829,2.736-8.446c3.747-5.561,11.152-10.082,20.49-12.639c5.353-1.457,11.361-2.29,17.695-2.29
							c22.602,0,40.892,10.468,40.892,23.375v10.022c0,12.907-18.289,23.375-40.892,23.375c-0.892,0-1.784-0.03-2.646-0.06
							l52.074,34.795l0.179,0.119c11.806-4.609,22.959-9.755,33.397-15.345c2.379-1.308,4.788-2.647,7.256-4.074
							c9.755-5.68,20.044-12.461,30.037-20.371c0.268-0.238,0.506-0.446,0.774-0.624c25.873-21.026,43.627-45.829,50.527-72.772
							c1.547-5.978,2.527-12.045,2.944-18.23v-13.264L805.636,645.341z"/>
						<path style="fill:#4661AF;" d="M448.228,631.244c-1.308-3.628-2.201-7.405-2.617-11.182c-0.387-3.45,0.921-5.948,3.271-6.305
							c1.071-0.178,2.171,0.149,3.301,0.922c1.1,0.773,1.963,1.755,2.676,2.736v-34.884l-57.992,14.394L448.228,631.244z"/>
					</g>
					<path style="fill:#BA5055;" d="M438.979,674.604c0,11.331,5.68,21.174,13.978,25.992l-8.327-3.42
						c-6.721-5.264-11.122-14.067-11.122-24.059c0-14.483,9.249-26.498,21.353-28.729v3.242
						C445.552,651.943,438.979,662.382,438.979,674.604z"/>
					<path style="fill:#D2C9C9;" d="M444.63,697.176l-53.561-21.948v-1.13v-1.606v-12.52v-10.022c0-2.885-1.1-5.621-3.093-8.119
						c-3.004-3.747-8.089-6.989-14.453-9.249c-2.736-0.981-5.71-1.784-8.862-2.379c4.104-8.625,12.104-14.453,21.293-14.453
						c1.993,0,3.955,0.268,5.829,0.803l4.491,1.814l56.921,23.078c0.535,0.922,1.07,1.755,1.665,2.498v0.446
						c-12.104,2.231-21.353,14.245-21.353,28.729C433.508,683.11,437.909,691.913,444.63,697.176z"/>
					<path style="fill:#5C80CB;" d="M390.95,687.987c0.327,0.714,1.071,2.379,1.784,4.609c-1.189-0.803-1.814-1.249-1.814-1.249
						L390.95,687.987z"/>
					<polygon style="fill:#D6AD00;" points="391.069,674.099 391.069,675.229 391.039,675.199 					"/>
					<path style="fill:#D6AD00;" d="M390.742,675.08c0.238-0.833,0.327-1.725,0.327-2.587v1.606l-0.03,1.1L390.742,675.08z"/>
					<path style="fill:#D6AD00;" d="M391.069,685.043c0,0.535-0.03,1.041-0.119,1.546l0.089-11.39l0.03,0.03V685.043z"/>
					<path style="fill:#5C80CB;" d="M390.772,687.601c0.089-0.327,0.149-0.654,0.178-1.011v1.398
						C390.831,687.719,390.772,687.601,390.772,687.601z"/>
					<path style="fill:#BF9A00;" d="M383.634,672.166c2.439-1.814,4.342-3.807,5.621-5.918c0-0.03,0-0.03,0-0.03
						c1.19-1.963,1.814-4.074,1.814-6.245v12.52c0,0.862-0.089,1.755-0.327,2.587L383.634,672.166z"/>
					<path style="fill:#D6AD00;" d="M390.237,689.296c0.089-0.149,0.149-0.297,0.178-0.476
						C390.356,688.968,390.296,689.117,390.237,689.296z"/>
					<path style="fill:#5C80CB;" d="M390.237,689.296c-4.402,11.985-23.851,15.435-23.851,15.435
						c-1.219,0.149-2.409,0.297-3.569,0.387c11.569-1.903,20.907-6.424,25.368-12.253
						C389.077,691.734,389.761,690.515,390.237,689.296z"/>
					<path style="fill:#DBB100;" d="M384.794,661.251c2.32-1.933,4.074-4.044,5.115-6.305c0.773-1.576,1.16-3.271,1.16-4.996v10.022
						c0,2.171-0.625,4.282-1.814,6.245c0,0,0,0,0,0.03c-1.279,2.111-3.182,4.104-5.621,5.918l-6.037-2.468l0.03-0.089
						c-1.457-0.624-2.855-1.368-4.134-2.29C377.984,665.712,381.88,663.63,384.794,661.251z"/>
					<path style="fill:#FFCE00;" d="M373.493,667.318c-1.07-0.714-2.111-1.546-3.063-2.498c0.624-0.208,0.833-0.625,0.505-0.981
						c-1.665-1.665-3.42-3.301-5.145-4.937c-0.089-0.119-0.149-0.238-0.208-0.357c4.342-2.558,6.215-5.323,4.877-7.584
						c-1.189-2.052-4.639-3.301-8.565-3.807c-0.148-1.189-0.208-2.409-0.208-3.628c0-4.818,1.07-9.368,2.974-13.323
						c3.152,0.595,6.126,1.398,8.862,2.379c6.364,2.26,11.45,5.502,14.453,9.249c1.992,2.498,3.093,5.234,3.093,8.119
						c0,1.725-0.387,3.42-1.16,4.996c-1.041,2.26-2.795,4.371-5.115,6.305C381.88,663.63,377.984,665.712,373.493,667.318z"/>
					<path style="fill:#CEA600;" d="M370.936,663.839c0.327,0.357,0.119,0.773-0.505,0.981c-1.785-1.695-3.361-3.688-4.639-5.918
						C367.516,660.538,369.271,662.173,370.936,663.839z"/>
					<path style="fill:#FFCE00;" d="M367.546,651.497c1.1,1.904-0.922,3.866-2.915,5.234c-1.16-2.439-2.022-5.085-2.468-7.881
						C364.69,649.326,366.802,650.218,367.546,651.497z"/>
					<path style="fill:#CEA600;" d="M367.546,651.497c-0.743-1.279-2.855-2.171-5.383-2.647c-0.119-0.565-0.208-1.13-0.268-1.695
						c3.926,0.505,7.376,1.755,8.565,3.807c1.338,2.26-0.535,5.026-4.877,7.584c-0.357-0.595-0.684-1.189-0.952-1.814
						C366.624,655.363,368.646,653.4,367.546,651.497z"/>
					<path style="fill:#FFCE00;" d="M365.791,658.902c-0.119-0.089-0.208-0.208-0.327-0.297c0.03-0.03,0.089-0.06,0.119-0.06
						C365.642,658.664,365.702,658.783,365.791,658.902z"/>
					<path style="fill:#FFCE00;" d="M355.471,648.493c2.201-0.148,4.58-0.03,6.691,0.357c0.446,2.796,1.309,5.442,2.468,7.881
						c-0.238,0.149-0.446,0.297-0.654,0.446c-3.063-2.885-6.186-5.74-9.398-8.565C354.876,648.582,355.174,648.523,355.471,648.493z
						"/>
					<path style="fill:#D6AD00;" d="M328.23,702.589c7.762,2.706,18.795,4.164,34.438,2.558c-3.837,0.624-7.881,0.952-12.104,0.952
						C342.326,706.099,334.624,704.82,328.23,702.589z"/>
					<path style="fill:#FFCE00;" d="M310.089,649.951c0-11.658,18.141-21.085,40.475-21.085c4.966,0,9.695,0.476,14.096,1.338
						c-1.903,3.955-2.974,8.505-2.974,13.323c0,1.219,0.06,2.439,0.208,3.628c-2.171-0.297-4.52-0.357-6.661-0.179
						c-0.773,0.06-1.517,0.149-2.26,0.238c-3.182-2.766-6.424-5.472-9.725-8.178c2.647-0.743,5.74-0.952,8.119-0.981
						c1.457-0.03,3.123,0.119,3.42,0.595c0.238,0.417,1.1,0.625,1.903,0.476c0.803-0.179,1.249-0.625,1.011-1.011
						c-0.625-1.101-2.855-1.665-6.216-1.636c-3.836,0.06-7.167,0.505-9.814,1.279c-1.636-1.308-3.212-2.617-4.847-3.926
						c-0.446-0.327-1.398-0.416-2.112-0.149c-0.714,0.238-0.922,0.714-0.476,1.071c1.636,1.309,3.242,2.617,4.877,3.925
						c-0.03,0.03-0.03,0.03-0.03,0.03c-3.599,1.665-5.145,4.401-3.777,6.662c1.368,2.231,5.561,3.866,10.23,3.985
						c1.993,0.059,3.926-0.148,5.799-0.386c3.569,3.122,7.019,6.275,10.379,9.457c-3.628,1.755-7.257,2.825-10.736,3.063
						c-3.509,0.267-7.941-0.476-9.279-2.32c-0.297-0.387-1.16-0.565-1.963-0.387c-0.803,0.178-1.189,0.624-0.922,1.011
						c1.814,2.468,7.197,3.509,11.807,3.271c0.178,0,0.387-0.03,0.565-0.03c3.985-0.298,7.97-1.398,11.955-3.271
						c1.695,1.636,3.39,3.242,5.056,4.877c0.267,0.268,0.833,0.416,1.398,0.386c0.208-0.03,0.417-0.06,0.624-0.119
						c0.089-0.03,0.149-0.03,0.208-0.089c0.952,0.952,1.993,1.784,3.063,2.498c-0.148,0.06-0.327,0.119-0.476,0.178
						c-6.424,2.231-14.126,3.509-22.453,3.509c-0.178,0-0.327,0-0.505,0c-8.119-0.03-15.613-1.338-21.918-3.509
						c-4.728-1.636-8.714-3.777-11.747-6.245c-2.052-1.695-3.658-3.509-4.729-5.472c-0.178-0.268-0.297-0.535-0.416-0.833
						C310.505,653.371,310.089,651.675,310.089,649.951z"/>
					<path style="fill:#FFCE00;" d="M349.732,647.571c-1.308,0.148-2.587,0.268-3.836,0.238c-3.509-0.089-6.662-1.338-7.673-3.003
						c-0.981-1.606,0.059-3.539,2.498-4.818C343.784,642.486,346.788,645.044,349.732,647.571z"/>
					<path style="fill:#CEA600;" d="M340.72,639.988c-2.439,1.279-3.479,3.212-2.498,4.818c1.011,1.665,4.163,2.914,7.673,3.003
						c1.249,0.03,2.528-0.089,3.836-0.238C346.788,645.044,343.784,642.486,340.72,639.988z M334.713,633.683
						c0.714-0.268,1.665-0.178,2.112,0.149c1.636,1.309,3.212,2.617,4.847,3.926c2.647-0.773,5.978-1.219,9.814-1.279
						c3.361-0.03,5.591,0.535,6.216,1.636c0.238,0.387-0.208,0.833-1.011,1.011c-0.803,0.149-1.665-0.06-1.903-0.476
						c-0.297-0.476-1.963-0.625-3.42-0.595c-2.379,0.03-5.472,0.238-8.119,0.981c3.301,2.706,6.543,5.412,9.725,8.178
						c0.743-0.089,1.487-0.179,2.26-0.238c2.141-0.178,4.491-0.119,6.661,0.179c0.06,0.565,0.149,1.13,0.268,1.695
						c-2.111-0.387-4.491-0.505-6.691-0.357c-0.297,0.03-0.595,0.089-0.892,0.119c3.212,2.825,6.335,5.68,9.398,8.565
						c0.208-0.149,0.416-0.298,0.654-0.446c0.268,0.625,0.595,1.219,0.952,1.814c-0.03,0-0.089,0.03-0.119,0.06
						c0.119,0.089,0.208,0.208,0.327,0.297c1.279,2.23,2.855,4.223,4.639,5.918c-0.06,0.06-0.119,0.06-0.208,0.089
						c-0.208,0.059-0.416,0.089-0.624,0.119c-0.565,0.03-1.13-0.119-1.398-0.386c-1.665-1.636-3.361-3.242-5.056-4.877
						c-3.985,1.874-7.97,2.974-11.955,3.271c-0.178,0-0.387,0.03-0.565,0.03c-4.609,0.238-9.992-0.803-11.807-3.271
						c-0.267-0.387,0.119-0.833,0.922-1.011c0.803-0.179,1.665,0,1.963,0.387c1.338,1.844,5.769,2.587,9.279,2.32
						c3.479-0.238,7.108-1.309,10.736-3.063c-3.361-3.182-6.81-6.334-10.379-9.457c-1.873,0.238-3.806,0.446-5.799,0.386
						c-4.669-0.119-8.862-1.754-10.23-3.985c-1.368-2.26,0.178-4.996,3.777-6.662c0,0,0,0,0.03-0.03
						c-1.636-1.308-3.241-2.617-4.877-3.925C333.791,634.397,333.999,633.921,334.713,633.683z"/>
					<path style="fill:#5C80CB;" d="M311.665,655.779c-0.208-0.089-0.446-0.178-0.654-0.208c0.06-0.208,0.149-0.417,0.238-0.624
						C311.368,655.244,311.487,655.512,311.665,655.779z"/>
					<path style="fill:#D6AD00;" d="M311.933,678.768c5.115,8.565,20.49,14.81,38.631,14.81c11.39,0,21.71-2.439,29.026-6.394
						c4.401-2.35,7.762-5.234,9.665-8.416c0.714-1.16,1.22-2.409,1.487-3.688l0.297,0.119l-0.089,11.39
						c-0.03,0.357-0.089,0.684-0.178,1.011c-0.089,0.417-0.208,0.833-0.357,1.219c-0.03,0.178-0.089,0.327-0.178,0.476
						c-0.476,1.219-1.16,2.439-2.052,3.569c-4.461,5.829-13.799,10.349-25.368,12.253c-0.06,0.03-0.089,0.03-0.148,0.03
						c-15.643,1.606-26.676,0.149-34.438-2.558c-16.595-5.859-18.141-17.546-18.141-17.546v-12.55
						C310.089,674.664,310.714,676.805,311.933,678.768z"/>
					<path style="fill:#DBB100;" d="M311.665,655.779c1.071,1.963,2.677,3.777,4.729,5.472c3.033,2.468,7.018,4.609,11.747,6.245
						c6.305,2.171,13.799,3.48,21.918,3.509c0.178,0,0.327,0,0.505,0c8.327,0,16.03-1.279,22.453-3.509
						c0.149-0.06,0.327-0.119,0.476-0.178c1.279,0.922,2.677,1.666,4.134,2.29l-0.03,0.089l6.037,2.468
						c-0.149,0.119-0.297,0.238-0.476,0.357c-4.283,2.974-10.052,5.383-16.743,6.87c-4.877,1.071-10.201,1.665-15.851,1.665
						c-13.353,0-25.189-3.361-32.564-8.535c-2.647-1.903-4.729-4.015-6.067-6.275v-0.03c-1.219-1.963-1.844-4.074-1.844-6.245
						v-4.699v-5.323c0,1.725,0.417,3.42,1.16,4.996c-0.089,0.208-0.178,0.416-0.238,0.624
						C311.219,655.601,311.457,655.69,311.665,655.779z"/>
					<path style="fill:#BF9A00;" d="M311.933,666.248c1.338,2.26,3.42,4.372,6.067,6.275c7.375,5.175,19.211,8.535,32.564,8.535
						c5.65,0,10.974-0.595,15.851-1.665c6.691-1.487,12.461-3.896,16.743-6.87c0.178-0.119,0.327-0.238,0.476-0.357l7.108,2.914
						c-0.267,1.279-0.773,2.528-1.487,3.688c-1.903,3.182-5.264,6.067-9.665,8.416c-7.316,3.955-17.635,6.394-29.026,6.394
						c-18.141,0-33.516-6.245-38.631-14.81c-1.219-1.963-1.844-4.104-1.844-6.275v-12.52c0,2.171,0.625,4.282,1.844,6.245V666.248z"
						/>
					<path style="fill:#D6AD00;" d="M310.089,685.043c0,0,1.547,11.688,18.141,17.546
						C317.316,698.842,310.089,692.388,310.089,685.043z"/>
					<path style="fill:#4661AF;" d="M370.847,722.574c-36.431,2.23-62.78-6.662-60.758-37.531c0,7.346,7.227,13.799,18.141,17.546
						c6.394,2.23,14.096,3.509,22.334,3.509c4.223,0,8.268-0.327,12.104-0.952c0.059,0,0.089,0,0.148-0.03
						c1.16-0.089,2.349-0.238,3.569-0.387c0,0,19.449-3.45,23.851-15.435c0.06-0.178,0.119-0.327,0.178-0.476
						c0.149-0.387,0.268-0.803,0.357-1.219c0,0,0.06,0.119,0.178,0.387l-0.03,3.36c0,0,0.625,0.446,1.814,1.249
						C395.679,701.846,398.326,720.879,370.847,722.574z"/>
				</g>
			</g>
			<path style="fill:#4661AF;" d="M619.914,752.313c0,0,12.668,21.918,41.278,19.509l18.945,6.513
				C680.136,778.335,625.118,790.975,619.914,752.313z"/>
		</g>
		<g>
			<path style="fill:#3C4E7A;" d="M297.831,740.829c0.027,6.609,0.054,13.217,0.081,19.826c0.01,2.593,8.631,0.99,8.618-2.309
				c-0.027-6.609-0.054-13.217-0.081-19.826C306.438,735.927,297.817,737.53,297.831,740.829L297.831,740.829z"/>
		</g>
		<g>
			<path style="fill:#3C4E7A;" d="M333.661,774.523c1.026,8.911,1.317,17.816,0.873,26.774c-0.075,1.516,8.483,0.401,8.618-2.309
				c0.444-8.959,0.153-17.863-0.873-26.774C342.061,770.322,333.376,772.045,333.661,774.523L333.661,774.523z"/>
		</g>
		<g>
			<path style="fill:#3C4E7A;" d="M377.179,802.292c0.673,6.608,1.345,13.215,2.018,19.822c0.34,3.342,8.992,1.367,8.618-2.309
				c-0.673-6.607-1.346-13.215-2.018-19.823C385.456,796.641,376.804,798.616,377.179,802.292L377.179,802.292z"/>
		</g>
		<g>
			<path style="fill:#3C4E7A;" d="M451.557,832.027c1.346,7.884,1.999,15.796,1.963,23.794c-0.011,2.408,8.603,0.881,8.618-2.309
				c0.037-7.998-0.616-15.91-1.963-23.794C459.713,827.014,451.046,829.035,451.557,832.027L451.557,832.027z"/>
		</g>
		<g>
			<path style="fill:#3C4E7A;" d="M505.176,838.955c1.271,9.92,2.543,19.839,3.815,29.759c0.267,2.084,8.95,0.283,8.618-2.309
				c-1.272-9.92-2.543-19.839-3.815-29.759C513.527,834.562,504.844,836.364,505.176,838.955L505.176,838.955z"/>
		</g>
		<g>
			<path style="fill:#3C4E7A;" d="M558.552,842.939c0.995,9.582,1.99,19.165,2.985,28.747c0.252,2.428,8.924,0.633,8.618-2.309
				c-0.995-9.583-1.99-19.165-2.986-28.747C566.917,838.202,558.246,839.997,558.552,842.939L558.552,842.939z"/>
		</g>
		<g>
			<path style="fill:#3C4E7A;" d="M625.573,839.094c0.082-0.12,0.164-0.241,0.246-0.361c-2.48,0.665-4.961,1.329-7.441,1.994
				c1.381,0.778,1.104,13.512,1.209,15.016c0.35,4.992,0.7,9.983,1.05,14.975c0.232,3.307,8.877,1.392,8.618-2.309
				c-0.457-6.527-0.915-13.055-1.373-19.582c-0.253-3.606,0.912-10.58-2.745-12.639c-2.351-1.324-5.984-0.141-7.441,1.994
				c-0.082,0.12-0.164,0.241-0.246,0.361C615.019,842.101,623.746,841.771,625.573,839.094L625.573,839.094z"/>
		</g>
		<g>
			<path style="fill:#3C4E7A;" d="M670.577,829.933c1.184,10.253,1.745,20.52,1.687,30.841c-0.013,2.278,8.6,0.795,8.618-2.309
				c0.058-10.321-0.503-20.588-1.687-30.841C678.906,825.114,670.234,826.957,670.577,829.933L670.577,829.933z"/>
		</g>
		<g>
			<path style="fill:#334466;" d="M732.744,806.119c1.226,6.283,1.596,12.571,1.116,18.954c-0.113,1.505,8.41,0.458,8.618-2.309
				c0.48-6.384,0.11-12.671-1.116-18.954C740.956,801.729,732.282,803.753,732.744,806.119L732.744,806.119z"/>
		</g>
		<g>
			<path style="fill:#334466;" d="M767.742,790.399c0.99,6.279,1.98,12.557,2.969,18.836c0.557,3.529,9.207,1.427,8.618-2.309
				c-0.99-6.278-1.98-12.557-2.969-18.835C775.804,784.56,767.153,786.662,767.742,790.399L767.742,790.399z"/>
		</g>
		<g>
			<path style="fill:#334466;" d="M791.995,770.568c0.002,4.626,0.003,9.252,0.005,13.879c0.001,1.831,8.619,0.476,8.618-2.309
				c-0.002-4.626-0.003-9.252-0.005-13.879C800.612,766.428,791.994,767.783,791.995,770.568L791.995,770.568z"/>
		</g>
		<g>
			<path style="fill:#334466;" d="M818.328,740.829c0,3.635,0,7.269,0,10.904c0,1.555,8.618,0.288,8.618-2.309
				c0-3.635,0-7.27,0-10.904C826.946,736.964,818.328,738.232,818.328,740.829L818.328,740.829z"/>
		</g>
	</g>
</g>
</svg>
