<svg width="11" height="12" viewBox="0 0 11 12" fill="none" xmlns="http://www.w3.org/2000/svg">
<path d="M10.6575 8.55255L9.42266 3.14107C8.58479 -0.497297 6.66292 -0.683138 5.14926 2.72784L4.48203 4.23395L2.87599 4.60024C-0.761818 5.4323 -0.94822 7.35997 2.46276 8.87364L7.531 11.1277C9.8073 12.1332 11.214 10.9799 10.6575 8.55255ZM7.51581 8.43629L5.51118 6.01544C5.43251 5.91993 5.40253 5.80568 5.4132 5.69536C5.42386 5.58504 5.47518 5.47865 5.57069 5.39998C5.75535 5.24788 6.03405 5.27483 6.18615 5.45949L8.19079 7.88034C8.34289 8.065 8.31594 8.3437 8.13128 8.4958C7.94661 8.6479 7.66791 8.62095 7.51581 8.43629Z" fill="white"/>
</svg>
